<svg id="Capa_1" data-name="Capa 1" xmlns="http://www.w3.org/2000/svg" viewBox="0 0 165.7 65.01"><defs><style>.cls-1{fill:#e6282e;stroke:#010101;stroke-miterlimit:10;stroke-width:1.73px;}.cls-2{fill:#010101;}</style></defs><title>boton de cancelar. adm. finanazas- pagos</title><rect class="cls-1" x="0.86" y="0.86" width="163.97" height="63.28" rx="12.27"/><path class="cls-2" d="M27,69.94,51.44,40.41a1.13,1.13,0,0,1,1.87,0l.25.34a2.06,2.06,0,0,1-.12,2.4L29,72.7a1.12,1.12,0,0,1-1.86,0l-.25-.34A2.08,2.08,0,0,1,27,69.94Z" transform="translate(-17.15 -23.04)"/><path class="cls-2" d="M30.4,40.68,52,70.56A2.08,2.08,0,0,1,51.87,73l-.27.33a1.13,1.13,0,0,1-1.87,0L28.14,43.4a2.06,2.06,0,0,1,.11-2.4l.28-.34A1.13,1.13,0,0,1,30.4,40.68Z" transform="translate(-17.15 -23.04)"/><path class="cls-2" d="M71.21,65.53a8.29,8.29,0,0,1-6.44-3,10.08,10.08,0,0,1-1.88-3.3,13,13,0,0,1,0-8.29,10.1,10.1,0,0,1,1.89-3.3,8.79,8.79,0,0,1,2.86-2.18,8.75,8.75,0,0,1,7.11,0,7.18,7.18,0,0,1,2.78,2.24l-1.15,1.37A6.58,6.58,0,0,0,74,47.24a6.68,6.68,0,0,0-2.76-.57,6.59,6.59,0,0,0-2.87.63,6.78,6.78,0,0,0-2.32,1.78,8.71,8.71,0,0,0-1.53,2.68,10.45,10.45,0,0,0,0,6.75,8.76,8.76,0,0,0,1.53,2.69A6.9,6.9,0,0,0,68.41,63a6.49,6.49,0,0,0,8-1.83l1.15,1.38a7.3,7.3,0,0,1-2.78,2.25A8.45,8.45,0,0,1,71.21,65.53Z" transform="translate(-17.15 -23.04)"/><path class="cls-2" d="M84.49,65.51A5.29,5.29,0,0,1,82,64.94a3.94,3.94,0,0,1-1.63-1.58A4.64,4.64,0,0,1,79.77,61a4.88,4.88,0,0,1,.48-2.18,3.62,3.62,0,0,1,1.57-1.58,6.26,6.26,0,0,1,2.94-.59h4.45v1.54h-4.4a3.45,3.45,0,0,0-2.59.79,2.77,2.77,0,0,0-.73,2,2.72,2.72,0,0,0,.86,2.1,3.43,3.43,0,0,0,2.41.79,4.15,4.15,0,0,0,2.55-.8,4.61,4.61,0,0,0,1.56-2.32l.39,1.43a4.66,4.66,0,0,1-1.71,2.42A5,5,0,0,1,84.49,65.51Zm4.45-.15V62l-.07-.55V55.75a4.46,4.46,0,0,0-.92-3,3.46,3.46,0,0,0-2.74-1.05,5.88,5.88,0,0,0-2.39.5A6.11,6.11,0,0,0,80.9,53.5L80.11,52a6.82,6.82,0,0,1,2.37-1.53,7.82,7.82,0,0,1,2.9-.54,5,5,0,0,1,3.87,1.47,6.43,6.43,0,0,1,1.37,4.49v9.52Z" transform="translate(-17.15 -23.04)"/><path class="cls-2" d="M102,49.88a5.23,5.23,0,0,1,2.76.72,4.73,4.73,0,0,1,1.87,2.17,8.79,8.79,0,0,1,.68,3.68v8.91h-1.75v-8.7a5.67,5.67,0,0,0-1-3.67,3.48,3.48,0,0,0-2.86-1.24,4.32,4.32,0,0,0-2.4.66,4.21,4.21,0,0,0-1.58,1.9,7.26,7.26,0,0,0-.55,3v8.06H95.36V50H97v4.2l-.27-.79a5.35,5.35,0,0,1,2-2.61A5.5,5.5,0,0,1,102,49.88Z" transform="translate(-17.15 -23.04)"/><path class="cls-2" d="M117.35,65.51a6.06,6.06,0,0,1-3.43-1,6.8,6.8,0,0,1-2.37-2.78,10,10,0,0,1,0-8.1,6.78,6.78,0,0,1,2.37-2.75,6.12,6.12,0,0,1,3.43-1,5.87,5.87,0,0,1,3,.76,5.33,5.33,0,0,1,2.09,2.28l-1.3,1a4.49,4.49,0,0,0-1.65-1.72,4.3,4.3,0,0,0-2.14-.56,4.35,4.35,0,0,0-2.49.75,5,5,0,0,0-1.74,2.08,7.25,7.25,0,0,0-.64,3.16,7.17,7.17,0,0,0,.64,3.15,5.08,5.08,0,0,0,1.74,2.09,4.35,4.35,0,0,0,2.49.75,4.3,4.3,0,0,0,2.14-.56,4.54,4.54,0,0,0,1.65-1.69l1.3,1a5.39,5.39,0,0,1-2.09,2.26A5.79,5.79,0,0,1,117.35,65.51Z" transform="translate(-17.15 -23.04)"/><path class="cls-2" d="M131.1,65.51a6.3,6.3,0,0,1-3.54-1,6.85,6.85,0,0,1-2.39-2.78,9.13,9.13,0,0,1-.86-4,9.36,9.36,0,0,1,.83-4,6.8,6.8,0,0,1,2.26-2.76,5.76,5.76,0,0,1,6.47,0,6.61,6.61,0,0,1,2.22,2.74,9.56,9.56,0,0,1,.82,4.08c0,.1,0,.2,0,.3s0,.22,0,.34H125.64V56.77H136l-.69.62a7,7,0,0,0-.6-3,5.12,5.12,0,0,0-1.64-2,4.07,4.07,0,0,0-2.39-.73,4.13,4.13,0,0,0-2.38.73,4.76,4.76,0,0,0-1.65,2,7.3,7.3,0,0,0-.59,3v.33a7,7,0,0,0,.65,3.08,5.1,5.1,0,0,0,1.82,2.07,4.84,4.84,0,0,0,2.67.75,5,5,0,0,0,2.2-.5,4.7,4.7,0,0,0,1.76-1.52l1,1.34a5.68,5.68,0,0,1-2.15,1.87A6.27,6.27,0,0,1,131.1,65.51Z" transform="translate(-17.15 -23.04)"/><path class="cls-2" d="M140.47,65.36V43.69h1.75V65.36Z" transform="translate(-17.15 -23.04)"/><path class="cls-2" d="M150.73,65.51a5.27,5.27,0,0,1-2.52-.57,4,4,0,0,1-1.64-1.58A4.63,4.63,0,0,1,146,61a4.88,4.88,0,0,1,.48-2.18,3.62,3.62,0,0,1,1.57-1.58,6.26,6.26,0,0,1,2.94-.59h4.45v1.54h-4.4a3.48,3.48,0,0,0-2.6.79,2.81,2.81,0,0,0-.72,2,2.69,2.69,0,0,0,.86,2.1,3.42,3.42,0,0,0,2.41.79,4.14,4.14,0,0,0,2.54-.8,4.56,4.56,0,0,0,1.57-2.32l.39,1.43a4.77,4.77,0,0,1-1.71,2.42A5,5,0,0,1,150.73,65.51Zm4.45-.15V62l-.07-.55V55.75a4.41,4.41,0,0,0-.93-3,3.44,3.44,0,0,0-2.74-1.05,6.11,6.11,0,0,0-4.3,1.81L146.35,52a6.78,6.78,0,0,1,2.36-1.53,7.9,7.9,0,0,1,2.9-.54,5,5,0,0,1,3.88,1.47,6.43,6.43,0,0,1,1.36,4.49v9.52Z" transform="translate(-17.15 -23.04)"/><path class="cls-2" d="M161.6,65.36V50h1.67V54.2l-.17-.73a5,5,0,0,1,1.82-2.67,5.31,5.31,0,0,1,3.17-.92v2l-.19,0h-.2a3.85,3.85,0,0,0-3.2,1.47,6.65,6.65,0,0,0-1.15,4.19v7.83Z" transform="translate(-17.15 -23.04)"/></svg>