<svg id="Capa_1" data-name="Capa 1" xmlns="http://www.w3.org/2000/svg" viewBox="0 0 133.77 45.32"><defs><style>.cls-1{fill:#28285b;}.cls-2{fill:none;stroke:#fff;stroke-miterlimit:10;}.cls-3{fill:#fff;}</style></defs><rect class="cls-1" width="133.77" height="45.32" rx="6.86"/><ellipse class="cls-2" cx="19.02" cy="21.37" rx="9.48" ry="10.09"/><path class="cls-3" d="M29.48,41a1.75,1.75,0,0,1-.94,1.6H18.22a1.85,1.85,0,0,1,0-3.21H28.54A1.77,1.77,0,0,1,29.48,41Z" transform="translate(-3.98 -19.5)"/><path class="cls-3" d="M23.16,49c-.54,0-1-.49-1.23-1.23L22,34.36c.21-.74.7-1.21,1.24-1.21s1,.49,1.22,1.23l-.08,13.4C24.19,48.51,23.7,49,23.16,49Z" transform="translate(-3.98 -19.5)"/><path class="cls-3" d="M36.43,38.41l3.84-10h.88l3.84,10h-.94l-3.53-9.36h.36l-3.52,9.36Zm1.51-2.66.27-.86h4.88l.27.86Z" transform="translate(-3.98 -19.5)"/><path class="cls-3" d="M48.67,38.13a2.93,2.93,0,0,1-1.62-.47,3.16,3.16,0,0,1-1.13-1.29,4.46,4.46,0,0,1,0-3.78,3,3,0,0,1,1.13-1.27,2.92,2.92,0,0,1,1.62-.46,2.85,2.85,0,0,1,1.51.41,2.88,2.88,0,0,1,1.07,1.23,5.1,5.1,0,0,1,0,4,3,3,0,0,1-1.07,1.24A2.78,2.78,0,0,1,48.67,38.13Zm.16,3.12a4.65,4.65,0,0,1-1.66-.3,3.18,3.18,0,0,1-1.28-.86l.43-.77a3.07,3.07,0,0,0,1.1.75,3.41,3.41,0,0,0,1.38.28,2.22,2.22,0,0,0,1.77-.66,3.19,3.19,0,0,0,.56-2.06V35.76l.12-1.28-.08-1.28V30.93H52V37.5a4.23,4.23,0,0,1-.79,2.84A3,3,0,0,1,48.83,41.25Zm-.07-4A2.24,2.24,0,0,0,50,36.88a2.36,2.36,0,0,0,.85-1,3.36,3.36,0,0,0,0-2.86,2.47,2.47,0,0,0-.85-1,2.34,2.34,0,0,0-2.46,0,2.49,2.49,0,0,0-.86,1,3.56,3.56,0,0,0,0,2.86,2.39,2.39,0,0,0,.86,1A2.24,2.24,0,0,0,48.76,37.23Z" transform="translate(-3.98 -19.5)"/><path class="cls-3" d="M54.36,38.41V30.93h.82v2l-.09-.36a2.42,2.42,0,0,1,.89-1.3,2.58,2.58,0,0,1,1.55-.45v1h-.19a1.86,1.86,0,0,0-1.56.72,3.22,3.22,0,0,0-.57,2v3.82Z" transform="translate(-3.98 -19.5)"/><path class="cls-3" d="M61.69,38.48A3.07,3.07,0,0,1,60,38a3.4,3.4,0,0,1-1.16-1.35,4.94,4.94,0,0,1,0-3.94,3.37,3.37,0,0,1,1.11-1.35,2.64,2.64,0,0,1,1.57-.49,2.68,2.68,0,0,1,1.58.48,3.25,3.25,0,0,1,1.09,1.34,4.73,4.73,0,0,1,.39,2v.15a1,1,0,0,0,0,.17H59v-.76h5l-.34.3a3.46,3.46,0,0,0-.29-1.44,2.42,2.42,0,0,0-.8-1,2.07,2.07,0,0,0-2.33,0,2.33,2.33,0,0,0-.8,1,3.45,3.45,0,0,0-.29,1.47v.16a3.25,3.25,0,0,0,.32,1.5,2.45,2.45,0,0,0,3.26,1.13,2.32,2.32,0,0,0,.86-.74l.48.66a2.78,2.78,0,0,1-1,.91A3.05,3.05,0,0,1,61.69,38.48Z" transform="translate(-3.98 -19.5)"/><path class="cls-3" d="M68.8,38.13a2.93,2.93,0,0,1-1.62-.47A3.26,3.26,0,0,1,66,36.37a4.56,4.56,0,0,1,0-3.78,3.13,3.13,0,0,1,1.14-1.27,2.92,2.92,0,0,1,1.62-.46,2.87,2.87,0,0,1,1.51.41,2.94,2.94,0,0,1,1.07,1.23,5.22,5.22,0,0,1,0,4,3,3,0,0,1-1.07,1.24A2.8,2.8,0,0,1,68.8,38.13ZM69,41.25A4.6,4.6,0,0,1,67.3,41,3.22,3.22,0,0,1,66,40.09l.43-.77a3.16,3.16,0,0,0,1.1.75,3.45,3.45,0,0,0,1.39.28,2.18,2.18,0,0,0,1.76-.66,3.13,3.13,0,0,0,.57-2.06V35.76l.12-1.28-.09-1.28V30.93h.82V37.5a4.22,4.22,0,0,1-.8,2.84A3,3,0,0,1,69,41.25Zm-.07-4a2.27,2.27,0,0,0,1.24-.35,2.44,2.44,0,0,0,.85-1,3.45,3.45,0,0,0,0-2.86,2.55,2.55,0,0,0-.85-1,2.27,2.27,0,0,0-1.24-.35,2.24,2.24,0,0,0-1.23.35,2.47,2.47,0,0,0-.85,1,3.45,3.45,0,0,0,0,2.86,2.36,2.36,0,0,0,.85,1A2.24,2.24,0,0,0,68.88,37.23Z" transform="translate(-3.98 -19.5)"/><path class="cls-3" d="M76.26,38.48A2.54,2.54,0,0,1,75,38.2a2,2,0,0,1-.8-.76,2.55,2.55,0,0,1,0-2.2,1.79,1.79,0,0,1,.77-.77,3,3,0,0,1,1.43-.29h2.17v.75H76.42a1.68,1.68,0,0,0-1.27.39,1.47,1.47,0,0,0,.07,2,1.65,1.65,0,0,0,1.17.38,2,2,0,0,0,1.24-.39,2.22,2.22,0,0,0,.77-1.13l.19.7A2.3,2.3,0,0,1,77.75,38,2.38,2.38,0,0,1,76.26,38.48Zm2.17-.07V36.76l0-.27V33.72A2.14,2.14,0,0,0,78,32.26a1.67,1.67,0,0,0-1.34-.52,2.77,2.77,0,0,0-1.17.25,2.8,2.8,0,0,0-.93.64l-.39-.76a3.41,3.41,0,0,1,1.16-.75,3.92,3.92,0,0,1,1.41-.26,2.43,2.43,0,0,1,1.89.72,3.1,3.1,0,0,1,.67,2.19v4.64Z" transform="translate(-3.98 -19.5)"/><path class="cls-3" d="M81.56,38.41V30.93h.82v2l-.08-.36a2.41,2.41,0,0,1,.88-1.3,2.6,2.6,0,0,1,1.55-.45v1h-.19a1.88,1.88,0,0,0-1.56.72,3.22,3.22,0,0,0-.56,2v3.82Z" transform="translate(-3.98 -19.5)"/><path class="cls-3" d="M89.7,38.41v-10h.73l3.84,7.78h-.38l3.8-7.78h.73v10h-.85V30h.21l-3.51,7.12h-.42L90.32,30h.23v8.39Z" transform="translate(-3.98 -19.5)"/><path class="cls-3" d="M102.75,38.48a2.47,2.47,0,0,1-1.22-.28,1.9,1.9,0,0,1-.8-.76,2.24,2.24,0,0,1-.28-1.14,2.46,2.46,0,0,1,.23-1.06,1.84,1.84,0,0,1,.77-.77,3.09,3.09,0,0,1,1.44-.29h2.17v.75h-2.15a1.68,1.68,0,0,0-1.27.39,1.38,1.38,0,0,0-.35,1,1.33,1.33,0,0,0,.42,1,1.66,1.66,0,0,0,1.18.38,2,2,0,0,0,1.24-.39,2.21,2.21,0,0,0,.76-1.13l.19.7a2.34,2.34,0,0,1-.83,1.18A2.41,2.41,0,0,1,102.75,38.48Zm2.18-.07V36.76l0-.27V33.72a2.14,2.14,0,0,0-.45-1.46,1.66,1.66,0,0,0-1.34-.52,2.75,2.75,0,0,0-1.16.25,2.85,2.85,0,0,0-.94.64l-.38-.76a3.37,3.37,0,0,1,1.15-.75,4,4,0,0,1,1.42-.26,2.46,2.46,0,0,1,1.89.72,3.15,3.15,0,0,1,.66,2.19v4.64Z" transform="translate(-3.98 -19.5)"/><path class="cls-3" d="M107.08,31.77v-.84H111v.84Zm3,6.71a1.7,1.7,0,0,1-1.37-.57,2.42,2.42,0,0,1-.48-1.61v-7h.85v7a1.6,1.6,0,0,0,.29,1,1,1,0,0,0,.81.35,1.27,1.27,0,0,0,.93-.38l.3.73a1.49,1.49,0,0,1-.6.39A2,2,0,0,1,110.05,38.48Z" transform="translate(-3.98 -19.5)"/><path class="cls-3" d="M115.38,38.48a3,3,0,0,1-1.73-.49,3.33,3.33,0,0,1-1.16-1.35,4.94,4.94,0,0,1,0-3.94,3.35,3.35,0,0,1,1.1-1.35,2.82,2.82,0,0,1,3.16,0,3.15,3.15,0,0,1,1.08,1.34,4.58,4.58,0,0,1,.4,2v.15a1,1,0,0,0,0,.17h-5.49v-.76h5l-.33.3a3.31,3.31,0,0,0-.3-1.44,2.27,2.27,0,0,0-.8-1,1.93,1.93,0,0,0-1.16-.36,2,2,0,0,0-1.16.36,2.35,2.35,0,0,0-.81,1,3.6,3.6,0,0,0-.29,1.47v.16a3.38,3.38,0,0,0,.32,1.5,2.43,2.43,0,0,0,.89,1,2.4,2.4,0,0,0,1.3.36,2.47,2.47,0,0,0,1.08-.24,2.29,2.29,0,0,0,.85-.74l.48.66a2.78,2.78,0,0,1-1,.91A3,3,0,0,1,115.38,38.48Z" transform="translate(-3.98 -19.5)"/><path class="cls-3" d="M120,38.41V30.93h.82v2l-.09-.36a2.42,2.42,0,0,1,.89-1.3,2.58,2.58,0,0,1,1.55-.45v1h-.19a1.86,1.86,0,0,0-1.56.72,3.22,3.22,0,0,0-.57,2v3.82Z" transform="translate(-3.98 -19.5)"/><path class="cls-3" d="M125.1,29.28a.55.55,0,0,1-.45-.22.76.76,0,0,1-.18-.51.71.71,0,0,1,.18-.5.57.57,0,0,1,.45-.21.59.59,0,0,1,.44.2.71.71,0,0,1,.18.5.81.81,0,0,1-.17.52A.55.55,0,0,1,125.1,29.28Zm-.43,9.13V30.93h.85v7.48Z" transform="translate(-3.98 -19.5)"/><path class="cls-3" d="M129.67,38.48a2.54,2.54,0,0,1-1.23-.28,2,2,0,0,1-.8-.76,2.34,2.34,0,0,1-.27-1.14,2.46,2.46,0,0,1,.23-1.06,1.79,1.79,0,0,1,.77-.77,3,3,0,0,1,1.43-.29H132v.75h-2.14a1.68,1.68,0,0,0-1.27.39,1.38,1.38,0,0,0-.35,1,1.33,1.33,0,0,0,.42,1,1.65,1.65,0,0,0,1.17.38,2,2,0,0,0,1.24-.39,2.22,2.22,0,0,0,.77-1.13l.19.7a2.34,2.34,0,0,1-.83,1.18A2.43,2.43,0,0,1,129.67,38.48Zm2.17-.07V36.76l0-.27V33.72a2.14,2.14,0,0,0-.45-1.46,1.67,1.67,0,0,0-1.34-.52,2.69,2.69,0,0,0-1.16.25,2.75,2.75,0,0,0-.94.64l-.38-.76a3.28,3.28,0,0,1,1.15-.75,3.92,3.92,0,0,1,1.41-.26,2.43,2.43,0,0,1,1.89.72,3.1,3.1,0,0,1,.67,2.19v4.64Z" transform="translate(-3.98 -19.5)"/><path class="cls-3" d="M38.66,55.51h-.88v-10h.88ZM44,50.91H38.57V50H44Zm-.08-5.37h.88v10h-.88Z" transform="translate(-3.98 -19.5)"/><path class="cls-3" d="M49.13,55.58a2.54,2.54,0,0,1-1.23-.28,1.86,1.86,0,0,1-.8-.77,2.44,2.44,0,0,1,0-2.19,1.69,1.69,0,0,1,.77-.77,2.9,2.9,0,0,1,1.43-.29h2.17V52H49.28a1.65,1.65,0,0,0-1.26.39,1.45,1.45,0,0,0,.06,2,1.72,1.72,0,0,0,1.18.38,2,2,0,0,0,1.24-.39,2.21,2.21,0,0,0,.76-1.13l.2.7a2.34,2.34,0,0,1-.84,1.18A2.44,2.44,0,0,1,49.13,55.58Zm2.17-.07V53.86l0-.28V50.82a2.17,2.17,0,0,0-.45-1.47,1.68,1.68,0,0,0-1.33-.51,2.92,2.92,0,0,0-1.17.24,2.85,2.85,0,0,0-.93.64L47,49a3.47,3.47,0,0,1,1.15-.75A3.77,3.77,0,0,1,49.56,48a2.43,2.43,0,0,1,1.89.72,3.12,3.12,0,0,1,.67,2.18v4.65Z" transform="translate(-3.98 -19.5)"/><path class="cls-3" d="M54.43,55.51V44.94h.85v5.3l-.12,1.51.09,1.51v2.25Zm3.25.07a2.56,2.56,0,0,1-1.48-.45,3.06,3.06,0,0,1-1.05-1.3,5.14,5.14,0,0,1-.38-2.07,4.9,4.9,0,0,1,.39-2.07,3,3,0,0,1,1.05-1.29A2.54,2.54,0,0,1,57.68,48a2.93,2.93,0,0,1,1.62.47,3.3,3.3,0,0,1,1.12,1.34,4.59,4.59,0,0,1,.41,2,4.65,4.65,0,0,1-.41,2,3.3,3.3,0,0,1-1.12,1.34A2.79,2.79,0,0,1,57.68,55.58Zm-.06-.9a2.07,2.07,0,0,0,1.2-.36,2.4,2.4,0,0,0,.84-1,3.84,3.84,0,0,0,0-3.07,2.49,2.49,0,0,0-.84-1,2.07,2.07,0,0,0-1.2-.36,2.09,2.09,0,0,0-1.2.36,2.49,2.49,0,0,0-.84,1,4,4,0,0,0,0,3.07,2.4,2.4,0,0,0,.84,1A2.09,2.09,0,0,0,57.62,54.68Z" transform="translate(-3.98 -19.5)"/><path class="cls-3" d="M63,46.38a.56.56,0,0,1-.44-.22.81.81,0,0,1,0-1,.58.58,0,0,1,.88,0,.69.69,0,0,1,.18.49.79.79,0,0,1-.17.53A.58.58,0,0,1,63,46.38Zm-.43,9.13V48h.85v7.48Z" transform="translate(-3.98 -19.5)"/><path class="cls-3" d="M65.8,55.51V44.94h.85V55.51Z" transform="translate(-3.98 -19.5)"/></svg>