<svg id="Capa_1" data-name="Capa 1" xmlns="http://www.w3.org/2000/svg" viewBox="0 0 169.04 72.05"><defs><style>.cls-1,.cls-2{fill:#e7e6e6;stroke:#010101;stroke-miterlimit:10;}.cls-1{stroke-width:1.84px;}.cls-2{stroke-width:1.63px;}.cls-3{font-size:45.98px;fill:#010101;font-family:MyriadPro-Regular, Myriad Pro;}.cls-4{letter-spacing:0em;}</style></defs><title>BOTON DE DETALLE. -ADM finazas, reportes</title><rect class="cls-1" x="0.92" y="0.92" width="167.21" height="70.21" rx="13.05"/><path class="cls-2" d="M53.17,29.5c-11.06,0-20,13.07-20,29.19s9,29.2,20,29.2,20-13.08,20-29.2S64.23,29.5,53.17,29.5ZM57,55.42a19.19,19.19,0,0,1,3.4,2.51,14.71,14.71,0,0,1,2.89,3.5A10.65,10.65,0,0,1,64.72,69a9.52,9.52,0,0,1-3.38,5.21,11.35,11.35,0,0,1-5.14,2.16c-.05,1.72-.12,3.48-.17,5.2H49.27V75a33.91,33.91,0,0,1-3.87-3.15c-2.66-2.54-4-3.78-3.86-5.41.22-2.11,2.82-4,4.35-3.5.92.3.87,1.29,1.93,3a13.19,13.19,0,0,0,1.94,2.42V58.44a10,10,0,0,1-4.36-3C43.05,52.52,42.22,48,44,44.86c1.27-2.26,4-3.76,5.31-4.52.4-.23.73-.38,1-.51V33.3h6.28v6.53a15.38,15.38,0,0,1,3.47.51,12.54,12.54,0,0,1,3.29,1.5c1.15.68,1.72,1,1.93,1.52a3.37,3.37,0,0,1-1.93,4c-.5.15-.94.05-2.42-.51-1.1-.4-2.44-.94-4-1.62C56.91,48.64,57,52,57,55.42Z" transform="translate(-21.72 -21.83)"/><path class="cls-2" d="M60.38,57.93A19.19,19.19,0,0,0,57,55.42a32.89,32.89,0,0,1-3.85-2,34.41,34.41,0,0,1-2.9-2v-.2a3.89,3.89,0,0,1-1.45-2.79,3.88,3.88,0,0,1,1.45-2.52v5.31a18.86,18.86,0,0,0,1.46,1.22c1.83,1.44,2.42,1.19,5.29,3,0-3.4-.07-6.78-.1-10.18,1.53.68,2.87,1.22,4,1.62,1.48.56,1.92.66,2.42.51a3.37,3.37,0,0,0,1.93-4c-.21-.48-.78-.84-1.93-1.52A12.54,12.54,0,0,0,60,40.34a15.38,15.38,0,0,0-3.47-.51V33.3H50.23v6.53c-.23.13-.56.28-1,.51-1.34.76-4,2.26-5.31,4.52-1.74,3.09-.91,7.66,1.44,10.56a10,10,0,0,0,4.36,3v9.93c.24.22.5.45.78.68a8.8,8.8,0,0,1-.78-.58v-.1A13.19,13.19,0,0,1,47.82,66c-1.06-1.7-1-2.69-1.93-3-1.53-.51-4.13,1.39-4.35,3.5-.16,1.63,1.2,2.87,3.86,5.41A33.91,33.91,0,0,0,49.27,75v6.52H56c0-1.72.12-3.48.17-5.2a11.35,11.35,0,0,0,5.14-2.16A9.52,9.52,0,0,0,64.72,69a10.65,10.65,0,0,0-1.45-7.54A14.71,14.71,0,0,0,60.38,57.93ZM58.92,68c-.79,2-3.3,2.59-4.83,2.52a6.15,6.15,0,0,1-3.45-1.37,9.32,9.32,0,0,0,2,.86,7.58,7.58,0,0,0,3.86,0V62.53a3.39,3.39,0,0,1-.48-.59,2.71,2.71,0,0,1,.48.51v.08C57.45,63.59,59.65,66.13,58.92,68Z" transform="translate(-21.72 -21.83)"/><text class="cls-3" transform="translate(55.41 52.88) scale(0.76 1)"><tspan class="cls-4">D</tspan><tspan x="30.81" y="0">etalle</tspan></text></svg>