<svg id="Capa_1" data-name="Capa 1" xmlns="http://www.w3.org/2000/svg" viewBox="0 0 776 268"><defs><style>.cls-1,.cls-2{fill:#fff;}.cls-1{opacity:0.47;}</style></defs><title>boton cerrar cesion</title><rect class="cls-1" width="776" height="268" rx="79"/><path class="cls-2" d="M116.58,64.22c-37,0-67,35.51-67,79.31s30,79.31,67,79.31,67-35.51,67-79.31S153.57,64.22,116.58,64.22Zm-6.23,18.17c0-3.34,1.07-5.94,3.64-7.42,3.8-2.18,8.23.79,8.75,5.87a15.37,15.37,0,0,1,.08,1.66q0,25.2,0,50.4a8.75,8.75,0,0,1-2.47,6.68c-3.67,3.5-9.2.85-9.9-4.78a20.78,20.78,0,0,1-.11-2.37v-50Zm48.5,77.48a56.06,56.06,0,0,1-8.9,21.24,45.52,45.52,0,0,1-14.46,13.62,37.78,37.78,0,0,1-13.39,4.8c-1.82.28-3.66.34-4.75.44a39,39,0,0,1-27.8-11.58,52.66,52.66,0,0,1-14-24,62.55,62.55,0,0,1-1.09-30.13A56.4,56.4,0,0,1,85,111.06a44.41,44.41,0,0,1,9.87-9.52c3.21-2.22,6.88-1.16,8.65,2.47A8.51,8.51,0,0,1,101,114.65a35.28,35.28,0,0,0-12.23,16,43.86,43.86,0,0,0-2.65,23.19A40,40,0,0,0,95.74,175a28.94,28.94,0,0,0,14.48,9.06,24.89,24.89,0,0,0,11.42.3q12.33-2.55,19.87-14.65a44.13,44.13,0,0,0,.56-44.19,35.21,35.21,0,0,0-9.89-11c-4.37-3.17-4.34-10.28,0-13.25a4.91,4.91,0,0,1,6,.09c9.76,6.87,16.4,16.85,19.89,29.84A62.12,62.12,0,0,1,158.85,159.87Z" transform="translate(-12 -15)"/><path class="cls-2" d="M239.71,194.6a23.39,23.39,0,0,1-11.47-2.88,27.83,27.83,0,0,1-9.13-8.18,41.17,41.17,0,0,1-6.05-12.36,57.71,57.71,0,0,1,0-31.21,40.66,40.66,0,0,1,6.09-12.36,28.44,28.44,0,0,1,9.16-8.18,24.42,24.42,0,0,1,23.57.33,26.46,26.46,0,0,1,9.24,9.48l-6.47,8.56a22.2,22.2,0,0,0-6.62-6.66,14.65,14.65,0,0,0-7.78-2.22,15.67,15.67,0,0,0-7.74,2,18.7,18.7,0,0,0-6.08,5.52,28.39,28.39,0,0,0-4.05,8.46,40.16,40.16,0,0,0,0,21.46,28.21,28.21,0,0,0,4.05,8.45,18.62,18.62,0,0,0,6.08,5.53,15.67,15.67,0,0,0,7.74,2A14.65,14.65,0,0,0,248,180a21.81,21.81,0,0,0,6.62-6.78l6.47,8.57a26.87,26.87,0,0,1-9.24,9.53A23.35,23.35,0,0,1,239.71,194.6Z" transform="translate(-12 -15)"/><path class="cls-2" d="M287.61,194.27a19.33,19.33,0,0,1-12-3.85,24.9,24.9,0,0,1-7.94-10.51,39.27,39.27,0,0,1-2.81-15.34,40,40,0,0,1,2.74-15.33,25.47,25.47,0,0,1,7.54-10.52,17.13,17.13,0,0,1,11-3.84,16.68,16.68,0,0,1,10.7,3.74,24.87,24.87,0,0,1,7.4,10.45A42.93,42.93,0,0,1,306.94,165c0,.5,0,1.13,0,1.89s-.06,1.43-.11,2H272.52v-9H301.7l-3.85,2.82a22.85,22.85,0,0,0-1.42-8.72,14,14,0,0,0-4.12-6,9.57,9.57,0,0,0-6.16-2.11A9.92,9.92,0,0,0,280,148a13.34,13.34,0,0,0-4.2,6,25.66,25.66,0,0,0-1.46,9v2.16a24.11,24.11,0,0,0,1.65,9.22,14.17,14.17,0,0,0,4.74,6.23,11.92,11.92,0,0,0,7.16,2.22,12.06,12.06,0,0,0,6.24-1.63A15.64,15.64,0,0,0,299,176.5l5.24,8.45a20,20,0,0,1-7.05,6.94A19.08,19.08,0,0,1,287.61,194.27Z" transform="translate(-12 -15)"/><path class="cls-2" d="M316.26,193.51V135.63h9.16v15.94l-1.08-4.66a17.16,17.16,0,0,1,5.78-8.95,15.59,15.59,0,0,1,9.78-3.08v12.89c-.36-.07-.72-.12-1.08-.16s-.69-.05-1-.05A10.3,10.3,0,0,0,329,152q-3.23,4.44-3.23,13.55v28Z" transform="translate(-12 -15)"/><path class="cls-2" d="M348.22,193.51V135.63h9.16v15.94l-1.08-4.66a17.16,17.16,0,0,1,5.78-8.95,15.59,15.59,0,0,1,9.78-3.08v12.89c-.36-.07-.72-.12-1.08-.16s-.69-.05-1-.05A10.3,10.3,0,0,0,361,152q-3.22,4.44-3.23,13.55v28Z" transform="translate(-12 -15)"/><path class="cls-2" d="M389.57,194.27a14.28,14.28,0,0,1-13.44-8.4,20.64,20.64,0,0,1-1.88-8.94,22.35,22.35,0,0,1,1.65-8.78,13.11,13.11,0,0,1,5.43-6.18q3.78-2.26,10-2.27h11.94v9H392c-3.24,0-5.43.74-6.59,2.22a8.87,8.87,0,0,0-1.73,5.59,7.94,7.94,0,0,0,2.08,5.74,7.62,7.62,0,0,0,5.78,2.17,9.82,9.82,0,0,0,6.35-2.28,13.17,13.17,0,0,0,4.12-6.72l1.54,8.13a14.65,14.65,0,0,1-4.93,7.91A14.14,14.14,0,0,1,389.57,194.27Zm12.94-.76V181.7l-.46-2.39V158.83q0-6-2.58-9.27t-7.82-3.3a16,16,0,0,0-6.7,1.51,17.05,17.05,0,0,0-5.7,4.23l-3.77-9.86a22.35,22.35,0,0,1,7.93-5.42,25,25,0,0,1,9.47-1.84q9,0,13.87,6.07t4.85,18.64v33.92Z" transform="translate(-12 -15)"/><path class="cls-2" d="M424,193.51V135.63h9.16v15.94l-1.08-4.66a17.16,17.16,0,0,1,5.78-8.95,15.59,15.59,0,0,1,9.78-3.08v12.89c-.36-.07-.72-.12-1.08-.16s-.69-.05-1-.05a10.3,10.3,0,0,0-8.78,4.44q-3.24,4.44-3.23,13.55v28Z" transform="translate(-12 -15)"/><path class="cls-2" d="M496.38,194.27a18.44,18.44,0,0,1-11.51-3.85A25.47,25.47,0,0,1,477,179.91a42.84,42.84,0,0,1,0-30.73,25.63,25.63,0,0,1,7.89-10.46,18.49,18.49,0,0,1,11.51-3.84,17.1,17.1,0,0,1,10.55,3.46,20.74,20.74,0,0,1,6.94,10.08l-7.32,6.07a15.35,15.35,0,0,0-4.51-6,9.31,9.31,0,0,0-5.73-2,10.12,10.12,0,0,0-6.39,2.22,14.66,14.66,0,0,0-4.47,6.29,25.85,25.85,0,0,0-1.62,9.59,26.29,26.29,0,0,0,1.62,9.65,14.53,14.53,0,0,0,4.47,6.34,10.12,10.12,0,0,0,6.39,2.22,9.36,9.36,0,0,0,5.73-2,15.25,15.25,0,0,0,4.51-6.13l7.32,6.07a21,21,0,0,1-6.94,10A16.91,16.91,0,0,1,496.38,194.27Z" transform="translate(-12 -15)"/><path class="cls-2" d="M541,194.27a19.33,19.33,0,0,1-12-3.85,24.8,24.8,0,0,1-7.93-10.51,39.08,39.08,0,0,1-2.81-15.34A40.17,40.17,0,0,1,521,149.24a25.49,25.49,0,0,1,7.55-10.52,17.08,17.08,0,0,1,11-3.84,16.68,16.68,0,0,1,10.7,3.74,24.79,24.79,0,0,1,7.4,10.45A42.93,42.93,0,0,1,560.3,165c0,.5,0,1.13,0,1.89s-.06,1.43-.11,2H525.88v-9h29.19l-3.85,2.82a22.85,22.85,0,0,0-1.43-8.72,13.94,13.94,0,0,0-4.12-6,9.57,9.57,0,0,0-6.16-2.11,9.92,9.92,0,0,0-6.2,2.11,13.34,13.34,0,0,0-4.2,6,25.66,25.66,0,0,0-1.46,9v2.16a23.92,23.92,0,0,0,1.66,9.22,14.08,14.08,0,0,0,4.73,6.23,12.7,12.7,0,0,0,13.4.59,15.64,15.64,0,0,0,4.93-4.76l5.24,8.45a20,20,0,0,1-7.05,6.94A19.06,19.06,0,0,1,541,194.27Z" transform="translate(-12 -15)"/><path class="cls-2" d="M582.33,194.27a26.17,26.17,0,0,1-9.94-1.9,23.6,23.6,0,0,1-7.54-4.6l3.69-10.3a22.65,22.65,0,0,0,6.63,4.07,20.54,20.54,0,0,0,7.77,1.57q4.47,0,6.51-1.68a5.65,5.65,0,0,0,2-4.61,4.64,4.64,0,0,0-1.38-3.63,9.36,9.36,0,0,0-3.62-1.9q-2.24-.64-5-1.19a44.27,44.27,0,0,1-5.47-1.46,16.35,16.35,0,0,1-5-2.71,12.92,12.92,0,0,1-3.62-4.83,19.88,19.88,0,0,1-1.38-8.12,19.38,19.38,0,0,1,2.23-9.49,16,16,0,0,1,6.28-6.34,19.19,19.19,0,0,1,9.59-2.27,27.63,27.63,0,0,1,8.35,1.35,20.8,20.8,0,0,1,7.12,3.74l-3.77,10.3A17,17,0,0,0,590,147a20.28,20.28,0,0,0-5.93-.92c-2.88,0-5,.6-6.47,1.79a5.7,5.7,0,0,0-2.16,4.6,5.13,5.13,0,0,0,1.39,3.91,9.33,9.33,0,0,0,3.62,2c1.49.47,3.14.91,5,1.3a51.09,51.09,0,0,1,5.43,1.52,18.08,18.08,0,0,1,5,2.6,11.73,11.73,0,0,1,3.66,4.71,19.33,19.33,0,0,1,1.39,7.92,18.79,18.79,0,0,1-2.27,9.48,15.94,15.94,0,0,1-6.4,6.18A20.55,20.55,0,0,1,582.33,194.27Z" transform="translate(-12 -15)"/><path class="cls-2" d="M614.06,126.1a5.26,5.26,0,0,1-4.43-2.39,9.65,9.65,0,0,1-1.73-5.85,9.3,9.3,0,0,1,1.73-5.64,5.28,5.28,0,0,1,4.43-2.38,5.37,5.37,0,0,1,4.42,2.22,9,9,0,0,1,1.74,5.69,10.12,10.12,0,0,1-1.7,5.91A5.22,5.22,0,0,1,614.06,126.1Zm-4.78,67.41V135.63h9.55v57.88Z" transform="translate(-12 -15)"/><path class="cls-2" d="M649.94,194.27a17.78,17.78,0,0,1-11.2-3.85,25.68,25.68,0,0,1-7.82-10.56,42.71,42.71,0,0,1,0-30.68,26,26,0,0,1,7.78-10.46,17.78,17.78,0,0,1,11.24-3.84,18.07,18.07,0,0,1,11.36,3.84,25.68,25.68,0,0,1,7.78,10.46,43.41,43.41,0,0,1,0,30.73,25.34,25.34,0,0,1-7.82,10.51A18.07,18.07,0,0,1,649.94,194.27Zm0-11.49a9.85,9.85,0,0,0,6.32-2.22,14.59,14.59,0,0,0,4.35-6.39,27.1,27.1,0,0,0,1.58-9.6,26.51,26.51,0,0,0-1.58-9.59,14.72,14.72,0,0,0-4.35-6.29,9.88,9.88,0,0,0-12.48,0,15,15,0,0,0-4.39,6.29,25.85,25.85,0,0,0-1.62,9.59,26.43,26.43,0,0,0,1.62,9.6,14.82,14.82,0,0,0,4.39,6.39A9.62,9.62,0,0,0,649.94,182.78Zm-6.54-55.06,10.39-14.85h11.4l-13.48,14.85Z" transform="translate(-12 -15)"/><path class="cls-2" d="M704.46,134.88a14.8,14.8,0,0,1,8.82,2.71,18.24,18.24,0,0,1,6.09,8.34q2.26,5.64,2.27,14.42v33.16H712V162.08q0-7.7-2.54-11.49a8.2,8.2,0,0,0-7.24-3.79,9.81,9.81,0,0,0-6,1.95,12.33,12.33,0,0,0-4,5.8,28.23,28.23,0,0,0-1.42,9.7v29.26h-9.55V135.63h9.16v15.72l-1.62-4.88a18.38,18.38,0,0,1,6.2-8.56A15.64,15.64,0,0,1,704.46,134.88Z" transform="translate(-12 -15)"/></svg>