<svg id="Capa_1" data-name="Capa 1" xmlns="http://www.w3.org/2000/svg" viewBox="0 0 126.64 48.18"><defs><style>.cls-1{fill:#28285b;}.cls-2{fill:none;stroke:#fff;stroke-miterlimit:10;}.cls-3{fill:#fff;}</style></defs><rect class="cls-1" width="126.64" height="48.18" rx="6.42"/><ellipse class="cls-2" cx="20.53" cy="22.72" rx="10.24" ry="10.73"/><path class="cls-3" d="M34.85,44a1.87,1.87,0,0,1-1,1.7H22.7a1.94,1.94,0,0,1,0-3.41H33.84A1.87,1.87,0,0,1,34.85,44Z" transform="translate(-7.32 -21.15)"/><path class="cls-3" d="M28,52.49a1.56,1.56,0,0,1-1.32-1.31l.09-14.24c.22-.78.75-1.29,1.33-1.28s1.11.52,1.33,1.31l-.09,14.24A1.56,1.56,0,0,1,28,52.49Z" transform="translate(-7.32 -21.15)"/><path class="cls-3" d="M48.83,41.25,53,30.65h.94l4.15,10.6h-1L53.25,31.3h.39l-3.81,10Zm1.64-2.83.28-.91H56l.29.91Z" transform="translate(-7.32 -21.15)"/><path class="cls-3" d="M62.05,41a3.19,3.19,0,0,1-1.75-.5,3.35,3.35,0,0,1-1.23-1.37,4.81,4.81,0,0,1,0-4,3.35,3.35,0,0,1,1.23-1.35,3.19,3.19,0,0,1,1.75-.49,3.14,3.14,0,0,1,1.63.44A3.05,3.05,0,0,1,64.83,35a4.67,4.67,0,0,1,.43,2.11,4.6,4.6,0,0,1-.43,2.1,3.11,3.11,0,0,1-1.15,1.32A3.06,3.06,0,0,1,62.05,41Zm.16,3.31a4.88,4.88,0,0,1-1.78-.32A3.49,3.49,0,0,1,59,43l.47-.82a3.4,3.4,0,0,0,1.18.79,3.79,3.79,0,0,0,1.5.3,2.37,2.37,0,0,0,1.9-.71,3.24,3.24,0,0,0,.61-2.18v-2l.13-1.36-.09-1.36V33.3h.88v7a4.46,4.46,0,0,1-.86,3A3.24,3.24,0,0,1,62.21,44.26ZM62.14,40a2.4,2.4,0,0,0,1.33-.37,2.56,2.56,0,0,0,.92-1,3.57,3.57,0,0,0,0-3,2.59,2.59,0,0,0-.92-1,2.48,2.48,0,0,0-1.33-.37,2.51,2.51,0,0,0-1.33.37,2.59,2.59,0,0,0-.92,1,3.67,3.67,0,0,0,0,3,2.56,2.56,0,0,0,.92,1A2.42,2.42,0,0,0,62.14,40Z" transform="translate(-7.32 -21.15)"/><path class="cls-3" d="M68.19,41.25v-8h.88v2.16L69,35.09a2.58,2.58,0,0,1,1-1.39,2.77,2.77,0,0,1,1.67-.48v1.05H71.4a2,2,0,0,0-1.68.77,3.38,3.38,0,0,0-.61,2.17v4.06Z" transform="translate(-7.32 -21.15)"/><path class="cls-3" d="M76.1,41.32a3.29,3.29,0,0,1-1.86-.52A3.53,3.53,0,0,1,73,39.36a4.69,4.69,0,0,1-.45-2.09A4.76,4.76,0,0,1,73,35.18a3.51,3.51,0,0,1,1.19-1.43,3.06,3.06,0,0,1,3.41,0,3.44,3.44,0,0,1,1.17,1.42,4.9,4.9,0,0,1,.43,2.12.76.76,0,0,1,0,.15c0,.06,0,.12,0,.18H73.22v-.8h5.43l-.36.31A3.44,3.44,0,0,0,78,35.58a2.67,2.67,0,0,0-.86-1.06,2.14,2.14,0,0,0-1.25-.37,2.19,2.19,0,0,0-1.26.37,2.61,2.61,0,0,0-.87,1.06,3.73,3.73,0,0,0-.31,1.57v.16a3.66,3.66,0,0,0,.34,1.6,2.67,2.67,0,0,0,3.53,1.2,2.52,2.52,0,0,0,.92-.78l.52.69a2.92,2.92,0,0,1-1.13,1A3.43,3.43,0,0,1,76.1,41.32Z" transform="translate(-7.32 -21.15)"/><path class="cls-3" d="M83.77,41a3.19,3.19,0,0,1-1.75-.5,3.26,3.26,0,0,1-1.22-1.37,4.71,4.71,0,0,1,0-4A3.26,3.26,0,0,1,82,33.71a3.19,3.19,0,0,1,1.75-.49,3.11,3.11,0,0,1,1.63.44A3,3,0,0,1,86.55,35,4.67,4.67,0,0,1,87,37.07a4.6,4.6,0,0,1-.43,2.1A3,3,0,0,1,83.77,41Zm.17,3.31a4.93,4.93,0,0,1-1.79-.32,3.49,3.49,0,0,1-1.39-.9l.47-.82a3.44,3.44,0,0,0,1.19.79,3.74,3.74,0,0,0,1.49.3,2.4,2.4,0,0,0,1.91-.71,3.3,3.3,0,0,0,.6-2.18v-2l.13-1.36-.09-1.36V33.3h.88v7a4.41,4.41,0,0,1-.86,3A3.23,3.23,0,0,1,83.94,44.26ZM83.86,40a2.38,2.38,0,0,0,1.33-.37,2.56,2.56,0,0,0,.92-1,3.57,3.57,0,0,0,0-3,2.59,2.59,0,0,0-.92-1,2.46,2.46,0,0,0-1.33-.37,2.54,2.54,0,0,0-1.33.37,2.59,2.59,0,0,0-.92,1,3.67,3.67,0,0,0,0,3,2.56,2.56,0,0,0,.92,1A2.45,2.45,0,0,0,83.86,40Z" transform="translate(-7.32 -21.15)"/><path class="cls-3" d="M91.83,41.32A2.78,2.78,0,0,1,90.5,41a2.07,2.07,0,0,1-.86-.82,2.38,2.38,0,0,1-.3-1.2,2.47,2.47,0,0,1,.25-1.13,1.93,1.93,0,0,1,.83-.82A3.26,3.26,0,0,1,92,36.75h2.34v.8H92a1.84,1.84,0,0,0-1.37.41,1.55,1.55,0,0,0,.07,2.11,1.83,1.83,0,0,0,1.27.41,2.18,2.18,0,0,0,1.34-.42,2.33,2.33,0,0,0,.82-1.2l.21.74a2.5,2.5,0,0,1-.9,1.26A2.69,2.69,0,0,1,91.83,41.32Zm2.34-.07V39.49l0-.29V36.27a2.28,2.28,0,0,0-.48-1.56,1.83,1.83,0,0,0-1.45-.55,3.11,3.11,0,0,0-1.25.26,3,3,0,0,0-1,.68l-.42-.8a3.58,3.58,0,0,1,1.24-.8,4.41,4.41,0,0,1,1.53-.28,2.67,2.67,0,0,1,2,.77,3.27,3.27,0,0,1,.72,2.32v4.94Z" transform="translate(-7.32 -21.15)"/><path class="cls-3" d="M97.55,41.25v-8h.88v2.16l-.09-.37a2.58,2.58,0,0,1,1-1.39,2.82,2.82,0,0,1,1.67-.48v1.05h-.2a2,2,0,0,0-1.69.77,3.44,3.44,0,0,0-.61,2.17v4.06Z" transform="translate(-7.32 -21.15)"/><path class="cls-3" d="M50.28,59.42V48.82h.79l4.15,8.27h-.41l4.1-8.27h.79v10.6h-.92V50.5H59l-3.78,7.58h-.45L51,50.5h.24v8.92Z" transform="translate(-7.32 -21.15)"/><path class="cls-3" d="M64.38,59.5a2.81,2.81,0,0,1-1.33-.3,2,2,0,0,1-.86-.81,2.39,2.39,0,0,1-.3-1.21,2.64,2.64,0,0,1,.25-1.13,1.86,1.86,0,0,1,.83-.81,3.25,3.25,0,0,1,1.55-.32h2.34v.81H64.55a1.8,1.8,0,0,0-1.37.41,1.54,1.54,0,0,0,.07,2.1,1.85,1.85,0,0,0,1.27.41,2.16,2.16,0,0,0,1.34-.42,2.29,2.29,0,0,0,.82-1.2l.21.74A2.42,2.42,0,0,1,66,59,2.67,2.67,0,0,1,64.38,59.5Zm2.34-.08V57.67l0-.29V54.44a2.28,2.28,0,0,0-.48-1.56,1.87,1.87,0,0,0-1.45-.55,3.11,3.11,0,0,0-1.25.26,3,3,0,0,0-1,.68l-.42-.8a3.51,3.51,0,0,1,1.25-.79,4.1,4.1,0,0,1,1.52-.28,2.63,2.63,0,0,1,2,.76,3.3,3.3,0,0,1,.72,2.33v4.93Z" transform="translate(-7.32 -21.15)"/><path class="cls-3" d="M69,52.37v-.9h4.21v.9Zm3.21,7.13a1.8,1.8,0,0,1-1.47-.61,2.52,2.52,0,0,1-.52-1.71V49.71h.92v7.41a1.73,1.73,0,0,0,.3,1.08,1.09,1.09,0,0,0,.88.38,1.38,1.38,0,0,0,1-.41l.32.77a1.66,1.66,0,0,1-.65.42A2.39,2.39,0,0,1,72.25,59.5Z" transform="translate(-7.32 -21.15)"/><path class="cls-3" d="M78,59.5A3.4,3.4,0,0,1,76.14,59a3.61,3.61,0,0,1-1.26-1.44,4.7,4.7,0,0,1-.45-2.1,4.79,4.79,0,0,1,.43-2.09,3.52,3.52,0,0,1,1.2-1.43,2.9,2.9,0,0,1,1.7-.52,3,3,0,0,1,1.7.5,3.4,3.4,0,0,1,1.17,1.43,4.85,4.85,0,0,1,.43,2.11v.16a.91.91,0,0,0,0,.17H75.13V55h5.43l-.37.32a3.59,3.59,0,0,0-.31-1.54,2.57,2.57,0,0,0-.86-1,2.28,2.28,0,0,0-2.52,0,2.49,2.49,0,0,0-.87,1.06,3.81,3.81,0,0,0-.31,1.56v.17a3.51,3.51,0,0,0,.35,1.59,2.58,2.58,0,0,0,1,1.08,2.54,2.54,0,0,0,1.4.38,2.66,2.66,0,0,0,1.16-.25,2.49,2.49,0,0,0,.93-.79l.51.7a3,3,0,0,1-1.13,1A3.37,3.37,0,0,1,78,59.5Z" transform="translate(-7.32 -21.15)"/><path class="cls-3" d="M82.94,59.42v-8h.88v2.17l-.09-.38a2.58,2.58,0,0,1,1-1.39,2.88,2.88,0,0,1,1.67-.47v1h-.21a2,2,0,0,0-1.68.76,3.38,3.38,0,0,0-.61,2.17v4.06Z" transform="translate(-7.32 -21.15)"/><path class="cls-3" d="M88.5,49.71a.61.61,0,0,1-.48-.22.81.81,0,0,1-.2-.55.76.76,0,0,1,.2-.53.61.61,0,0,1,.48-.22.63.63,0,0,1,.48.21.75.75,0,0,1,.19.53.83.83,0,0,1-.19.56A.58.58,0,0,1,88.5,49.71ZM88,59.42v-8H89v8Z" transform="translate(-7.32 -21.15)"/><path class="cls-3" d="M93.43,59.5a2.74,2.74,0,0,1-1.32-.3,2.07,2.07,0,0,1-.87-.81A2.38,2.38,0,0,1,91,57.18a2.5,2.5,0,0,1,.25-1.13,1.81,1.81,0,0,1,.83-.81,3.22,3.22,0,0,1,1.55-.32h2.34v.81H93.6a1.83,1.83,0,0,0-1.37.41,1.44,1.44,0,0,0-.38,1,1.36,1.36,0,0,0,.46,1.09,1.83,1.83,0,0,0,1.27.41,2.2,2.2,0,0,0,1.34-.42,2.35,2.35,0,0,0,.82-1.2l.21.74a2.53,2.53,0,0,1-.9,1.26A2.7,2.7,0,0,1,93.43,59.5Zm2.35-.08V57.67l0-.29V54.44a2.23,2.23,0,0,0-.49-1.56,1.83,1.83,0,0,0-1.44-.55,3.19,3.19,0,0,0-1.26.26,3.26,3.26,0,0,0-1,.68l-.41-.8a3.47,3.47,0,0,1,1.24-.79,4.12,4.12,0,0,1,1.53-.28,2.66,2.66,0,0,1,2,.76,3.3,3.3,0,0,1,.72,2.33v4.93Z" transform="translate(-7.32 -21.15)"/></svg>