<svg id="Capa_1" data-name="Capa 1" xmlns="http://www.w3.org/2000/svg" viewBox="0 0 130.96 51.71"><defs><style>.cls-1{fill:#28285b;}.cls-2{fill:none;stroke:#fff;stroke-miterlimit:10;}.cls-3{fill:#fff;}</style></defs><rect class="cls-1" width="130.96" height="51.71" rx="6.42"/><ellipse class="cls-2" cx="21.23" cy="24.38" rx="10.59" ry="11.51"/><path class="cls-3" d="M33.61,43.72a2,2,0,0,1-1,1.83H21.05a2.12,2.12,0,0,1,0-3.66H32.57A2,2,0,0,1,33.61,43.72Z" transform="translate(-5.15 -19.22)"/><path class="cls-3" d="M26.55,52.86c-.6,0-1.14-.56-1.36-1.41l.09-15.28c.24-.84.79-1.38,1.39-1.37s1.14.56,1.37,1.4l-.1,15.28C27.71,52.32,27.16,52.86,26.55,52.86Z" transform="translate(-5.15 -19.22)"/><path class="cls-3" d="M48.07,40.79l4.29-11.37h1l4.28,11.37h-1L52.64,30.11H53L49.1,40.79Zm1.69-3,.3-1h5.45l.29,1Z" transform="translate(-5.15 -19.22)"/><path class="cls-3" d="M61.74,40.47a3.23,3.23,0,0,1-1.81-.53,3.59,3.59,0,0,1-1.27-1.47,5.3,5.3,0,0,1,0-4.32,3.59,3.59,0,0,1,1.27-1.45,3.22,3.22,0,0,1,1.81-.52,3.13,3.13,0,0,1,1.68.47,3.27,3.27,0,0,1,1.2,1.4,6,6,0,0,1,0,4.52A3.36,3.36,0,0,1,63.42,40,3,3,0,0,1,61.74,40.47ZM61.91,44a5.06,5.06,0,0,1-1.85-.34,3.51,3.51,0,0,1-1.43-1l.48-.88a3.54,3.54,0,0,0,1.23.86,3.83,3.83,0,0,0,1.54.32,2.43,2.43,0,0,0,2-.76,3.63,3.63,0,0,0,.63-2.35V37.77l.14-1.46-.1-1.47V32.26h.91v7.49A4.87,4.87,0,0,1,64.54,43,3.27,3.27,0,0,1,61.91,44Zm-.08-4.58a2.48,2.48,0,0,0,1.38-.4,2.79,2.79,0,0,0,.95-1.11,4,4,0,0,0,0-3.26,2.83,2.83,0,0,0-.95-1.1,2.62,2.62,0,0,0-2.75,0,2.68,2.68,0,0,0-1,1.1,4,4,0,0,0,0,3.26,2.64,2.64,0,0,0,1,1.11A2.47,2.47,0,0,0,61.83,39.45Z" transform="translate(-5.15 -19.22)"/><path class="cls-3" d="M68.09,40.79V32.26H69v2.32l-.1-.4a2.82,2.82,0,0,1,1-1.49,2.86,2.86,0,0,1,1.73-.51V33.3h-.21a2.09,2.09,0,0,0-1.74.82A3.79,3.79,0,0,0,69,36.44v4.35Z" transform="translate(-5.15 -19.22)"/><path class="cls-3" d="M76.27,40.88a3.35,3.35,0,0,1-1.93-.57A3.72,3.72,0,0,1,73,38.77a5.71,5.71,0,0,1,0-4.49,3.8,3.8,0,0,1,1.23-1.54,3.11,3.11,0,0,1,3.53,0A3.72,3.72,0,0,1,79,34.25a5.57,5.57,0,0,1,.44,2.27,1,1,0,0,1,0,.17v.19H73.3V36h5.61l-.38.34a4.08,4.08,0,0,0-.32-1.65,2.76,2.76,0,0,0-.89-1.13,2.27,2.27,0,0,0-2.6,0,2.61,2.61,0,0,0-.9,1.13,4.06,4.06,0,0,0-.32,1.68v.18a4,4,0,0,0,.35,1.71,2.82,2.82,0,0,0,1,1.16,2.68,2.68,0,0,0,1.46.41,2.71,2.71,0,0,0,1.2-.27,2.56,2.56,0,0,0,1-.85l.54.75a3.15,3.15,0,0,1-1.17,1A3.37,3.37,0,0,1,76.27,40.88Z" transform="translate(-5.15 -19.22)"/><path class="cls-3" d="M84.2,40.47a3.25,3.25,0,0,1-1.81-.53,3.64,3.64,0,0,1-1.26-1.47,5.3,5.3,0,0,1,0-4.32,3.65,3.65,0,0,1,1.26-1.45,3.24,3.24,0,0,1,1.81-.52,3.14,3.14,0,0,1,1.69.47,3.18,3.18,0,0,1,1.19,1.4,6,6,0,0,1,0,4.52A3.27,3.27,0,0,1,85.89,40,3,3,0,0,1,84.2,40.47ZM84.38,44a5,5,0,0,1-1.85-.34,3.55,3.55,0,0,1-1.44-1l.49-.88a3.5,3.5,0,0,0,1.22.86,3.87,3.87,0,0,0,1.55.32,2.44,2.44,0,0,0,2-.76A3.63,3.63,0,0,0,87,39.9V37.77l.13-1.46L87,34.84V32.26h.91v7.49A4.93,4.93,0,0,1,87,43,3.28,3.28,0,0,1,84.38,44Zm-.09-4.58a2.48,2.48,0,0,0,1.38-.4,2.81,2.81,0,0,0,1-1.11,4.08,4.08,0,0,0,0-3.26,2.86,2.86,0,0,0-1-1.1,2.48,2.48,0,0,0-1.38-.39,2.51,2.51,0,0,0-1.37.39,2.83,2.83,0,0,0-1,1.1,4.08,4.08,0,0,0,0,3.26,2.79,2.79,0,0,0,1,1.11A2.52,2.52,0,0,0,84.29,39.45Z" transform="translate(-5.15 -19.22)"/><path class="cls-3" d="M92.53,40.88a2.86,2.86,0,0,1-1.37-.32,2.16,2.16,0,0,1-.89-.88A2.57,2.57,0,0,1,90,38.39a2.79,2.79,0,0,1,.26-1.21,2,2,0,0,1,.86-.88,3.31,3.31,0,0,1,1.6-.33h2.43v.86h-2.4a1.84,1.84,0,0,0-1.42.44,1.7,1.7,0,0,0,.08,2.26,1.85,1.85,0,0,0,1.31.44,2.21,2.21,0,0,0,1.39-.45,2.55,2.55,0,0,0,.85-1.29l.21.79a2.62,2.62,0,0,1-.93,1.35A2.66,2.66,0,0,1,92.53,40.88ZM95,40.79V38.91l0-.31V35.45a2.53,2.53,0,0,0-.5-1.68,1.88,1.88,0,0,0-1.5-.58,3.22,3.22,0,0,0-1.3.27,3.3,3.3,0,0,0-1,.73l-.43-.86a3.63,3.63,0,0,1,1.28-.85,4.24,4.24,0,0,1,1.59-.3,2.7,2.7,0,0,1,2.11.82,3.66,3.66,0,0,1,.74,2.5v5.29Z" transform="translate(-5.15 -19.22)"/><path class="cls-3" d="M98.45,40.79V32.26h.92v2.32l-.1-.4a2.82,2.82,0,0,1,1-1.49,2.86,2.86,0,0,1,1.73-.51V33.3h-.21a2.08,2.08,0,0,0-1.74.82,3.79,3.79,0,0,0-.63,2.34v4.35Z" transform="translate(-5.15 -19.22)"/><path class="cls-3" d="M49.57,60.3V48.92h3.51a4.22,4.22,0,0,1,2.05.47,3.14,3.14,0,0,1,1.32,1.33,4.4,4.4,0,0,1,.46,2.1,4.35,4.35,0,0,1-.46,2.08,3.28,3.28,0,0,1-1.32,1.34,4.22,4.22,0,0,1-2.05.47h-3l.44-.57V60.3Zm1-4.06-.44-.59h2.94a2.57,2.57,0,0,0,2.86-2.83,2.88,2.88,0,0,0-.73-2.11A2.83,2.83,0,0,0,53.06,50H50.12l.44-.57Z" transform="translate(-5.15 -19.22)"/><path class="cls-3" d="M58.68,60.3V51.77h.91v2.32l-.09-.4a2.63,2.63,0,0,1,2.72-2v1.12H62a2.09,2.09,0,0,0-1.74.82A3.79,3.79,0,0,0,59.63,56V60.3Z" transform="translate(-5.15 -19.22)"/><path class="cls-3" d="M66.75,60.38a3.1,3.1,0,0,1-1.84-.56,3.84,3.84,0,0,1-1.27-1.55,5.62,5.62,0,0,1,0-4.5,3.85,3.85,0,0,1,1.27-1.53,3.17,3.17,0,0,1,1.84-.55,3.13,3.13,0,0,1,1.85.56,3.79,3.79,0,0,1,1.28,1.53A5.25,5.25,0,0,1,70.34,56a5.38,5.38,0,0,1-.46,2.25,3.82,3.82,0,0,1-1.28,1.54A3.18,3.18,0,0,1,66.75,60.38Zm0-1a2.26,2.26,0,0,0,1.35-.42A2.76,2.76,0,0,0,69,57.77a4.67,4.67,0,0,0,0-3.5,2.79,2.79,0,0,0-.93-1.16,2.35,2.35,0,0,0-2.68,0,2.81,2.81,0,0,0-.94,1.16,4.55,4.55,0,0,0,0,3.5,2.84,2.84,0,0,0,.93,1.17A2.25,2.25,0,0,0,66.75,59.36Z" transform="translate(-5.15 -19.22)"/><path class="cls-3" d="M75.11,60a3.23,3.23,0,0,1-1.81-.53A3.59,3.59,0,0,1,72,58a4.83,4.83,0,0,1-.46-2.16A4.77,4.77,0,0,1,72,53.66a3.53,3.53,0,0,1,1.27-1.45,3.22,3.22,0,0,1,1.81-.52,3,3,0,0,1,1.68.47,3.27,3.27,0,0,1,1.2,1.4,6,6,0,0,1,0,4.51,3.45,3.45,0,0,1-1.2,1.42A3.06,3.06,0,0,1,75.11,60Zm.17,3.56a5.27,5.27,0,0,1-1.85-.34,3.54,3.54,0,0,1-1.43-1l.48-.88a3.67,3.67,0,0,0,1.23.86,3.82,3.82,0,0,0,1.54.31,2.42,2.42,0,0,0,2-.75,3.65,3.65,0,0,0,.63-2.35V57.28L78,55.82l-.1-1.47V51.77h.91v7.49a4.83,4.83,0,0,1-.89,3.24A3.28,3.28,0,0,1,75.28,63.54ZM75.2,59a2.4,2.4,0,0,0,1.38-.4,2.7,2.7,0,0,0,1-1.1,4,4,0,0,0,0-3.26,2.76,2.76,0,0,0-1-1.1,2.56,2.56,0,0,0-2.75,0,2.62,2.62,0,0,0-1,1.1,4,4,0,0,0,0,3.26,2.56,2.56,0,0,0,1,1.1A2.4,2.4,0,0,0,75.2,59Z" transform="translate(-5.15 -19.22)"/><path class="cls-3" d="M81.46,60.3V51.77h.91v2.32l-.1-.4a2.82,2.82,0,0,1,1-1.49A2.86,2.86,0,0,1,85,51.69v1.12h-.21a2.09,2.09,0,0,0-1.74.82A3.79,3.79,0,0,0,82.41,56V60.3Z" transform="translate(-5.15 -19.22)"/><path class="cls-3" d="M88.18,60.38a2.83,2.83,0,0,1-1.37-.31,2.22,2.22,0,0,1-.89-.88,2.62,2.62,0,0,1-.31-1.29,2.87,2.87,0,0,1,.26-1.22,2,2,0,0,1,.86-.87,3.17,3.17,0,0,1,1.6-.34h2.42v.86h-2.4a1.84,1.84,0,0,0-1.41.44,1.6,1.6,0,0,0-.39,1.09A1.52,1.52,0,0,0,87,59a1.83,1.83,0,0,0,1.32.44A2.23,2.23,0,0,0,89.71,59a2.48,2.48,0,0,0,.85-1.3l.22.8a2.55,2.55,0,0,1-2.6,1.85Zm2.42-.08V58.42l0-.31V55a2.47,2.47,0,0,0-.5-1.67,1.85,1.85,0,0,0-1.49-.59,3.2,3.2,0,0,0-1.3.28,3.29,3.29,0,0,0-1,.73l-.43-.86A3.67,3.67,0,0,1,87.08,52a4.23,4.23,0,0,1,1.58-.3,2.68,2.68,0,0,1,2.11.82A3.58,3.58,0,0,1,91.52,55v5.3Z" transform="translate(-5.15 -19.22)"/><path class="cls-3" d="M102.89,51.69a2.78,2.78,0,0,1,1.49.39,2.54,2.54,0,0,1,1,1.22,5,5,0,0,1,.36,2v5h-1V55.46a3.33,3.33,0,0,0-.53-2,1.77,1.77,0,0,0-1.5-.69,2.16,2.16,0,0,0-1.25.36,2.46,2.46,0,0,0-.82,1.06,4.39,4.39,0,0,0-.28,1.67V60.3h-1V55.46a3.27,3.27,0,0,0-.54-2,1.8,1.8,0,0,0-1.5-.69,2.21,2.21,0,0,0-1.25.36,2.39,2.39,0,0,0-.82,1.06,4.38,4.38,0,0,0-.29,1.67V60.3h-1V51.77H95v2.31l-.15-.41a3,3,0,0,1,1-1.46,2.81,2.81,0,0,1,1.7-.52,2.57,2.57,0,0,1,1.75.62,3.1,3.1,0,0,1,.94,1.88L99.91,54a3.35,3.35,0,0,1,1.1-1.68A2.86,2.86,0,0,1,102.89,51.69Z" transform="translate(-5.15 -19.22)"/><path class="cls-3" d="M110.3,60.38a2.87,2.87,0,0,1-1.38-.31,2.28,2.28,0,0,1-.89-.88,2.86,2.86,0,0,1,0-2.51,2,2,0,0,1,.85-.87,3.2,3.2,0,0,1,1.6-.34h2.43v.86h-2.4a1.84,1.84,0,0,0-1.41.44,1.56,1.56,0,0,0-.4,1.09,1.53,1.53,0,0,0,.47,1.17,1.81,1.81,0,0,0,1.31.44,2.26,2.26,0,0,0,1.39-.44,2.54,2.54,0,0,0,.85-1.3l.21.8a2.59,2.59,0,0,1-.93,1.35A2.68,2.68,0,0,1,110.3,60.38Zm2.42-.08V58.42l0-.31V55a2.52,2.52,0,0,0-.5-1.67,1.87,1.87,0,0,0-1.5-.59,3.27,3.27,0,0,0-2.34,1l-.43-.86A3.67,3.67,0,0,1,109.2,52a4.19,4.19,0,0,1,1.58-.3,2.7,2.7,0,0,1,2.11.82,3.63,3.63,0,0,1,.74,2.49v5.3Z" transform="translate(-5.15 -19.22)"/><path class="cls-3" d="M118.11,60.38a4.56,4.56,0,0,1-1.65-.3,3.34,3.34,0,0,1-1.22-.75l.43-.91a3.74,3.74,0,0,0,1.1.67,3.51,3.51,0,0,0,1.4.29,2.19,2.19,0,0,0,1.45-.39,1.27,1.27,0,0,0,.44-1,1,1,0,0,0-.25-.74,1.48,1.48,0,0,0-.65-.41,6,6,0,0,0-.89-.23c-.33-.07-.66-.14-1-.23a3.73,3.73,0,0,1-.89-.38,1.91,1.91,0,0,1-.65-.7,2.42,2.42,0,0,1-.25-1.17,2.5,2.5,0,0,1,.32-1.25,2.23,2.23,0,0,1,1-.87,3.32,3.32,0,0,1,1.52-.31,4.36,4.36,0,0,1,1.37.22,3.28,3.28,0,0,1,1.12.57l-.41.93a3,3,0,0,0-1-.56,3.32,3.32,0,0,0-1.07-.17,2.05,2.05,0,0,0-1.4.4,1.28,1.28,0,0,0-.45,1,1.1,1.1,0,0,0,.25.77,1.72,1.72,0,0,0,.65.43,7.35,7.35,0,0,0,.9.25c.33.06.65.14,1,.23a4.06,4.06,0,0,1,.9.38,1.79,1.79,0,0,1,.65.66,2.23,2.23,0,0,1,.25,1.13,2.4,2.4,0,0,1-.34,1.3,2.28,2.28,0,0,1-1,.84A3.73,3.73,0,0,1,118.11,60.38Z" transform="translate(-5.15 -19.22)"/></svg>