<svg id="Capa_1" data-name="Capa 1" xmlns="http://www.w3.org/2000/svg" viewBox="0 0 123.7 121.35"><defs><style>.cls-1,.cls-2{fill:#010101;stroke:#010101;stroke-miterlimit:10;}.cls-2{stroke-width:2px;}</style></defs><path class="cls-1" d="M120.59,48.08V72.69A26.51,26.51,0,0,0,108.78,70c-13.57,0-24.55,9.93-24.55,22.18a20.82,20.82,0,0,0,5.47,14H30.92c-10.73,0-19.42-7.85-19.42-17.54V48.08a16.33,16.33,0,0,1,3.38-9.89,20,20,0,0,1,16-7.65h70.26C111.9,30.54,120.59,38.39,120.59,48.08Z" transform="translate(-11 -11.96)"/><path class="cls-1" d="M77,27.63v2.91h-46a20,20,0,0,0-16,7.65,13.9,13.9,0,0,1-1.56-6.39V27.63c0-8.38,7.51-15.17,16.78-15.17H60.17C69.45,12.46,77,19.25,77,27.63Z" transform="translate(-11 -11.96)"/><path class="cls-2" d="M121.56,105.09a16.66,16.66,0,0,0,6.3-12.88c0-6.54-4-12.23-9.9-15.18a20.51,20.51,0,0,0-9.19-2.13c-10.55,0-19.09,7.74-19.09,17.31a16.29,16.29,0,0,0,4.26,10.9,19.8,19.8,0,0,0,14.83,6.42,21.25,21.25,0,0,0,4-.37L124.33,132l9-3.76Zm-12.79-2a13.35,13.35,0,0,1-2.77-.29h0c-5.29-1.14-9.24-5.46-9.24-10.61,0-6,5.39-10.9,12-10.9A12.52,12.52,0,0,1,118,85.18a10.3,10.3,0,0,1,2.83,7C120.79,98.23,115.41,103.11,108.77,103.11Z" transform="translate(-11 -11.96)"/></svg>