<?xml version="1.0" encoding="utf-8"?>
<!-- Generator: Adobe Illustrator 27.0.0, SVG Export Plug-In . SVG Version: 6.00 Build 0)  -->
<svg version="1.1" id="Capa_1" xmlns="http://www.w3.org/2000/svg" xmlns:xlink="http://www.w3.org/1999/xlink" x="0px" y="0px"
	 viewBox="0 0 1366 1103" style="enable-background:new 0 0 1366 1103;" xml:space="preserve">
<style type="text/css">
	.st0{fill:#FFFFFF;}
	.st1{fill:#CBCACA;}
	.st2{fill:#21305A;}
</style>
<path class="st0" d="M856.2,693.72H407.17V627.6H856.2c18.23,0,33,14.77,33,33v0.12C889.2,678.94,874.42,693.72,856.2,693.72z"/>
<rect x="366.56" y="627.6" class="st1" width="40.61" height="66.12"/>
<polygon class="st2" points="392.67,646.16 392.67,675.16 407.17,660.66 "/>
<path class="st2" d="M397.62,693.72h-31c-18.29,0-33.12-14.83-33.12-33.12v0c0-18.23,14.77-33,33-33h31.12c1.1,0,2,0.9,2,2v62.12
	C399.62,692.82,398.73,693.72,397.62,693.72z"/>
<path class="st0" d="M376.96,657.38v-4.64c0-3.78-3.07-6.85-6.85-6.85c-3.78,0-6.85,3.07-6.85,6.85v4.64h-2.04v8.89
	c0,4.91,3.98,8.89,8.89,8.89c4.91,0,8.89-3.98,8.89-8.89v-8.89H376.96z M366.23,652.73c0-2.14,1.74-3.89,3.89-3.89
	c2.14,0,3.89,1.74,3.89,3.89v4.64h-7.77V652.73z M371.07,667.79v1.82h-1.95v-1.84c-0.76-0.37-1.29-1.13-1.29-2.03
	c0-1.26,1.02-2.28,2.28-2.28c1.26,0,2.28,1.02,2.28,2.28C372.39,666.65,371.85,667.43,371.07,667.79z"/>
</svg>
