<?xml version="1.0" encoding="utf-8"?>
<!-- Generator: Adobe Illustrator 27.0.0, SVG Export Plug-In . SVG Version: 6.00 Build 0)  -->
<svg version="1.1" id="Capa_1" xmlns="http://www.w3.org/2000/svg" xmlns:xlink="http://www.w3.org/1999/xlink" x="0px" y="0px"
	 viewBox="0 0 1366 1103" style="enable-background:new 0 0 1366 1103;" xml:space="preserve">
<style type="text/css">
	.st0{fill:#FFFFFF;}
	.st1{fill:#CBCACA;}
	.st2{fill:#21305A;}
</style>
<path class="st0" d="M928.35,776.56H479.32v-66.12h449.03c18.23,0,33,14.77,33,33v0.12C961.35,761.78,946.57,776.56,928.35,776.56z"
	/>
<rect x="438.71" y="710.44" class="st1" width="40.61" height="66.12"/>
<polygon class="st2" points="464.82,729 464.82,758 479.32,743.5 "/>
<path class="st2" d="M469.77,776.56h-31c-18.29,0-33.12-14.83-33.12-33.12v0c0-18.23,14.77-33,33-33h31.12c1.1,0,2,0.9,2,2v62.12
	C471.77,775.66,470.87,776.56,469.77,776.56z"/>
<g>
	<circle class="st0" cx="442.12" cy="735.06" r="6.06"/>
	<path class="st0" d="M442.12,743.82c-10.91,0-10.21,14.18-10.21,14.18h10.21h10.21C452.33,758,453.03,743.82,442.12,743.82z"/>
</g>
</svg>
