<?xml version="1.0" encoding="utf-8"?>
<!-- Generator: Adobe Illustrator 27.0.0, SVG Export Plug-In . SVG Version: 6.00 Build 0)  -->
<svg version="1.1" id="Capa_1" xmlns="http://www.w3.org/2000/svg" xmlns:xlink="http://www.w3.org/1999/xlink" x="0px" y="0px"
	 viewBox="0 0 1366 1103" style="enable-background:new 0 0 1366 1103;" xml:space="preserve">
<style type="text/css">
	.st0{fill:none;stroke:#FFFFFF;stroke-width:0;stroke-linecap:round;stroke-linejoin:round;}
	.st1{fill:#FFFFFF;}
</style>
<g id="ICONO_USUARIO">
	<line class="st0" x1="595.28" y1="835.92" x2="595.26" y2="835.92"/>
	<path class="st1" d="M703.72,756.87c-6.25,2.55-13.08,3.95-20.22,3.95c-7.15,0-13.96-1.4-20.21-3.95
		c-10.62,3.99-20.4,11.02-28.83,20.38c-13.02,14.46-22.84,34.4-27.62,57.28h153.33c-4.8-22.88-14.6-42.82-27.63-57.28
		C724.11,767.89,714.32,760.86,703.72,756.87z"/>
	<path class="st1" d="M716.13,749.76l-0.41,0.32c9.16,4.75,17.6,11.46,25.07,19.75c14.98,16.64,26.07,39.73,30.95,66.09h25.53
		C787.86,794.69,756.43,761.58,716.13,749.76z"/>
	<path class="st1" d="M651.28,750.07l-0.42-0.32c-40.29,11.82-71.72,44.93-81.13,86.16h25.53c4.9-26.37,15.97-49.46,30.96-66.09
		C633.69,761.53,642.13,754.83,651.28,750.07z"/>
	<path class="st1" d="M682.54,749.27c27.11,0,49.08-21.98,49.08-49.1c0-27.12-21.98-49.1-49.08-49.1
		c-27.13,0-49.11,21.98-49.11,49.1C633.44,727.29,655.42,749.27,682.54,749.27z"/>
</g>
</svg>
