<svg id="Capa_1" data-name="Capa 1" xmlns="http://www.w3.org/2000/svg" viewBox="0 0 889 730.5"><defs><style>.cls-1,.cls-2{fill:#fff;}.cls-1{stroke:#fff;stroke-linecap:round;stroke-linejoin:round;stroke-width:5px;}</style></defs><title>ICONO 4</title><g id="ICONO_USUARIO" data-name="ICONO USUARIO"><line class="cls-1" x1="100" y1="728" x2="100" y2="728"/><path class="cls-2" d="M559.5,531.14a208.08,208.08,0,0,1-157.95,0c-41.5,15.7-79.72,43.39-112.63,80.26C238,668.33,199.69,746.87,181,837H780.05C761.29,746.87,723,668.33,672.1,611.4,639.15,574.53,600.93,546.84,559.5,531.14Z" transform="translate(-36 -114)"/><path class="cls-2" d="M608,502.65l-1.62,1.24c35.8,18.72,68.74,45.14,98,77.79C762.85,647.2,806.19,738.15,825.25,842H925C888.23,679.6,765.45,549.19,608,502.65Z" transform="translate(-36 -114)"/><path class="cls-2" d="M354.63,503.89,353,502.65C195.59,549.19,72.79,679.6,36,842h99.74c19.16-103.85,62.4-194.8,121-260.32C285.88,549,318.87,522.61,354.63,503.89Z" transform="translate(-36 -114)"/><path class="cls-2" d="M476.77,500.74c105.9,0,191.76-86.57,191.76-193.37S582.67,114,476.77,114,284.91,200.58,284.91,307.37,370.77,500.74,476.77,500.74Z" transform="translate(-36 -114)"/></g></svg>