<?xml version="1.0" encoding="utf-8"?>
<!-- Generator: Adobe Illustrator 27.0.0, SVG Export Plug-In . SVG Version: 6.00 Build 0)  -->
<svg version="1.1" id="Capa_1" xmlns="http://www.w3.org/2000/svg" xmlns:xlink="http://www.w3.org/1999/xlink" x="0px" y="0px"
	 viewBox="0 0 1366 1103" style="enable-background:new 0 0 1366 1103;" xml:space="preserve">
<style type="text/css">
	.st0{fill:#FFFFFF;}
</style>
<path class="st0" d="M690.35,740.36v-4.64c0-3.78-3.07-6.85-6.85-6.85c-3.78,0-6.85,3.07-6.85,6.85v4.64h-2.04v8.89
	c0,4.91,3.98,8.89,8.89,8.89s8.89-3.98,8.89-8.89v-8.89H690.35z M679.61,735.71c0-2.14,1.74-3.89,3.89-3.89s3.89,1.74,3.89,3.89
	v4.64h-7.77V735.71z M684.46,750.77v1.82h-1.95v-1.84c-0.76-0.37-1.29-1.13-1.29-2.03c0-1.26,1.02-2.28,2.28-2.28
	c1.26,0,2.28,1.02,2.28,2.28C685.78,749.63,685.24,750.41,684.46,750.77z"/>
</svg>
