<?xml version="1.0" encoding="utf-8"?>
<!-- Generator: Adobe Illustrator 27.0.0, SVG Export Plug-In . SVG Version: 6.00 Build 0)  -->
<svg version="1.1" id="Capa_1" xmlns="http://www.w3.org/2000/svg" xmlns:xlink="http://www.w3.org/1999/xlink" x="0px" y="0px"
	 viewBox="0 0 1366 1103" style="enable-background:new 0 0 1366 1103;" xml:space="preserve">
<style type="text/css">
	.st0{fill:#FFFFFF;}
	.st1{fill:#CBCACA;}
	.st2{fill:#21305A;}
</style>
<path class="st0" d="M926.2,837.38H477.17v-66.12H926.2c18.23,0,33,14.77,33,33v0.12C959.2,822.6,944.42,837.38,926.2,837.38z"/>
<rect x="436.56" y="771.26" class="st1" width="40.61" height="66.12"/>
<polygon class="st2" points="462.67,789.82 462.67,818.82 477.17,804.32 "/>
<path class="st2" d="M467.62,837.38h-31c-18.29,0-33.12-14.83-33.12-33.12v0c0-18.23,14.77-33,33-33h31.12c1.1,0,2,0.9,2,2v62.12
	C469.62,836.48,468.73,837.38,467.62,837.38z"/>
</svg>
