<svg id="Capa_1" data-name="Capa 1" xmlns="http://www.w3.org/2000/svg" viewBox="0 0 891.97 730.86"><defs><style>.cls-1{fill:#1a2e35;}.cls-10,.cls-15,.cls-2,.cls-7{opacity:0.2;}.cls-10,.cls-15,.cls-16,.cls-17,.cls-2,.cls-4,.cls-5{isolation:isolate;}.cls-11,.cls-12,.cls-13,.cls-15,.cls-17,.cls-22,.cls-3,.cls-7,.cls-8,.cls-9{fill:#fff;}.cls-4{opacity:0.3;}.cls-11,.cls-17,.cls-5{opacity:0.4;}.cls-6{fill:#007cff;}.cls-8{opacity:0.5;}.cls-9{opacity:0.8;}.cls-12{opacity:0.7;}.cls-13{opacity:0.6;}.cls-14{fill:#fd897b;}.cls-16{opacity:0.1;}.cls-18{fill:#f4897c;}.cls-19{fill:#fd5652;}.cls-20,.cls-21{fill:none;stroke:#1a2e35;}.cls-20{stroke-linecap:round;stroke-linejoin:round;stroke-width:1.32px;}.cls-21{stroke-miterlimit:10;stroke-width:5.28px;}.cls-22{opacity:0.9;}.cls-23{fill:#f9c0bb;}.cls-24{fill:#fcc1bb;}.cls-25{fill:#eb827e;}.cls-26{fill:#fefefd;}.cls-27{fill:#06185e;}.cls-28{fill:#fed606;}</style></defs><g id="ILUSTRACIÓN"><rect class="cls-1" x="744.5" y="650.62" width="14.77" height="48.61"/><g class="cls-2"><rect class="cls-3" x="744.5" y="650.62" width="14.77" height="48.61"/></g><path class="cls-1" d="M827.44,937.36a139.15,139.15,0,0,1-65.88-16.55l7-13A125.29,125.29,0,0,0,947.08,759.65a122.79,122.79,0,0,0-17.78-35.54,125.5,125.5,0,0,0-42.59-37.32l7-13a140.56,140.56,0,0,1,47.6,41.7,137.88,137.88,0,0,1,19.89,39.75A140.08,140.08,0,0,1,827.44,937.36Z" transform="translate(-75.74 -278.94)"/><g class="cls-4"><path class="cls-3" d="M827.44,937.36a139.15,139.15,0,0,1-65.88-16.55l7-13A125.29,125.29,0,0,0,947.08,759.65a122.79,122.79,0,0,0-17.78-35.54,125.5,125.5,0,0,0-42.59-37.32l7-13a140.56,140.56,0,0,1,47.6,41.7,137.88,137.88,0,0,1,19.89,39.75A140.08,140.08,0,0,1,827.44,937.36Z" transform="translate(-75.74 -278.94)"/></g><path class="cls-1" d="M756.76,933.13a3.7,3.7,0,0,1-3.25-5.44L895.22,663.37a3.69,3.69,0,1,1,6.5,3.49L760,931.18A3.67,3.67,0,0,1,756.76,933.13Z" transform="translate(-75.74 -278.94)"/><g class="cls-5"><path class="cls-3" d="M756.76,933.13a3.7,3.7,0,0,1-3.25-5.44L895.22,663.37a3.69,3.69,0,1,1,6.5,3.49L760,931.18A3.67,3.67,0,0,1,756.76,933.13Z" transform="translate(-75.74 -278.94)"/></g><path class="cls-1" d="M721,695.63h61.79a2.66,2.66,0,0,1,2.66,2.66v16a0,0,0,0,1,0,0h-67.1a0,0,0,0,1,0,0v-16A2.66,2.66,0,0,1,721,695.63Z"/><path class="cls-6" d="M833.15,689.38A108,108,0,1,1,719.71,791.74,108.05,108.05,0,0,1,833.15,689.38Z" transform="translate(-75.74 -278.94)"/><path class="cls-7" d="M935.51,802.82A108,108,0,1,1,833.16,689.37,108.08,108.08,0,0,1,935.51,802.82Z" transform="translate(-75.74 -278.94)"/><path class="cls-8" d="M890.56,709.45a2.15,2.15,0,0,1-.46-.3,8.93,8.93,0,0,0-1-.68c-4.49-2.43-3.23,6.26-7.36,8.23-4.42,2.07-11.5-1.6-10.62-4.16s-7.52-9.66-9.75-10.8a7.2,7.2,0,0,0-9.65,6.8c-.34,7.27,3.71,11.77,2.59,14s-1.12,2.92-8.58,6.5-12.86-1-17.35,3.07,1.33,6.33-.48,16.17-4.45,2.78-9.87,3.85-2.31-5.46-1.61-9.23-4.88-5-7.43-5.22-8.62-1-7.82-8.67.38-14.8-10.08-14.18c-5.38.32-8.31-7.47-9.87-15.17a108.22,108.22,0,0,0-57.15,66.77c.56-.12,1.07.66,1.84,2.63,2.42,6.17,4.76,12.3,7.88,16.07s3.84,8.12,2.53,11.21-7.68,5-7.78,7-6.09,4.83-7,6.86a1.06,1.06,0,0,1-1.06.67,107.66,107.66,0,0,0,43.95,74c2.67-7,7.34-12.53,10.53-12.69,6.61-.34,27-3.58,19.47-12.56s-15.49-17.16-15.49-17.16,4.09-5.94,5.28-6.68-2.7-3,4.16-3.74,7.48-.8,4.52-4.08-7.63-.8-4.48-5,6.59-7.33,10-2.82,1.32,7,2.55,8.38,11.3-.75,11.3-.75,2.64,3.67,1.52,4.49-5.12,6.9-5.12,6.9-1.85,4.87-3.89,6.09,5.65,9.07,8,10.27,3.27,2.19,5.28,1.67,5.85-4.66,7.24-5.92,9.84,1.81,9.84,1.81a56.49,56.49,0,0,1,8.89,6.42c3.81,3.48,8.78,2.76,10.52,1.19s1.63-5.85,4.86-4.39,4.38,3,6.66,11,15.47,19.46,13.9,24.5A106.31,106.31,0,0,0,906.63,871c-9.54-3.17-13.09-6.83-14.51-8.94-1.84-2.72-.76-2.74.28-7.3s9.73-7.4,11.12-8.66,8.19-9.68,11.5-10.56,3.08-5.31,3.08-5.31.61,1.16,2-1.78-.12-5.94,4.37-10c2.63-2.37,6.83-3.68,9.93-4.38a108.77,108.77,0,0,0,.36-30.89L923,787.6s-6.92-.06-8.19-.77-7.38-4.69-12.11-2.28-5.21-1.6-14.06-3,4.35-14,6.43-15.87,2.35-.88,8.45-3.85,5-7.62,5-7.62-6.39-9.3-12.7-14.28c-5.81-4.59,2.56-5,16.86-9.22A107.37,107.37,0,0,0,890.56,709.45ZM851.21,846.11c-2.06,3.11-4.9-.61-4.9-.61-8.41-2.47-9.22-9.29-6.36-11.87s4.27-11.4,8.73-7.88A111.13,111.13,0,0,0,860,833.16s5-12.71,5.15-.88,6.93,8.2.14,11.82S853.27,843,851.21,846.11ZM884,849.3c.32,3.38-1,9-1,9l-6.46,3.31c-4.72-3.92-2.89-10-.32-10.4S883.69,845.92,884,849.3ZM872.49,758c1.63,3.2-3.39,5.29-9,13.45s-9,1.51-9,1.51-11.27-9-7.61-12.94.91-9.15,6.34-12.17c3.36-1.87,6.7-.23,9.83,3.24S870.85,754.81,872.49,758Z" transform="translate(-75.74 -278.94)"/><path class="cls-7" d="M861.37,694.64c1.56,32.49-8.87,67.58-31.72,97.72-25.29,33.35-60.54,53.71-95.68,58.82a108,108,0,0,1,127.4-156.54Z" transform="translate(-75.74 -278.94)"/><g class="cls-4"><path class="cls-3" d="M721,695.63h61.79a2.66,2.66,0,0,1,2.66,2.66v16a0,0,0,0,1,0,0h-67.1a0,0,0,0,1,0,0v-16A2.66,2.66,0,0,1,721,695.63Z"/></g><path class="cls-1" d="M691.19,710.7h121.4a3.1,3.1,0,0,1,3.1,3.1v17.06a0,0,0,0,1,0,0H688.08a0,0,0,0,1,0,0V713.8A3.1,3.1,0,0,1,691.19,710.7Z"/><g class="cls-5"><path class="cls-3" d="M691.19,710.7h121.4a3.1,3.1,0,0,1,3.1,3.1v17.06a0,0,0,0,1,0,0H688.08a0,0,0,0,1,0,0V713.8A3.1,3.1,0,0,1,691.19,710.7Z"/></g><rect class="cls-6" x="171.95" y="857.75" width="107.64" height="46.69" transform="translate(375.81 1483.25) rotate(180)"/><rect class="cls-9" x="171.95" y="857.75" width="107.64" height="46.69" transform="translate(375.81 1483.25) rotate(180)"/><polygon class="cls-10" points="195.22 583.38 96.21 583.38 96.21 578.81 195.12 578.81 195.22 583.38"/><polygon class="cls-10" points="195.22 587.36 105.9 589.26 195.22 591.17 195.22 587.36"/><polygon class="cls-10" points="195.22 604.62 100.64 606.22 195.22 607.56 195.22 604.62"/><polygon class="cls-10" points="195.22 614.72 101.48 616.62 195.22 618.51 195.22 614.72"/><polygon class="cls-10" points="96.21 594.01 186.9 596.75 96.21 598.64 96.21 594.01"/><path class="cls-1" d="M412.19,880.86A21.15,21.15,0,0,1,391,902H167a1.56,1.56,0,0,0-1.56,1.56v1.68a1.55,1.55,0,0,0,1.56,1.55H392.19a25.95,25.95,0,0,0,25.95-26.14c-.1-14.37-12.25-25.76-26.62-25.76H167a1.56,1.56,0,0,0-1.56,1.56v1.67a1.56,1.56,0,0,0,1.56,1.56H390.4C402.06,859.67,412.2,869.2,412.19,880.86Z" transform="translate(-75.74 -278.94)"/><path class="cls-11" d="M412.19,880.86A21.15,21.15,0,0,1,391,902H167a1.56,1.56,0,0,0-1.56,1.56v1.68a1.55,1.55,0,0,0,1.56,1.55H392.19a25.95,25.95,0,0,0,25.95-26.14c-.1-14.37-12.25-25.76-26.62-25.76H167a1.56,1.56,0,0,0-1.56,1.56v1.67a1.56,1.56,0,0,0,1.56,1.56H390.4C402.06,859.67,412.2,869.2,412.19,880.86Z" transform="translate(-75.74 -278.94)"/><path class="cls-6" d="M493.89,881.13h0a23.37,23.37,0,0,1-23.37,23.38H271V857.76H470.52A23.37,23.37,0,0,1,493.89,881.13Z" transform="translate(-75.74 -278.94)"/><path class="cls-12" d="M271,857.75v46.77H470.52a23.39,23.39,0,0,0,0-46.77Z" transform="translate(-75.74 -278.94)"/><polygon class="cls-10" points="195.22 591.17 195.22 587.36 394.14 588.96 195.22 591.17"/><polygon class="cls-10" points="195.22 607.56 195.22 604.62 284.52 607.82 195.22 607.56"/><polygon class="cls-10" points="195.22 618.51 195.22 614.72 339.2 616.92 195.22 618.51"/><path class="cls-10" d="M470.84,862.32a15.61,15.61,0,0,1,10.4,4,39.23,39.23,0,0,0-2.94,7.58l-199.55,1.57,199.09.49a27,27,0,0,0-.48,4.87,26.31,26.31,0,0,0,.67,5.77l-134.4,2.94,135.66,1.56a48.44,48.44,0,0,0,4.51,9.28,23.39,23.39,0,0,0-13.28-42.63H271v4.57Z" transform="translate(-75.74 -278.94)"/><path class="cls-1" d="M492.05,880.86A21.15,21.15,0,0,1,470.88,902H267.6a1.56,1.56,0,0,0-1.56,1.56v1.68a1.55,1.55,0,0,0,1.56,1.55H472.05A25.95,25.95,0,0,0,498,880.64c-.1-14.37-12.25-25.76-26.62-25.76H267.6a1.56,1.56,0,0,0-1.56,1.56v1.67a1.56,1.56,0,0,0,1.56,1.56H470.26C481.92,859.67,492.06,869.2,492.05,880.86Z" transform="translate(-75.74 -278.94)"/><polygon class="cls-6" points="394.14 595.98 394.14 614.72 387.35 607.94 380.78 614.51 380.78 595.98 394.14 595.98"/><rect class="cls-6" x="201.29" y="960.77" width="290.52" height="46.76" transform="translate(617.36 1689.36) rotate(180)"/><rect class="cls-12" x="201.29" y="960.77" width="290.52" height="46.76" transform="translate(617.36 1689.36) rotate(180)"/><polygon class="cls-10" points="125.55 694.19 125.55 690.38 324.46 691.98 125.55 694.19"/><polygon class="cls-10" points="125.55 710.58 125.55 707.64 214.85 710.84 125.55 710.58"/><polygon class="cls-10" points="125.55 721.53 125.55 717.74 269.53 719.93 125.55 721.53"/><path class="cls-10" d="M426.86,960.77l4.21,34.86-5-5.3c-2.3,9.82-9.14,17.2-9.14,17.2a50.89,50.89,0,0,1-7.33-13.41L274,992.56l134.4-2.94a27.66,27.66,0,0,1-.66-5.77,25.92,25.92,0,0,1,.48-4.86l-199.09-.51,199.55-1.56a38.59,38.59,0,0,1,2.93-7.58,15.53,15.53,0,0,0-10.4-4H201.29v-4.58Z" transform="translate(-75.74 -278.94)"/><path class="cls-6" d="M422.37,983.88A21.17,21.17,0,0,1,401.21,1005H197.93a1.56,1.56,0,0,0-1.56,1.56v1.67a1.56,1.56,0,0,0,1.56,1.56H514.18a25.95,25.95,0,0,0,26-26.15c-.1-14.36-12.25-25.76-26.62-25.76H197.93a1.56,1.56,0,0,0-1.56,1.56v1.68a1.56,1.56,0,0,0,1.56,1.56H400.59C412.24,962.69,422.39,972.22,422.37,983.88Z" transform="translate(-75.74 -278.94)"/><path class="cls-10" d="M422.37,983.88A21.17,21.17,0,0,1,401.21,1005H197.93a1.56,1.56,0,0,0-1.56,1.56v1.67a1.56,1.56,0,0,0,1.56,1.56H514.18a25.95,25.95,0,0,0,26-26.15c-.1-14.36-12.25-25.76-26.62-25.76H197.93a1.56,1.56,0,0,0-1.56,1.56v1.68a1.56,1.56,0,0,0,1.56,1.56H400.59C412.24,962.69,422.39,972.22,422.37,983.88Z" transform="translate(-75.74 -278.94)"/><path class="cls-6" d="M422.37,983.88A21.17,21.17,0,0,1,401.21,1005H197.93a1.56,1.56,0,0,0-1.56,1.56v1.67a1.56,1.56,0,0,0,1.56,1.56H402.38a25.95,25.95,0,0,0,25.95-26.15c-.11-14.36-12.25-25.76-26.62-25.76H197.93a1.56,1.56,0,0,0-1.56,1.56v1.68a1.56,1.56,0,0,0,1.56,1.56H400.59C412.24,962.69,422.39,972.22,422.37,983.88Z" transform="translate(-75.74 -278.94)"/><polygon class="cls-6" points="324.46 699 324.46 717.74 317.68 710.96 311.11 717.53 311.11 699 324.46 699"/><path class="cls-7" d="M422.37,983.88A21.17,21.17,0,0,1,401.21,1005H197.93a1.56,1.56,0,0,0-1.56,1.56v1.67a1.56,1.56,0,0,0,1.56,1.56H402.38a25.95,25.95,0,0,0,25.95-26.15c-.11-14.36-12.25-25.76-26.62-25.76H197.93a1.56,1.56,0,0,0-1.56,1.56v1.68a1.56,1.56,0,0,0,1.56,1.56H400.59C412.24,962.69,422.39,972.22,422.37,983.88Z" transform="translate(-75.74 -278.94)"/><rect class="cls-6" x="192.72" y="909.27" width="290.52" height="46.76" transform="translate(600.23 1586.34) rotate(180)"/><rect class="cls-9" x="192.72" y="909.27" width="290.52" height="46.76" transform="translate(600.23 1586.34) rotate(180)"/><polygon class="cls-10" points="116.99 642.68 116.99 638.87 315.9 640.47 116.99 642.68"/><polygon class="cls-10" points="116.99 659.07 116.99 656.13 206.28 659.33 116.99 659.07"/><polygon class="cls-10" points="116.99 670.02 116.99 666.23 260.96 668.43 116.99 670.02"/><path class="cls-10" d="M418.29,909.27l4.22,34.85-5-5.3c-2.3,9.82-9.15,17.2-9.15,17.2a51.22,51.22,0,0,1-7.33-13.41l-135.67-1.56,134.4-2.93a27.83,27.83,0,0,1-.66-5.78,25.92,25.92,0,0,1,.48-4.86L200.52,927l199.55-1.56a38,38,0,0,1,2.93-7.58,15.53,15.53,0,0,0-10.4-4H192.72v-4.57Z" transform="translate(-75.74 -278.94)"/><path class="cls-6" d="M413.81,932.37a21.17,21.17,0,0,1-21.16,21.13H189.37a1.56,1.56,0,0,0-1.56,1.56v1.67a1.56,1.56,0,0,0,1.56,1.56H489.64a26,26,0,0,0,26-26.15c-.11-14.36-12.26-25.75-26.62-25.75H189.37a1.55,1.55,0,0,0-1.56,1.55v1.68a1.56,1.56,0,0,0,1.56,1.56H392C403.68,911.18,413.82,920.71,413.81,932.37Z" transform="translate(-75.74 -278.94)"/><path class="cls-11" d="M413.81,932.37a21.17,21.17,0,0,1-21.16,21.13H189.37a1.56,1.56,0,0,0-1.56,1.56v1.67a1.56,1.56,0,0,0,1.56,1.56H489.64a26,26,0,0,0,26-26.15c-.11-14.36-12.26-25.75-26.62-25.75H189.37a1.55,1.55,0,0,0-1.56,1.55v1.68a1.56,1.56,0,0,0,1.56,1.56H392C403.68,911.18,413.82,920.71,413.81,932.37Z" transform="translate(-75.74 -278.94)"/><path class="cls-6" d="M413.81,932.37a21.17,21.17,0,0,1-21.16,21.13H189.37a1.56,1.56,0,0,0-1.56,1.56v1.67a1.56,1.56,0,0,0,1.56,1.56H393.81a26,26,0,0,0,26-26.15c-.11-14.36-12.26-25.75-26.62-25.75H189.37a1.55,1.55,0,0,0-1.56,1.55v1.68a1.56,1.56,0,0,0,1.56,1.56H392C403.68,911.18,413.82,920.71,413.81,932.37Z" transform="translate(-75.74 -278.94)"/><polygon class="cls-1" points="299.79 640.83 299.79 659.57 293 652.79 286.43 659.36 286.43 640.83 299.79 640.83"/><path class="cls-13" d="M413.81,932.37a21.17,21.17,0,0,1-21.16,21.13H189.37a1.56,1.56,0,0,0-1.56,1.56v1.67a1.56,1.56,0,0,0,1.56,1.56H393.81a26,26,0,0,0,26-26.15c-.11-14.36-12.26-25.75-26.62-25.75H189.37a1.55,1.55,0,0,0-1.56,1.55v1.68a1.56,1.56,0,0,0,1.56,1.56H392C403.68,911.18,413.82,920.71,413.81,932.37Z" transform="translate(-75.74 -278.94)"/><rect class="cls-6" x="192.66" y="754.74" width="107.64" height="46.69" transform="translate(417.22 1277.22) rotate(180)"/><rect class="cls-12" x="192.66" y="754.74" width="107.64" height="46.69" transform="translate(417.22 1277.22) rotate(180)"/><polygon class="cls-10" points="215.93 480.36 116.92 480.36 116.92 475.79 215.82 475.79 215.93 480.36"/><polygon class="cls-10" points="215.93 484.34 126.61 486.25 215.93 488.15 215.93 484.34"/><polygon class="cls-10" points="215.93 501.61 121.34 503.2 215.93 504.54 215.93 501.61"/><polygon class="cls-10" points="215.93 511.7 122.19 513.6 215.93 515.5 215.93 511.7"/><polygon class="cls-10" points="116.92 490.99 207.61 493.73 116.92 495.63 116.92 490.99"/><path class="cls-6" d="M432.89,777.84A21.15,21.15,0,0,1,411.73,799h-224a1.55,1.55,0,0,0-1.56,1.55v1.68a1.56,1.56,0,0,0,1.56,1.56H412.9a26,26,0,0,0,26-26.15c-.1-14.37-12.25-25.76-26.62-25.76H187.69a1.56,1.56,0,0,0-1.56,1.56v1.67a1.56,1.56,0,0,0,1.56,1.56H411.11C422.77,756.65,432.91,766.18,432.89,777.84Z" transform="translate(-75.74 -278.94)"/><path class="cls-11" d="M432.89,777.84A21.15,21.15,0,0,1,411.73,799h-224a1.55,1.55,0,0,0-1.56,1.55v1.68a1.56,1.56,0,0,0,1.56,1.56H412.9a26,26,0,0,0,26-26.15c-.1-14.37-12.25-25.76-26.62-25.76H187.69a1.56,1.56,0,0,0-1.56,1.56v1.67a1.56,1.56,0,0,0,1.56,1.56H411.11C422.77,756.65,432.91,766.18,432.89,777.84Z" transform="translate(-75.74 -278.94)"/><path class="cls-6" d="M514.6,778.12h0a23.38,23.38,0,0,1-23.38,23.38H291.67V754.74H491.22A23.38,23.38,0,0,1,514.6,778.12Z" transform="translate(-75.74 -278.94)"/><path class="cls-8" d="M291.66,754.74V801.5H491.23a23.38,23.38,0,0,0,0-46.76Z" transform="translate(-75.74 -278.94)"/><polygon class="cls-10" points="215.93 488.15 215.93 484.34 414.85 485.94 215.93 488.15"/><polygon class="cls-10" points="215.93 504.54 215.93 501.61 305.23 504.8 215.93 504.54"/><polygon class="cls-10" points="215.93 515.5 215.93 511.7 359.91 513.9 215.93 515.5"/><path class="cls-10" d="M491.55,759.3a15.63,15.63,0,0,1,10.4,4,38,38,0,0,0-2.94,7.58l-199.55,1.57,199.09.49a27.09,27.09,0,0,0-.48,4.88,26.29,26.29,0,0,0,.67,5.76l-134.4,2.94L500,788.09a48.46,48.46,0,0,0,4.5,9.28,23.39,23.39,0,0,0-13.27-42.63H291.66v4.56Z" transform="translate(-75.74 -278.94)"/><path class="cls-6" d="M512.75,777.84A21.15,21.15,0,0,1,491.59,799H288.31a1.55,1.55,0,0,0-1.56,1.55v1.68a1.56,1.56,0,0,0,1.56,1.56H492.76a26,26,0,0,0,26-26.15c-.11-14.37-12.25-25.76-26.62-25.76H288.31a1.56,1.56,0,0,0-1.56,1.56v1.67a1.56,1.56,0,0,0,1.56,1.56H491C502.63,756.65,512.77,766.18,512.75,777.84Z" transform="translate(-75.74 -278.94)"/><polygon class="cls-6" points="414.85 492.96 414.85 511.7 408.06 504.92 401.49 511.5 401.49 492.96 414.85 492.96"/><rect class="cls-6" x="200.73" y="806.25" width="290.52" height="46.76" transform="translate(616.24 1380.31) rotate(180)"/><rect class="cls-12" x="200.73" y="806.25" width="290.52" height="46.76" transform="translate(616.24 1380.31) rotate(180)"/><polygon class="cls-10" points="124.99 539.66 124.99 535.85 323.9 537.45 124.99 539.66"/><polygon class="cls-10" points="124.99 556.05 124.99 553.11 214.29 556.31 124.99 556.05"/><polygon class="cls-10" points="124.99 567 124.99 563.21 268.97 565.41 124.99 567"/><path class="cls-10" d="M426.3,806.25l4.21,34.85-5-5.3c-2.3,9.82-9.14,17.2-9.14,17.2a51.08,51.08,0,0,1-7.34-13.41L273.39,838l134.4-2.93a27.83,27.83,0,0,1-.66-5.78,26,26,0,0,1,.48-4.86L208.52,824l199.55-1.57a38.59,38.59,0,0,1,2.93-7.58,15.53,15.53,0,0,0-10.4-4H200.73v-4.57Z" transform="translate(-75.74 -278.94)"/><path class="cls-1" d="M421.81,829.35a21.15,21.15,0,0,1-21.16,21.13H197.37a1.56,1.56,0,0,0-1.56,1.56v1.68a1.56,1.56,0,0,0,1.56,1.56H513.62a26,26,0,0,0,26-26.15c-.1-14.37-12.25-25.76-26.62-25.76H197.37a1.56,1.56,0,0,0-1.56,1.56v1.67a1.56,1.56,0,0,0,1.56,1.56H400C411.68,808.16,421.83,817.69,421.81,829.35Z" transform="translate(-75.74 -278.94)"/><path class="cls-7" d="M421.81,829.35a21.15,21.15,0,0,1-21.16,21.13H197.37a1.56,1.56,0,0,0-1.56,1.56v1.68a1.56,1.56,0,0,0,1.56,1.56H513.62a26,26,0,0,0,26-26.15c-.1-14.37-12.25-25.76-26.62-25.76H197.37a1.56,1.56,0,0,0-1.56,1.56v1.67a1.56,1.56,0,0,0,1.56,1.56H400C411.68,808.16,421.83,817.69,421.81,829.35Z" transform="translate(-75.74 -278.94)"/><path class="cls-1" d="M421.81,829.35a21.15,21.15,0,0,1-21.16,21.13H197.37a1.56,1.56,0,0,0-1.56,1.56v1.68a1.56,1.56,0,0,0,1.56,1.56H401.81a26,26,0,0,0,26-26.15c-.11-14.37-12.25-25.76-26.62-25.76H197.37a1.56,1.56,0,0,0-1.56,1.56v1.67a1.56,1.56,0,0,0,1.56,1.56H400C411.68,808.16,421.83,817.69,421.81,829.35Z" transform="translate(-75.74 -278.94)"/><polygon class="cls-1" points="323.9 544.47 323.9 563.21 317.12 556.43 310.54 563 310.54 544.47 323.9 544.47"/><path class="cls-11" d="M421.81,829.35a21.15,21.15,0,0,1-21.16,21.13H197.37a1.56,1.56,0,0,0-1.56,1.56v1.68a1.56,1.56,0,0,0,1.56,1.56H401.81a26,26,0,0,0,26-26.15c-.11-14.37-12.25-25.76-26.62-25.76H197.37a1.56,1.56,0,0,0-1.56,1.56v1.67a1.56,1.56,0,0,0,1.56,1.56H400C411.68,808.16,421.83,817.69,421.81,829.35Z" transform="translate(-75.74 -278.94)"/><g id="_Group_" data-name="&lt;Group&gt;"><polygon class="cls-14" points="695.01 695.77 710.73 696.27 725.23 696.72 727.86 717.32 709.44 717.85 691.8 718.37 695.01 695.77"/><polygon class="cls-10" points="695.01 695.77 710.73 696.27 709.44 717.85 691.8 718.37 695.01 695.77"/><path class="cls-6" d="M803.92,972.39a23.44,23.44,0,0,1-2.38,4.48.4.4,0,0,1-.43.19.47.47,0,0,1-.36-.31c-.19-.71-1.73-7-.09-8.83a1.68,1.68,0,0,1,1.52-.52,2.35,2.35,0,0,1,2.11,1.36A5,5,0,0,1,803.92,972.39Zm-2.53-3.86c-.88,1-.49,4.47.05,7,1.79-2.92,2.55-5.27,2-6.41a1.59,1.59,0,0,0-1.35-.84.81.81,0,0,0-.75.25Z" transform="translate(-75.74 -278.94)"/><path class="cls-6" d="M801.58,976.78a.23.23,0,0,1,0,.18.47.47,0,0,1-.41.11c-.15-.06-5.43-1.56-6.5-4a2.3,2.3,0,0,1,.08-2,1.69,1.69,0,0,1,1.8-1c2.06.32,4.78,4.32,5.16,6.46A.26.26,0,0,1,801.58,976.78Zm-6.11-5a1.27,1.27,0,0,0,0,1c.63,1.45,3.49,2.66,5.16,3.23-.72-2-2.88-4.71-4.23-5-.25-.06-.6,0-.88.55Z" transform="translate(-75.74 -278.94)"/><path class="cls-13" d="M803.92,972.39a23.44,23.44,0,0,1-2.38,4.48.4.4,0,0,1-.43.19.47.47,0,0,1-.36-.31c-.19-.71-1.73-7-.09-8.83a1.68,1.68,0,0,1,1.52-.52,2.35,2.35,0,0,1,2.11,1.36A5,5,0,0,1,803.92,972.39Zm-2.53-3.86c-.88,1-.49,4.47.05,7,1.79-2.92,2.55-5.27,2-6.41a1.59,1.59,0,0,0-1.35-.84.81.81,0,0,0-.75.25Z" transform="translate(-75.74 -278.94)"/><path class="cls-13" d="M801.58,976.78a.23.23,0,0,1,0,.18.47.47,0,0,1-.41.11c-.15-.06-5.43-1.56-6.5-4a2.3,2.3,0,0,1,.08-2,1.69,1.69,0,0,1,1.8-1c2.06.32,4.78,4.32,5.16,6.46A.26.26,0,0,1,801.58,976.78Zm-6.11-5a1.27,1.27,0,0,0,0,1c.63,1.45,3.49,2.66,5.16,3.23-.72-2-2.88-4.71-4.23-5-.25-.06-.6,0-.88.55Z" transform="translate(-75.74 -278.94)"/><path class="cls-1" d="M798.59,977.53l-7.36,19.79a1.34,1.34,0,0,0,.71,1.76h0l15.31,6.8a3.32,3.32,0,0,0,4.26-1.92c2.46-7,3.29-10.39,6.46-19.12,2-5.35,6.38-15.74,7.93-23.48s-6.14-9.06-7.48-5.92c-3.21,7.44-12,15.92-17.7,19.44A5.29,5.29,0,0,0,798.59,977.53Z" transform="translate(-75.74 -278.94)"/><path class="cls-1" d="M614.25,942.88l9.13,9.42s104,10,160.38,20.21l-7.17,35.4H584.92Z" transform="translate(-75.74 -278.94)"/><path class="cls-15" d="M614.25,942.88l9.13,9.42s104,10,160.38,20.21l-7.17,35.4H584.92Z" transform="translate(-75.74 -278.94)"/><polygon class="cls-14" points="649.96 683.03 654.81 697.99 659.3 711.79 640.8 721.23 634.07 704.08 627.61 687.65 649.96 683.03"/><path class="cls-6" d="M738.39,991.7a23.29,23.29,0,0,1-5-1,.41.41,0,0,1-.32-.35.5.5,0,0,1,.2-.44c.63-.38,6.18-3.67,8.43-2.64a1.67,1.67,0,0,1,.93,1.31A2.31,2.31,0,0,1,742,991,5,5,0,0,1,738.39,991.7Zm3-3.54c-1.19-.56-4.41.82-6.68,2.07,3.31.87,5.79.92,6.73.11a1.62,1.62,0,0,0,.41-1.54.78.78,0,0,0-.46-.64Z" transform="translate(-75.74 -278.94)"/><path class="cls-6" d="M733.51,990.72a.25.25,0,0,1-.19,0,.47.47,0,0,1-.21-.36c0-.16-.08-5.65,1.91-7.37a2.35,2.35,0,0,1,1.91-.5,1.7,1.7,0,0,1,1.51,1.43c.29,2.06-2.75,5.82-4.69,6.81A.26.26,0,0,1,733.51,990.72Zm3-7.3a1.23,1.23,0,0,0-1,.34c-1.21,1-1.53,4.1-1.59,5.87,1.7-1.28,3.67-4.12,3.55-5.5,0-.26-.17-.57-.79-.69Z" transform="translate(-75.74 -278.94)"/><path class="cls-13" d="M738.39,991.7a23.29,23.29,0,0,1-5-1,.41.41,0,0,1-.32-.35.5.5,0,0,1,.2-.44c.63-.38,6.18-3.67,8.43-2.64a1.67,1.67,0,0,1,.93,1.31A2.31,2.31,0,0,1,742,991,5,5,0,0,1,738.39,991.7Zm3-3.54c-1.19-.56-4.41.82-6.68,2.07,3.31.87,5.79.92,6.73.11a1.62,1.62,0,0,0,.41-1.54.78.78,0,0,0-.46-.64Z" transform="translate(-75.74 -278.94)"/><path class="cls-13" d="M733.51,990.72a.25.25,0,0,1-.19,0,.47.47,0,0,1-.21-.36c0-.16-.08-5.65,1.91-7.37a2.35,2.35,0,0,1,1.91-.5,1.7,1.7,0,0,1,1.51,1.43c.29,2.06-2.75,5.82-4.69,6.81A.26.26,0,0,1,733.51,990.72Zm3-7.3a1.23,1.23,0,0,0-1,.34c-1.21,1-1.53,4.1-1.59,5.87,1.7-1.28,3.67-4.12,3.55-5.5,0-.26-.17-.57-.79-.69Z" transform="translate(-75.74 -278.94)"/><path class="cls-1" d="M731.93,988.09l-21.08-1.32a1.34,1.34,0,0,0-1.47,1.19v0l-2.07,16.62a3.34,3.34,0,0,0,3.07,3.53c7.36.34,10.89.13,20.17.64,5.7.34,16.91,1.55,24.77.79s6.89-8.51,3.5-8.88c-8-.91-18.7-6.83-23.73-11.31A5.22,5.22,0,0,0,731.93,988.09Z" transform="translate(-75.74 -278.94)"/><polygon class="cls-10" points="649.96 683.03 654.81 697.99 634.07 704.08 627.61 687.65 649.96 683.03"/><path class="cls-14" d="M668.81,857.87l-5.1-1.42a6.13,6.13,0,0,0-5.52,1.13l-7.25,5.84a11.47,11.47,0,0,0-4.25,9.64l.14,2.3c8.29,2.94,19.42,0,19.42,0l3.27-.48a5.13,5.13,0,0,0,4.48-5.75l-.88-6.48A5.9,5.9,0,0,0,668.81,857.87Z" transform="translate(-75.74 -278.94)"/><path class="cls-16" d="M668.81,857.87l-5.1-1.42a6.13,6.13,0,0,0-5.52,1.13l-7.25,5.84a11.47,11.47,0,0,0-4.25,9.64l.14,2.3c8.29,2.94,19.42,0,19.42,0l3.27-.48a5.13,5.13,0,0,0,4.48-5.75l-.88-6.48A5.9,5.9,0,0,0,668.81,857.87Z" transform="translate(-75.74 -278.94)"/><path class="cls-1" d="M511.62,956.85s-6.7,51.06,55,51.06c63.59,0,57.8-43.58,45.15-69.48Z" transform="translate(-75.74 -278.94)"/><path class="cls-17" d="M511.62,956.85s-6.7,51.06,55,51.06c63.59,0,57.8-43.58,45.15-69.48Z" transform="translate(-75.74 -278.94)"/><path class="cls-14" d="M582.47,832.41l19.32,11.34c6.4,3.73,12.91,7.5,19.1,10.51.79.41,1.5.71,2.23,1l1.1.5.92.35a14.08,14.08,0,0,0,1.73.61c.54.19,1.42.32,2.11.51,3.21.67,6.87,1.1,10.52,1.57,7.33.88,14.93,1.72,22.46,2.81h.1a5.4,5.4,0,0,1,.39,10.62,164.24,164.24,0,0,1-23.3,3.44,101.78,101.78,0,0,1-12.33.26c-1.19-.09-2.21-.14-3.54-.34l-2-.33c-.64-.14-1.21-.32-1.82-.47l-1.8-.5-1.58-.54c-1-.36-2.12-.71-3.07-1.1a211,211,0,0,1-21.69-10.21c-6.89-3.72-13.53-7.57-20.17-11.8a10.75,10.75,0,0,1,11.19-18.35Z" transform="translate(-75.74 -278.94)"/><path class="cls-16" d="M582.47,830.66,601.79,842c6.4,3.73,12.91,7.5,19.1,10.51.79.41,1.5.71,2.23,1l1.1.5.92.35a16,16,0,0,0,1.73.61c.54.19,1.42.31,2.11.51,3.21.67,6.87,1.1,10.52,1.57,7.33.88,14.93,1.72,22.46,2.81h.1a5.4,5.4,0,0,1,.39,10.62,162.79,162.79,0,0,1-23.3,3.43,99.72,99.72,0,0,1-12.33.27c-1.19-.09-2.21-.14-3.54-.34l-2-.34c-.64-.13-1.21-.31-1.82-.47l-1.8-.5-1.58-.53c-1-.36-2.12-.71-3.07-1.1a208.9,208.9,0,0,1-21.69-10.22c-6.89-3.71-13.53-7.57-20.17-11.79a10.75,10.75,0,0,1,11.19-18.35Z" transform="translate(-75.74 -278.94)"/><path class="cls-6" d="M615.33,848.76l-12.51,25.31a4.38,4.38,0,0,1-.49-.1l-.61-.1v0h-.1l0,0c-.81-.15-2-.4-3.45-.77-.44-.07-.93-.2-1.43-.32a1.69,1.69,0,0,0-.34-.1c-.49-.12-1-.24-1.53-.39s-1.33-.37-2-.57a73.2,73.2,0,0,1-11.64-4.23c-.62-.35-1.26-.67-1.83-1A19.91,19.91,0,0,1,576,864.2a2.32,2.32,0,0,1-.41-.42,3.65,3.65,0,0,1-.3-.27,4.82,4.82,0,0,1-.52-.64l-.37-.49c-.09-.13-.17-.25-.27-.42s-.37-.55-.54-.87-.34-.66-.54-1-.35-.71-.52-1.08c0-.07-.07-.2-.12-.29v0c-.15-.27-.25-.54-.37-.81s-.32-.79-.47-1.23-.32-.81-.44-1.23-.32-.91-.44-1.36c-3.8-12.41-9.34-28.71-2.76-28.71,22.18,0,38.85,16,45.4,21.62C614.62,848.09,615.33,848.76,615.33,848.76Z" transform="translate(-75.74 -278.94)"/><path class="cls-10" d="M601.72,873.85h-.1l0,0c-.81-.15-2-.4-3.45-.77-.44-.07-.93-.2-1.43-.32a1.69,1.69,0,0,0-.34-.1c-.49-.12-1-.24-1.53-.39s-1.33-.37-2-.57a73.2,73.2,0,0,1-11.64-4.23c-.62-.35-1.26-.67-1.83-1A19.91,19.91,0,0,1,576,864.2a2.32,2.32,0,0,1-.41-.42,3.65,3.65,0,0,1-.3-.27,4.82,4.82,0,0,1-.52-.64l-.37-.49c-.09-.13-.17-.25-.27-.42s-.37-.55-.54-.87-.34-.66-.54-1-.35-.71-.52-1.08c0-.07-.07-.2-.12-.29v0l5.07-23.32s19.36,15,24.21,38.27A.87.87,0,0,1,601.72,873.85Z" transform="translate(-75.74 -278.94)"/><path class="cls-6" d="M504.19,962.68S493.55,881,497.1,863.29s10.41-42.1,70.82-37.95c0,0,23.11,2.32,26.35,27.68s20,89.87,20,89.87Z" transform="translate(-75.74 -278.94)"/><path class="cls-13" d="M614.25,942.87l-110,19.82s-10.67-81.77-7.1-99.38c3-15.07,8.45-35.11,47.58-38a158.66,158.66,0,0,1,23.24.1s21,2.09,25.76,24.27c.24,1.09.44,2.2.59,3.38,1,7.46,3.08,18.29,5.59,29.89.17.81.37,1.65.57,2.49.39,1.87.81,3.77,1.23,5.69,1.08,4.72,2.16,9.48,3.27,14.08.37,1.58.74,3.15,1.11,4.68.22,1.06.49,2.09.74,3.13C610.85,929.77,614.25,942.87,614.25,942.87Z" transform="translate(-75.74 -278.94)"/><path class="cls-10" d="M604.94,905.17c-67,14.55-91-31.52-91-31.52a104.23,104.23,0,0,1,6.23-9.95,37.45,37.45,0,0,0,5.4,5.27c8.29,6.55,18.88,9.8,28.8,13,13.06,4.31,30.71,6.16,46.08,3.38.39,1.87.81,3.77,1.23,5.69C602.75,895.81,603.83,900.57,604.94,905.17Z" transform="translate(-75.74 -278.94)"/><path class="cls-18" d="M533.45,862.45c.77.46,1.79,1.07,2.73,1.61s1.92,1.11,2.9,1.66c2,1.09,3.92,2.18,5.91,3.23,4,2.12,8,4.09,12,6l3,1.36c1,.45,2,.85,3.07,1.28s2,.85,3.06,1.23,2,.81,3.07,1.16a115.93,115.93,0,0,0,12.31,3.63l-2.05-.12c.36,0,.73-.06,1.1-.07a7.08,7.08,0,0,0,1.21-.1l1.42-.21a14.74,14.74,0,0,0,1.46-.24l3.09-.63,3.19-.8c4.29-1.16,8.7-2.41,13.1-3.82s8.83-2.84,13.28-4.31,8.91-3,13.35-4.4l.08,0a5.37,5.37,0,0,1,4.56,9.61c-4.09,2.66-8.22,5.06-12.43,7.43s-8.49,4.56-12.85,6.71-8.85,4.12-13.53,5.93L593,899.85c-1.23.42-2.5.81-3.76,1.21s-2.7.71-4.05,1.05a21,21,0,0,1-2.3.4l-2.41.33a4.38,4.38,0,0,1-1.2,0l-.86-.12a109.8,109.8,0,0,1-15.36-3.23,136.52,136.52,0,0,1-14.43-5c-4.69-1.89-9.24-4-13.69-6.32-2.22-1.16-4.44-2.34-6.61-3.61-1.08-.63-2.17-1.26-3.25-1.93s-2.1-1.32-3.34-2.14a10.75,10.75,0,0,1,11.46-18.18Z" transform="translate(-75.74 -278.94)"/><path class="cls-6" d="M501.65,854.07c.6-7,7.42-20.67,27.52-24.28L536,838s-1.67,11.29,3,14.32a202.92,202.92,0,0,1,26.22,20.91l-12.17,28S498.66,889.09,501.65,854.07Z" transform="translate(-75.74 -278.94)"/><path class="cls-6" d="M534.46,826.52c-7.67,1.32-8.45,4.24-5.69,7.81s17,11.58,30.19,4.65S565.64,821.14,534.46,826.52Z" transform="translate(-75.74 -278.94)"/><path class="cls-6" d="M593.69,849.64C581,836.25,562.17,832,562.17,832s-31.59.44-17.48-6.72a158.66,158.66,0,0,1,23.24.1S588.94,827.46,593.69,849.64Z" transform="translate(-75.74 -278.94)"/><path class="cls-14" d="M524.81,796.83a95.13,95.13,0,0,1,5.79,17.91,33.07,33.07,0,0,1,.58,12.54s-3,7.94,10.66,10.3c8.11,1.4,20.33-.51,20.33-8.52l-5.68-.85s-.18-.4-.42-1.13c-1.09-3.16-3.63-13.3,4.4-19.6C571.54,798.76,524.81,796.83,524.81,796.83Z" transform="translate(-75.74 -278.94)"/><path class="cls-10" d="M524.81,796.83a95.13,95.13,0,0,1,5.79,17.91c7.35,6.29,16.09,11.83,25.47,12.34-1.09-3.16-3.63-13.3,4.4-19.6C571.54,798.76,524.81,796.83,524.81,796.83Z" transform="translate(-75.74 -278.94)"/><path class="cls-1" d="M578.41,752.62s10.84,10.89,4.54,25S559.57,760,559.57,760Z" transform="translate(-75.74 -278.94)"/><path class="cls-14" d="M518.27,777.51c4.12,20.12,5.38,32.11,18.3,40.93,19.45,13.33,46.38.27,49.11-20.73,2.55-18.91-4.68-48.6-28.12-53.68S514.14,757.41,518.27,777.51Z" transform="translate(-75.74 -278.94)"/><path class="cls-1" d="M554.1,785c.11,2.05,1.3,3.67,2.65,3.57s2.32-1.81,2.2-3.86-1.3-3.63-2.65-3.57S554,783,554.1,785Z" transform="translate(-75.74 -278.94)"/><path class="cls-1" d="M574.8,780.35c.12,2,1.31,3.67,2.65,3.57s2.32-1.81,2.21-3.86-1.31-3.64-2.65-3.57S574.69,778.31,574.8,780.35Z" transform="translate(-75.74 -278.94)"/><path class="cls-1" d="M557.73,770a1.34,1.34,0,0,0,.27-.69,1.22,1.22,0,0,0-1.27-1.15,11.84,11.84,0,0,0-9.65,5.29,1.2,1.2,0,0,0,.43,1.65h0a1.26,1.26,0,0,0,1.65-.43h0a9.46,9.46,0,0,1,7.77-4.06A1.29,1.29,0,0,0,557.73,770Z" transform="translate(-75.74 -278.94)"/><path class="cls-1" d="M583,767.5a1.45,1.45,0,0,0,.63-.4,1.24,1.24,0,0,0-.35-1.68A11.87,11.87,0,0,0,572.38,764a1.22,1.22,0,0,0-.63,1.59h0a1.26,1.26,0,0,0,1.59.62h0a9.46,9.46,0,0,1,8.67,1.3A1.31,1.31,0,0,0,583,767.5Z" transform="translate(-75.74 -278.94)"/><path class="cls-19" d="M570.25,786.24l6.24,4.27s-1.4,2.52-7,3.48Z" transform="translate(-75.74 -278.94)"/><path class="cls-1" d="M512,768.18c-1.48,3.43-2.58,9-1.22,17.94C513.61,804.44,528,810,528,810l5.13-16s10.52-3.23,10.52-20.55c0-5.85-2.62-8-2.62-8Z" transform="translate(-75.74 -278.94)"/><path class="cls-14" d="M536.86,789.24s-5.32-11.24-11.07-7.43-3.91,22.78,4.84,22.46S541,795.22,536.86,789.24Z" transform="translate(-75.74 -278.94)"/><path class="cls-20" d="M570.68,801s-13.85.8-20.73-6.93" transform="translate(-75.74 -278.94)"/><path class="cls-1" d="M541.06,765.44s5.73,2.78,9.62.93S550,760,550,760s7.72,3.41,13.24,1.78,1.67-8.43,1.67-8.43,5.31,4.86,9.93,5.51,3.62-6.22,3.62-6.22,5.56,3.68,7.75,0-8.41-8.23-8.41-8.23,4.59,1.11,5.24-2.53-9.4-7.86-19.23-6.07a4.55,4.55,0,0,0-.9-4.39c-1.78-2.11-16.72-2.11-22.73,2.44,0,0,.16-2.73-5.19-3.8s-11.69,10.62-11.69,10.62-8.09-.18-11.48,3.37,3,4.46,3,4.46-9.32,3.64-10.87,12.62,5.14,5.26,5.14,5.26-3.68,6.83-1.08,12.44,21.26-8.11,21.26-8.11-.06,6.46,4.15,5.79C541.06,775.27,541.06,765.44,541.06,765.44Z" transform="translate(-75.74 -278.94)"/><line class="cls-21" x1="547.65" y1="560.04" x2="573.37" y2="594.54"/><path class="cls-14" d="M646.83,860l-5.25-.68a6.17,6.17,0,0,0-5.3,1.93L630,868a11.44,11.44,0,0,0-2.81,10.15l.47,2.26c8.63,1.71,19.22-2.8,19.22-2.8l3.16-1a5.13,5.13,0,0,0,3.6-6.34l-1.81-6.28A5.87,5.87,0,0,0,646.83,860Z" transform="translate(-75.74 -278.94)"/><path class="cls-1" d="M606.07,906.2s11.13-15.07,21.55-25.77S652.4,863.49,662.14,870c0,0,7.06-5.52,14.37-4.49s20.09,19.33,20.09,19.33l-12.26,6.54-44,16.08-27.46,16.37Z" transform="translate(-75.74 -278.94)"/><path class="cls-22" d="M696.59,884.86l-12.26,6.55-44,16.08L612.9,923.86l-6.83-17.65s11.13-15.07,21.55-25.79a50.09,50.09,0,0,1,13.57-10c7.41-3.59,15-4.36,20.95-.39,0,0,7.07-5.52,14.36-4.48,3.91.54,9.38,6,13.62,11C693.81,880.89,696.59,884.86,696.59,884.86Z" transform="translate(-75.74 -278.94)"/><path class="cls-16" d="M690.12,876.56,687,887.22l-23.64,3.45H626.91l-2.27-3.87s8.59-10.46,16.55-16.4c7.41-3.59,15-4.36,20.95-.39,0,0,7.07-5.52,14.36-4.48C680.41,866.07,685.88,871.56,690.12,876.56Z" transform="translate(-75.74 -278.94)"/><path class="cls-6" d="M701.1,884.86l-18.5,14.82-70.42,27.55-.66.27-6.9-13.88,20.64-24.31s18.59-22.87,38.58-15.83c0,0,13.18-5.86,22.06-3.47l.23.07C694.87,872.62,701.1,884.86,701.1,884.86Z" transform="translate(-75.74 -278.94)"/><path class="cls-10" d="M701.1,884.86l-18.5,14.82-70.42,27.55,53.36-51.9c7.56-4.16,14.48-5.54,20.59-5.25C694.87,872.62,701.1,884.86,701.1,884.86Z" transform="translate(-75.74 -278.94)"/><path class="cls-1" d="M551.94,954.41S633,875.08,666.69,877.52,732.57,971,732.57,971L703.3,982.54s-36.53-47.06-40.92-47.06-33.44,45.17-48.13,57.9-27.83,14.77-33.93,14.77H569.09Z" transform="translate(-75.74 -278.94)"/><path class="cls-17" d="M551.94,954.41S633,875.08,666.69,877.52,732.57,971,732.57,971L703.3,982.54s-36.53-47.06-40.92-47.06-33.44,45.17-48.13,57.9-27.83,14.77-33.93,14.77H569.09Z" transform="translate(-75.74 -278.94)"/></g><g id="_Group_2" data-name="&lt;Group&gt;"><path class="cls-23" d="M280.21,615.27c-.53,7.21-1.38,14.3-2.4,21.46-.52,3.57-1.07,7.14-1.75,10.75q-.48,2.7-1.05,5.48c-.22.95-.41,1.85-.65,2.84l-.38,1.49-.19.76-.27.9a28.07,28.07,0,0,1-1.18,3.31c-.42,1-.85,2-1.3,2.89-.92,1.83-1.88,3.53-2.86,5.19-1.94,3.33-4.1,6.38-6.25,9.4s-4.45,5.86-6.82,8.66-4.76,5.51-7.41,8.16a5.05,5.05,0,0,1-8.13-5.75l.05-.09c3-6.32,6.3-12.62,9.25-18.85,1.51-3.09,2.9-6.22,4.19-9.23.63-1.51,1.22-3,1.7-4.46.24-.71.48-1.41.67-2.07a12.43,12.43,0,0,0,.4-1.79l.07-.39.08-.54.16-1.13c.1-.75.19-1.61.29-2.42.18-1.66.39-3.35.55-5.07l1-10.42c.67-7,1.33-14.05,2.19-21v-.05a10.07,10.07,0,0,1,20,2Z" transform="translate(-75.74 -278.94)"/><path class="cls-1" d="M267.11,601.74c-13.06,9.16-14.89,33.11-14.89,33.11L276,640.36Z" transform="translate(-75.74 -278.94)"/><path class="cls-1" d="M365.76,698.32s-10.64-73.88-19.58-88.19-22.92-33.63-70.55-15.41c0,0-18,7.6-11.88,30.17s14.65,82,14.65,82Z" transform="translate(-75.74 -278.94)"/><path class="cls-13" d="M263.73,624.89c1.8,6.65,3.8,16.46,5.73,27,.45,2.45.9,5,1.35,7.47,1,5.81,2,11.67,2.91,17.18.16,1,.31,1.93.47,2.87,2.46,15.4,4.21,27.49,4.21,27.49l87.37-8.58s-10.65-73.92-19.6-88.2-22.91-33.65-70.53-15.4C275.64,594.74,257.67,602.32,263.73,624.89Z" transform="translate(-75.74 -278.94)"/><polygon class="cls-24" points="136.98 525.25 152.97 567.76 164.16 560.72 155.65 517.52 136.98 525.25"/><path class="cls-6" d="M360.84,689.3l-84.92,1.14v8.91s-61.8,3.6-79.34,21.14S216,822.9,216,822.9l22.07-3.54-5.31-68.12s54.12,5.37,72.23,5.37C344,756.61,360.84,689.3,360.84,689.3Z" transform="translate(-75.74 -278.94)"/><path class="cls-1" d="M221.41,838.22,240,833a1.22,1.22,0,0,1,1.54.78v0l5,14.46a3,3,0,0,1-2.08,3.73c-6.51,1.71-9.7,2.2-17.9,4.42-5,1.38-14.81,4.6-22,5.42s-7.78-6.29-4.82-7.26c7-2.35,15.41-9.67,19-14.63A4.83,4.83,0,0,1,221.41,838.22Z" transform="translate(-75.74 -278.94)"/><path class="cls-6" d="M213,842.73a2.16,2.16,0,0,1-1.07-2,1.53,1.53,0,0,1,.58-1.35c1.82-1.35,7.4.54,8,.76a.45.45,0,0,1,.26.36.38.38,0,0,1-.22.37,21,21,0,0,1-4.25,1.83A4.64,4.64,0,0,1,213,842.73Zm0-2.65a.72.72,0,0,0-.28.66,1.5,1.5,0,0,0,.66,1.3c1,.54,3.2,0,6-1.39-2.26-.68-5.4-1.3-6.37-.57Z" transform="translate(-75.74 -278.94)"/><path class="cls-6" d="M220.29,841c-1.92-.51-5.36-3.29-5.49-5.2a1.55,1.55,0,0,1,1.08-1.56,2.12,2.12,0,0,1,1.79.08c2.11,1.16,3.08,6.08,3.12,6.23a.45.45,0,0,1-.13.36.87.87,0,0,0-.37.09Zm-4.1-6c-.53.21-.6.52-.57.76.16,1.25,2.46,3.42,4.22,4.23-.39-1.57-1.27-4.26-2.54-4.94a1.15,1.15,0,0,0-.92-.12Z" transform="translate(-75.74 -278.94)"/><path class="cls-10" d="M360.84,689.3l-84.92,1.14v8.91s-61.8,3.6-79.34,21.14S216,822.9,216,822.9l22.07-3.54-5.31-68.12s54.12,5.37,72.23,5.37C344,756.61,360.84,689.3,360.84,689.3Z" transform="translate(-75.74 -278.94)"/><polygon class="cls-24" points="159.8 525.01 167.28 569.8 179.61 565.06 179.61 521.03 159.8 525.01"/><path class="cls-1" d="M239.15,845.4l17.2-8.73a1.21,1.21,0,0,1,1.66.46v0l7.75,13.19a3,3,0,0,1-1.3,4.07c-6.05,3-9.09,4.06-16.69,7.84-4.65,2.35-13.62,7.42-20.49,9.63s-8.86-4.64-6.14-6.18c6.41-3.68,13.21-12.49,15.81-18.08A4.81,4.81,0,0,1,239.15,845.4Z" transform="translate(-75.74 -278.94)"/><path class="cls-6" d="M231.77,851.48a2.15,2.15,0,0,1-1.45-1.77,1.53,1.53,0,0,1,.31-1.44c1.52-1.68,7.36-.93,8-.83a.45.45,0,0,1,.32.29.38.38,0,0,1-.13.41,21.25,21.25,0,0,1-3.82,2.63A4.63,4.63,0,0,1,231.77,851.48Zm-.51-2.61a.76.76,0,0,0-.15.71,1.48,1.48,0,0,0,.91,1.14c1.08.34,3.13-.6,5.6-2.53-2.35-.23-5.55-.22-6.36.68Z" transform="translate(-75.74 -278.94)"/><path class="cls-6" d="M238.58,848.3c-2-.13-5.89-2.18-6.4-4a1.55,1.55,0,0,1,.75-1.74,2.16,2.16,0,0,1,1.78-.28c2.3.72,4.21,5.36,4.28,5.49a.43.43,0,0,1-.06.38.23.23,0,0,1-.16.06A.27.27,0,0,1,238.58,848.3Zm-5.18-5c-.48.32-.49.64-.41.86.4,1.2,3.08,2.87,5,3.32-.69-1.46-2.08-3.92-3.46-4.34a1.16,1.16,0,0,0-.93.06Z" transform="translate(-75.74 -278.94)"/><path class="cls-6" d="M364.39,689.3s16,53.42-19.74,63.73-83.8-1.79-83.8-1.79L258,819l-22.58.36s-19.88-70.62-14.81-92.33S300,698.87,300,698.87l.34-9.57Z" transform="translate(-75.74 -278.94)"/><path class="cls-24" d="M268.17,689.38l4.57-1.93a5.73,5.73,0,0,1,5.26.4l7.42,4.57a10.74,10.74,0,0,1,5.1,8.45l.14,2.15c-7.36,3.72-18.05,2.31-18.05,2.31l-3.09-.06a4.8,4.8,0,0,1-4.84-4.81l0-6.13A5.53,5.53,0,0,1,268.17,689.38Z" transform="translate(-75.74 -278.94)"/><path class="cls-23" d="M340.38,617.25l.32,1.07.26.93.48,1.81c.31,1.21.56,2.41.82,3.61.5,2.39.88,4.8,1.21,7.23a95.16,95.16,0,0,1,.79,14.77q-.11,3.75-.54,7.55a75.24,75.24,0,0,1-1.37,7.62,59.16,59.16,0,0,1-2.34,7.59,56.27,56.27,0,0,1-3.55,7.34l-.29.49a5.51,5.51,0,0,1-.81,1.09,40.07,40.07,0,0,1-5.73,5c-1.87,1.38-3.72,2.58-5.56,3.74s-3.7,2.22-5.56,3.23-3.71,2-5.58,2.94c-3.74,1.87-7.51,3.6-11.32,5.22S294,701.65,290,703a5,5,0,0,1-4.54-8.86l.08-.06c3.23-2.3,6.58-4.58,9.85-6.87s6.54-4.55,9.72-6.87,6.32-4.64,9.25-7c1.46-1.18,2.88-2.37,4.14-3.56a27.36,27.36,0,0,0,3.08-3.27l-1.09,1.58a38.37,38.37,0,0,0,1.84-4.88,51.83,51.83,0,0,0,1.22-5.3,66.44,66.44,0,0,0,.77-11.4,96.57,96.57,0,0,0-1-11.89c-.27-2-.63-4-1-6-.2-1-.4-2-.62-2.93l-.32-1.42-.3-1.23-.14-.55a10.06,10.06,0,0,1,19.41-5.28Z" transform="translate(-75.74 -278.94)"/><path class="cls-6" d="M185,705.69v5.81c0,1.49,1.76,2.1,3.23,2.1h116c1.49,0,3.29-.61,3.29-2.1v-5.81Z" transform="translate(-75.74 -278.94)"/><path class="cls-17" d="M185,705.69v5.81c0,1.49,1.76,2.1,3.23,2.1h116c1.49,0,3.29-.61,3.29-2.1v-5.81Z" transform="translate(-75.74 -278.94)"/><path class="cls-10" d="M185,705.69v5.81c0,1.49,1.76,2.1,3.23,2.1h76.52c1.49,0,3.26-.61,3.26-2.1v-5.81Z" transform="translate(-75.74 -278.94)"/><path class="cls-6" d="M165.57,645.41l13.81,62.65a4.7,4.7,0,0,0,4.48,3.56h75.46a3,3,0,0,0,2.83-3.94l-13.8-62.17c-.46-2-2.45-3.06-4.48-3.06H168.42C166.39,642.45,165.12,643.36,165.57,645.41Z" transform="translate(-75.74 -278.94)"/><path class="cls-17" d="M165.57,645.41l13.81,62.65a4.7,4.7,0,0,0,4.48,3.56h72.89a3,3,0,0,0,2.85-3.94l-13.81-62.17c-.45-2-2.46-3.06-4.48-3.06H168.42C166.39,642.45,165.12,643.36,165.57,645.41Z" transform="translate(-75.74 -278.94)"/><path class="cls-10" d="M202.77,677.25v0c0,5.36,5.75,9.72,10,9.72s6.71-4.36,5.51-9.72-5.4-9.54-9.52-9.71c1.2,5.37-1.38,9.71-5.58,9.71A2,2,0,0,1,202.77,677.25Z" transform="translate(-75.74 -278.94)"/><path class="cls-1" d="M285,610.17s-15.4-11.69-6.17-26.39c5.26-8.35,46-15.54,52.52-6.79a17.29,17.29,0,0,1,1.79,17.67s-8.13-.17-13.89,0S302.22,612.33,285,610.17Z" transform="translate(-75.74 -278.94)"/><path class="cls-24" d="M301.19,559a85.61,85.61,0,0,0,1.44,16.87c.77,4,3,11.44,8.4,14.47,0,0-1.18,6.36-10.22,12-6.93,4.36-13,6-15.58,4.38-2.27-1.42.62-10.68.62-10.68a10.85,10.85,0,0,0-.05-1.09c-.19-3-1.61-12.29-10.48-14.72C263.11,576.88,301.19,559,301.19,559Z" transform="translate(-75.74 -278.94)"/><path class="cls-10" d="M301.19,559a85.61,85.61,0,0,0,1.44,16.87c-3.91,7.78-9.22,15.42-16.83,19.11-.19-3-1.61-12.29-10.48-14.72C263.11,576.88,301.19,559,301.19,559Z" transform="translate(-75.74 -278.94)"/><path class="cls-1" d="M244,533.72s-6.33,12.62,3.23,23.13,15.33-22.12,15.33-22.12Z" transform="translate(-75.74 -278.94)"/><path class="cls-24" d="M303.61,538.17c2.18,18.74,4.52,29.56-4.22,41-13.14,17.22-40.4,13.56-48.81-4-7.65-15.77-9.87-43.75,9.13-54.91S301.43,519.44,303.61,538.17Z" transform="translate(-75.74 -278.94)"/><path class="cls-1" d="M265.72,543.57a1.17,1.17,0,0,1-.38-.47,1,1,0,0,1,.69-1.2,9.59,9.59,0,0,1,8.76,1.63,1,1,0,0,1,.09,1.38h0a1,1,0,0,1-1.38.08h0a7.65,7.65,0,0,0-7-1.15A1,1,0,0,1,265.72,543.57Z" transform="translate(-75.74 -278.94)"/><path class="cls-1" d="M244.61,550.66a1.23,1.23,0,0,1-.59-.15,1,1,0,0,1-.15-1.38,9.6,9.6,0,0,1,8-3.85,1,1,0,0,1,.89,1.07h0a1,1,0,0,1-1.07.88h0a7.64,7.64,0,0,0-6.34,3.19A1.06,1.06,0,0,1,244.61,550.66Z" transform="translate(-75.74 -278.94)"/><path class="cls-25" d="M259.18,561.84l-3.72,4.87s1.71,1.58,6.31.89Z" transform="translate(-75.74 -278.94)"/><path class="cls-1" d="M261.47,574.07a57.48,57.48,0,0,1,5.16,6.52c.44-.2.89-.4,1.32-.62,6-2.86,7.82-6.17,8-9a9.27,9.27,0,0,0-1.91-6c-2.27,3.41-7.64,6.51-10.58,8.05C262.27,573.72,261.47,574.07,261.47,574.07Z" transform="translate(-75.74 -278.94)"/><path class="cls-3" d="M263.5,573.07l1.57,1.88c5.63-2.71,9.23-5.37,10.18-7.93a8.53,8.53,0,0,0-1.17-2C271.81,568.43,266.44,571.53,263.5,573.07Z" transform="translate(-75.74 -278.94)"/><path class="cls-19" d="M268,580c6-2.86,7.82-6.17,8-9a21.16,21.16,0,0,0-6,4.49A8,8,0,0,0,268,580Z" transform="translate(-75.74 -278.94)"/><path class="cls-1" d="M277.42,510.85a7.93,7.93,0,0,1-1.29.11l1.54,22.76c0,7.47,6.32,12.56,6.32,12.56a25,25,0,0,0,9.86,12.25c8.83-.19,9.8,13.08,9.8,13.08C319.48,563,317.37,501.15,277.42,510.85Z" transform="translate(-75.74 -278.94)"/><path class="cls-24" d="M290.75,553.74s1.42-11.33,7.53-9.66,10,18.76,2.23,21S288.83,560.16,290.75,553.74Z" transform="translate(-75.74 -278.94)"/><path class="cls-1" d="M267.39,556c.63,1.81,2.12,2.94,3.33,2.52s1.68-2.23,1-4.05-2.12-2.94-3.33-2.52S266.76,554.14,267.39,556Z" transform="translate(-75.74 -278.94)"/><path class="cls-1" d="M269,551.82l-4.49-.18S267.61,554.28,269,551.82Z" transform="translate(-75.74 -278.94)"/><path class="cls-1" d="M249.76,560c.63,1.81,2.12,3,3.33,2.53s1.68-2.24,1-4-2.12-3-3.33-2.53S249.13,558.19,249.76,560Z" transform="translate(-75.74 -278.94)"/><path class="cls-1" d="M251.34,555.87l-4.48-.18S250,558.33,251.34,555.87Z" transform="translate(-75.74 -278.94)"/><path class="cls-1" d="M253.41,536.57c-1.71,2.58-2,7.95-2,12,3.16-.46,6.72-1,10.38-1.64-1.35-8.74.24-12,.24-12-.05,4.33,1.65,9,2.72,11.49,2.83-.52,5.67-1.07,8.4-1.66a40.75,40.75,0,0,1-1.06-10.69c.76,3.74,3.82,7.56,5.68,9.62l1.33-.33s-4.22-8,0-14.44S276.13,511,276.13,511s-41.88.68-36.69,39.19c0,0,3.64-.42,9-1.17C249.36,540.47,253.41,536.57,253.41,536.57Z" transform="translate(-75.74 -278.94)"/><path class="cls-1" d="M319.65,543.35a76.13,76.13,0,0,1,1.7,10.33A35.9,35.9,0,0,0,333.17,550c.13-7.29-.7-16-.7-16a93.93,93.93,0,0,1,2.85,14.79c.89-.53,1.37-.88,1.37-.88s-4.06-45-20.51-44.23-19.75,14-19.75,14l4.71,7s6.17-6.17,9.89-1,7.15,30.24,7.15,30.24c.48,0,.95,0,1.42-.07C319.79,549.05,319.65,543.35,319.65,543.35Z" transform="translate(-75.74 -278.94)"/><path class="cls-1" d="M331.55,601.74c10.5-.08,17.89,13.08,19.28,30.86l-32,7.12S307.51,601.93,331.55,601.74Z" transform="translate(-75.74 -278.94)"/></g><path class="cls-6" d="M133.53,946.6s-1.15-63.52,28.75-92S141.09,850.08,130,880c0,0,3-56.82,33.27-91.35s-18.53-10.8-29.89,28.61c0,0,2.53-50.71,18.37-76.43s-5.85-11.4-16.21,4.64-9.47,60.87-9.47,60.87-2.94-83.15-21.48-80.15,14.6,63.5,15.37,91.79c0,0-13.38-40.46-30.34-35.84s21.8,16,29.38,74l1.42,26.76s-11.84-39.67-26.32-30.67,30.46,38,31.24,94.83Z" transform="translate(-75.74 -278.94)"/><path class="cls-10" d="M133.53,946.6s-1.15-63.52,28.75-92S141.09,850.08,130,880c0,0,3-56.82,33.27-91.35s-18.53-10.8-29.89,28.61c0,0,2.53-50.71,18.37-76.43s-5.85-11.4-16.21,4.64-9.47,60.87-9.47,60.87-2.94-83.15-21.48-80.15,14.6,63.5,15.37,91.79c0,0-13.38-40.46-30.34-35.84s21.8,16,29.38,74l1.42,26.76s-11.84-39.67-26.32-30.67,30.46,38,31.24,94.83Z" transform="translate(-75.74 -278.94)"/><polygon class="cls-1" points="20.61 730.86 96.74 730.86 106.86 656.83 10.49 656.83 20.61 730.86"/><polygon class="cls-15" points="20.61 730.86 96.74 730.86 106.86 656.83 10.49 656.83 20.61 730.86"/><path class="cls-6" d="M131.29,943.82s8-50.86-12.88-77.06,17.5-1.25,23.11,24c0,0,3.92-45.93-16.59-77s16.07-6.61,20.82,26.28c0,0,3.59-41-6.26-63.38s5.95-8.5,12.49,5.52.85,49.91.85,49.91,11.58-66.41,26.13-62-18.76,49.34-22.51,72c0,0,15.22-31,28.32-25.41S165.5,827.15,153,872.81l-4.11,21.32s13.9-30.53,24.53-21.7-28.66,27.14-35.59,72.65Z" transform="translate(-75.74 -278.94)"/><path class="cls-1" d="M192.13,929.78v7a8.51,8.51,0,0,1-8.52,8.52H84.26a8.51,8.51,0,0,1-8.52-8.52v-7Z" transform="translate(-75.74 -278.94)"/></g><path class="cls-26" d="M461.23,315.4c.46-5.87-2.77-10.72-3.93-16.76-5.38,4.55-10.45,8.56-15.19,12.95a11.13,11.13,0,0,1-9.77,3.15c-5.41-.74-10.88-1.09-16.33-1.58-1.31-.12-3.36-.7-2.49,1.82,1.57,4.5,2,9.45,4.78,13.48-.62,1.48-1.29,2.94-1.83,4.45-5.74,15.89.15,28.71,15.64,34,2.52.85,5.12,1.48,7.68,2.19,8.15,2.24,16.52,3.62,24.45,6.72,6.26,2.44,9.57,6.88,9.55,13.92s-3.1,11.7-9.15,14.41c-8.69,3.91-17.67,4.05-26.62,1.3-5-1.52-9.24-4.67-11.13-9.7-1.56-4.14-3.89-5.27-7.73-4.68a12,12,0,0,1-3.28,0c-3.91-.49-4,1.46-3.05,4.55,3,9.48,9,16.37,18,19.7A50.19,50.19,0,0,0,471,413.59C482.7,408,487.47,398.9,486.51,385c-.77-11.07-6.73-18.26-18.53-22.26-1.77-.6-3.61-1-5.42-1.51-8.95-2.31-18.06-4-26.75-7.22-7.11-2.67-10.09-8.74-8.16-16.16.75-2.88,2.45-5.18,4.2-7.45l17.28-5.1c8.37.6,16.06,2.42,20.13,11.27,2.37,5.14,5.4,6.36,9.58,4.16,3.7-1.95,4.35-5.31,2-10.3C476.77,322,469.58,317.86,461.23,315.4Z" transform="translate(-75.74 -278.94)"/><path class="cls-26" d="M315,350.49l-2.47-2.4c-15.28-14.43-39.58-8.57-46.43,11.59a55.07,55.07,0,0,0,1.75,41c8.5,19.14,30.51,24.17,46.39,11C323.51,404,327,393.7,327,381.82q0-29.49,0-59c0-7.95,0-7.67-7.51-8-4-.18-4.58,1.43-4.5,5C315.16,329.6,315,339.42,315,350.49Z" transform="translate(-75.74 -278.94)"/><path class="cls-26" d="M541.34,386c7.82,0,15.65-.26,23.46.1,4.09.19,5.24-1.58,5-5.23-.18-3.05-.2-6.13-.65-9.13-3.44-22.77-25.6-37.11-45.49-29.5-16.86,6.44-26.54,25.86-22.88,45.85,4.8,26.17,32.46,39,52.81,24.55,8.36-6,8.34-6.81.16-12.85-1.57-1.16-2.54-1.84-4.19.06-10.51,12-28.45,8.11-35.07-9.38-1.26-3.33-.89-4.63,2.91-4.54C525.39,386.18,533.37,386,541.34,386Z" transform="translate(-75.74 -278.94)"/><path class="cls-26" d="M743.56,386h16c14.24,0,14.8-.74,11.79-15.56,0-.16,0-.33-.06-.48-3.65-14.29-11.63-24.75-25.81-28.61-13.34-3.64-24.82.7-33.72,11.39-11.42,13.73-12.43,34.48-2.83,49.6,11,17.27,32.2,21.55,48,9.67,7.41-5.59,7.41-5.93.21-11.49-1.73-1.34-3-2.84-5.39-.34-12.9,13.26-30.29,5-35.26-11.1-1-3.24.63-3.1,2.71-3.09Q731.34,386.06,743.56,386Z" transform="translate(-75.74 -278.94)"/><path class="cls-26" d="M192.57,365.83c0,15.8.09,31.6-.07,47.4,0,3.22.55,4.46,4,4.42,16.9-.19,33.81-.29,50.71,0,5.2.1,3.81-3.15,3.95-5.92.16-3.12.58-5.81-4.27-5.66-12.67.38-25.35,0-38,.2-3.34.05-4.22-1-4.15-4.36.21-9.35.19-18.71,0-28.06-.05-3,.76-3.87,3.68-3.82,10.18.18,20.35.07,30.53.07,6.7,0,6.48,0,6.69-6.94.11-3.64-1.27-4.17-4.34-4.12-10.95.17-21.91,0-32.86.13-2.91,0-3.77-.82-3.7-3.81.19-8.38.23-16.77,0-25.15-.1-3.36,1.08-3.94,4-3.9,12.21.15,24.43-.18,36.63.2,4.4.14,5.53-1.38,4.91-5.4a6.25,6.25,0,0,1,0-1.93c.57-3.56-.69-4.59-4.3-4.54-16.43.23-32.87.19-49.3,0-3.23,0-4.22.77-4.18,4.22C192.68,334.55,192.57,350.19,192.57,365.83Z" transform="translate(-75.74 -278.94)"/><path class="cls-26" d="M398.24,370.37V351.52c0-8.59,0-8.3-8.27-8.64-3.91-.17-4.22,1.42-4.19,4.68.13,14.66.19,29.33,0,44-.12,9.83-6,16.2-14.41,16.15s-14.61-6.87-14.63-16.49c0-13.21,0-26.42,0-39.64,0-8.64,0-8.42-8.31-8.67-3.69-.12-4.38,1.17-4.34,4.64.18,14.82,0,29.64.1,44.46a26.45,26.45,0,0,0,26.62,26.54,27,27,0,0,0,27.41-26.42C398.33,384.87,398.24,377.62,398.24,370.37Z" transform="translate(-75.74 -278.94)"/><path class="cls-26" d="M628.19,343a9.36,9.36,0,0,0,.92,4.56q11.22,32.28,22.38,64.57c1.29,3.79,2.79,6.52,7.43,6.51s6.54-2.71,7.91-6.69c6.88-20,13.87-40,20.82-60,3.12-9,3.11-8.83-6-9-3.22-.07-4.69.87-5.6,4.12-2.16,7.73-4.73,15.34-7.15,23-3.13,9.89-6.29,19.77-9.69,30.47-.73-2.16-1.16-3.36-1.54-4.58-5-16.25-10.07-32.51-15.18-48.74-.57-1.79-.5-4.34-3.56-4.2C635.32,343.11,631.75,343,628.19,343Z" transform="translate(-75.74 -278.94)"/><path class="cls-26" d="M391.32,308.72c6.81.71,6.85.71,6.72,6.76-.06,3-.28,5.95-.42,8.92,0,.89-.6,2,.74,2.37a3,3,0,0,0,1.81-.22c1.31-.61.35-1.56.28-2.42-.32-3.49-.43-7-.81-10.48-.34-3.12.66-4.17,3.82-3.9,9.8.87,19.63,1.37,29.44,2.19a7.14,7.14,0,0,0,5.87-2.1c6.3-5.78,12.71-11.43,19.07-17.13l13.21-11.83L427.34,279a4.89,4.89,0,0,0-3.87,1.18C413,289.52,402.48,298.82,391.32,308.72Z" transform="translate(-75.74 -278.94)"/><path class="cls-26" d="M787.41,390.23v19.35c0,8.11,0,7.87,7.91,8.17,4,.15,4.89-1.27,4.83-5.18-.22-14.51-.14-29-.06-43.55,0-7.27,3.59-12.21,10.3-14.39a30.34,30.34,0,0,1,6.91-1.22c2.15-.17,2.78-1.4,2.46-3.2-.6-3.31,1.59-7-1.28-9.95-.14-.15-.6,0-.91,0-16.22.71-30.21,9.69-30.17,28.63C787.42,376,787.41,383.13,787.41,390.23Z" transform="translate(-75.74 -278.94)"/><path class="cls-26" d="M585.08,389.4v19.82c0,8.41,0,8.2,8.09,8.43,3.59.1,4.42-1,4.37-4.59-.2-14-.12-28-.07-42.05,0-10.33,5.1-16.46,15-17.36,3.84-.36,4.95-1.49,4.83-5.42-.28-8.62-.07-8.63-8.35-7.21-14.84,2.54-23.49,12.66-23.83,28.08C585,375.87,585.08,382.64,585.08,389.4Z" transform="translate(-75.74 -278.94)"/><path class="cls-27" d="M315,350.49c0-11.07.13-20.89-.06-30.71-.08-3.54.48-5.15,4.5-5,7.5.35,7.51.07,7.51,8q0,29.51,0,59c0,11.88-3.48,22.13-12.72,29.81-15.88,13.19-37.89,8.16-46.39-11a55.07,55.07,0,0,1-1.75-41c6.85-20.16,31.15-26,46.43-11.59Zm-.29,27.81c0-5.36-.43-10.66-2.85-15.52-3.7-7.45-9.81-11.19-17.82-11.07-7.78.11-12.72,4.66-15.41,12-3.89,10.57-3.48,21.14.26,31.63,2.42,6.83,7.17,10.72,14.31,11.41,7.52.73,13-2.41,16.81-9C313.51,391.73,314.73,385.18,314.74,378.3Z" transform="translate(-75.74 -278.94)"/><path class="cls-28" d="M541.34,386c-8,0-16,.14-23.92-.07-3.8-.09-4.17,1.21-2.91,4.54,6.62,17.49,24.56,21.41,35.07,9.38,1.65-1.9,2.62-1.22,4.19-.06,8.18,6,8.2,6.89-.16,12.85-20.35,14.48-48,1.62-52.81-24.55-3.66-20,6-39.41,22.88-45.85,19.89-7.61,42.05,6.73,45.49,29.5.45,3,.47,6.08.65,9.13.22,3.65-.93,5.42-5,5.23C557,385.78,549.16,386,541.34,386ZM535,372.85c6.1,0,12.2-.1,18.3,0,2.65.06,3.21-.71,2.44-3.35-2.81-9.75-11.34-17.09-20.36-17.27-9.25-.19-17.94,6.91-21.12,16.9-1,3.3,0,3.81,2.9,3.73C523.08,372.73,529,372.85,535,372.85Z" transform="translate(-75.74 -278.94)"/><path class="cls-28" d="M743.56,386q-12.22,0-24.43,0c-2.08,0-3.72-.15-2.71,3.09,5,16.08,22.36,24.36,35.26,11.1,2.43-2.5,3.66-1,5.39.34,7.2,5.56,7.2,5.9-.21,11.49-15.76,11.88-37,7.6-48-9.67-9.6-15.12-8.59-35.87,2.83-49.6,8.9-10.69,20.38-15,33.72-11.39,14.18,3.86,22.16,14.32,25.81,28.61,0,.15,0,.32.06.48,3,14.82,2.45,15.56-11.79,15.56Zm14.9-13.19c-1.48-11.4-10.37-20.21-20.5-20.56-9.65-.33-19.49,7.89-21.75,18-.44,2,0,2.58,1.9,2.57C731.55,372.82,745,372.85,758.46,372.85Z" transform="translate(-75.74 -278.94)"/><path class="cls-27" d="M192.57,365.83c0-15.64.11-31.28-.08-46.92,0-3.45.95-4.25,4.18-4.22,16.43.17,32.87.21,49.3,0,3.61-.05,4.87,1,4.3,4.54a6.25,6.25,0,0,0,0,1.93c.62,4-.51,5.54-4.91,5.4-12.2-.38-24.42-.05-36.63-.2-2.92,0-4.1.54-4,3.9.25,8.38.21,16.77,0,25.15-.07,3,.79,3.85,3.7,3.81,11-.17,21.91,0,32.86-.13,3.07-.05,4.45.48,4.34,4.12-.21,6.93,0,6.94-6.69,6.94-10.18,0-20.35.11-30.53-.07-2.92-.05-3.73.85-3.68,3.82.18,9.35.2,18.71,0,28.06-.07,3.33.81,4.41,4.15,4.36,12.68-.19,25.36.18,38-.2,4.85-.15,4.43,2.54,4.27,5.66-.14,2.77,1.25,6-3.95,5.92-16.9-.32-33.81-.22-50.71,0-3.48,0-4.06-1.2-4-4.42C192.66,397.43,192.57,381.63,192.57,365.83Z" transform="translate(-75.74 -278.94)"/><path class="cls-28" d="M431.85,330.37c-1.75,2.27-3.45,4.57-4.2,7.45-1.93,7.42,1.05,13.49,8.16,16.16,8.69,3.26,17.8,4.91,26.75,7.22,1.81.46,3.65.91,5.42,1.51,11.8,4,17.76,11.19,18.53,22.26,1,13.93-3.81,23.07-15.48,28.62a50.19,50.19,0,0,1-40.19,1.73c-9-3.33-15-10.22-18-19.7-1-3.09-.86-5,3.05-4.55a12,12,0,0,0,3.28,0c3.84-.59,6.17.54,7.73,4.68,1.89,5,6.17,8.18,11.13,9.7,9,2.75,17.93,2.61,26.62-1.3,6.05-2.71,9.12-7.51,9.15-14.41s-3.29-11.48-9.55-13.92c-7.93-3.1-16.3-4.48-24.45-6.72-2.56-.71-5.16-1.34-7.68-2.19-15.49-5.28-21.38-18.1-15.64-34,.54-1.51,1.21-3,1.83-4.45C422.59,330.82,427.25,330.34,431.85,330.37Z" transform="translate(-75.74 -278.94)"/><path class="cls-27" d="M398.24,370.37c0,7.25.09,14.5,0,21.75a27,27,0,0,1-27.41,26.42A26.45,26.45,0,0,1,344.19,392c-.11-14.82.08-29.64-.1-44.46,0-3.47.65-4.76,4.34-4.64,8.3.25,8.31,0,8.31,8.67,0,13.22,0,26.43,0,39.64,0,9.62,6.11,16.43,14.63,16.49s14.29-6.32,14.41-16.15c.18-14.66.12-29.33,0-44,0-3.26.28-4.85,4.19-4.68,8.26.34,8.27.05,8.27,8.64Z" transform="translate(-75.74 -278.94)"/><path class="cls-28" d="M628.19,343c3.56,0,7.13.12,10.69,0,3.06-.14,3,2.41,3.56,4.2,5.11,16.23,10.13,32.49,15.18,48.74.38,1.22.81,2.42,1.54,4.58,3.4-10.7,6.56-20.58,9.69-30.47,2.42-7.65,5-15.26,7.15-23,.91-3.25,2.38-4.19,5.6-4.12,9.16.19,9.17,0,6,9-6.95,20-13.94,40-20.82,60-1.37,4-3.17,6.68-7.91,6.69s-6.14-2.72-7.43-6.51q-11.1-32.31-22.38-64.57A9.36,9.36,0,0,1,628.19,343Z" transform="translate(-75.74 -278.94)"/><path class="cls-27" d="M390.41,309.9c18.43-16.61,31.88-28.72,33.06-29.76a4.32,4.32,0,0,1,1.16-.78,5.67,5.67,0,0,1,2.72-.4l43.7,1.92-13.21,11.83c-6.36,5.7-12.77,11.35-19.07,17.13a7.14,7.14,0,0,1-5.87,2.1c-2-.17-25.36-2.39-29.43-2.19l-2.8.15c2.75-.14-1,0-1,0h0a6.84,6.84,0,0,0,0,1.06v5.38c0,1.68-.16,1.71,0,2.05,0,.08,0,1,.07,2.12a7.69,7.69,0,0,0,.09,1.12c.21,1,.6,1,.87,2.07a6.43,6.43,0,0,1,.17,1.43,2.61,2.61,0,0,1,0,.83,8.15,8.15,0,0,1-3.18.35,1.22,1.22,0,0,1-.19-.76,4.11,4.11,0,0,1,.18-1.15,25.34,25.34,0,0,0,.91-3.15c0-.21.06-.34.09-.74h0c0-.39-.08-1.84,0-2.08a19.07,19.07,0,0,0,0-2.3v-3h0V309.9h-8.21Z" transform="translate(-75.74 -278.94)"/><path class="cls-28" d="M787.41,390.23c0-7.1,0-14.2,0-21.3,0-18.94,14-27.92,30.17-28.63.31,0,.77-.19.91,0,2.87,3,.68,6.64,1.28,9.95.32,1.8-.31,3-2.46,3.2a30.34,30.34,0,0,0-6.91,1.22c-6.71,2.18-10.26,7.12-10.3,14.39-.08,14.52-.16,29,.06,43.55.06,3.91-.78,5.33-4.83,5.18-7.91-.3-7.91-.06-7.91-8.17Z" transform="translate(-75.74 -278.94)"/><path class="cls-28" d="M585.08,389.4c0-6.76-.12-13.53,0-20.3.34-15.42,9-25.54,23.83-28.08,8.28-1.42,8.07-1.41,8.35,7.21.12,3.93-1,5.06-4.83,5.42-9.89.9-15,7-15,17.36-.05,14-.13,28,.07,42.05.05,3.56-.78,4.69-4.37,4.59-8.09-.23-8.09,0-8.09-8.43Z" transform="translate(-75.74 -278.94)"/><path class="cls-27" d="M431.85,330.37c-4.6,0-9.26.45-13.55-1.91-2.8-4-3.21-9-4.78-13.48-.87-2.52,1.18-1.94,2.49-1.82,5.45.49,10.92.84,16.33,1.58a11.13,11.13,0,0,0,9.77-3.15c4.74-4.39,9.81-8.4,15.19-12.95,1.16,6,4.39,10.89,3.93,16.76a40.09,40.09,0,0,1-12.1,9.87Z" transform="translate(-75.74 -278.94)"/><path class="cls-28" d="M449.13,325.27a40.09,40.09,0,0,0,12.1-9.87c8.35,2.46,15.54,6.55,19.57,15,2.39,5,1.74,8.35-2,10.3-4.18,2.2-7.21,1-9.58-4.16C465.19,327.69,457.5,325.87,449.13,325.27Z" transform="translate(-75.74 -278.94)"/><path class="cls-26" d="M314.74,378.3c0,6.88-1.23,13.43-4.7,19.43-3.8,6.59-9.29,9.73-16.81,9-7.14-.69-11.89-4.58-14.31-11.41-3.74-10.49-4.15-21.06-.26-31.63,2.69-7.32,7.63-11.87,15.41-12,8-.12,14.12,3.62,17.82,11.07C314.31,367.64,314.75,372.94,314.74,378.3Z" transform="translate(-75.74 -278.94)"/><path class="cls-26" d="M535,372.85c-6,0-11.9-.12-17.84,0-2.9.08-3.95-.43-2.9-3.73,3.18-10,11.87-17.09,21.12-16.9,9,.18,17.55,7.52,20.36,17.27.77,2.64.21,3.41-2.44,3.35C547.18,372.75,541.08,372.85,535,372.85Z" transform="translate(-75.74 -278.94)"/><path class="cls-26" d="M758.46,372.85c-13.47,0-26.91,0-40.35,0-1.94,0-2.34-.61-1.9-2.57,2.26-10.12,12.1-18.34,21.75-18C748.09,352.64,757,361.45,758.46,372.85Z" transform="translate(-75.74 -278.94)"/><rect class="cls-27" x="321.86" y="38.39" width="3.08" height="1.06" rx="0.5"/></svg>