<?xml version="1.0" encoding="utf-8"?>
<!-- Generator: Adobe Illustrator 27.0.0, SVG Export Plug-In . SVG Version: 6.00 Build 0)  -->
<svg version="1.1" id="Capa_1" xmlns="http://www.w3.org/2000/svg" xmlns:xlink="http://www.w3.org/1999/xlink" x="0px" y="0px"
	 viewBox="0 0 1366 768" style="enable-background:new 0 0 1366 768;" xml:space="preserve">
<style type="text/css">
	.st0{fill:#192E35;}
	.st1{opacity:0.2;enable-background:new    ;}
	.st2{fill:#FFFFFF;}
	.st3{opacity:0.3;enable-background:new    ;}
	.st4{opacity:0.4;enable-background:new    ;}
	.st5{fill:#386FB6;}
	.st6{opacity:0.2;fill:#FFFFFF;}
	.st7{opacity:0.5;fill:#FFFFFF;}
	.st8{opacity:0.8;fill:#FFFFFF;}
	.st9{opacity:0.2;fill:#010202;enable-background:new    ;}
	.st10{opacity:0.4;fill:#FFFFFF;}
	.st11{opacity:0.7;fill:#FFFFFF;}
	.st12{opacity:0.6;fill:#FFFFFF;}
	.st13{fill:#F1887C;}
	.st14{opacity:0.2;fill:#FFFFFF;enable-background:new    ;}
	.st15{opacity:0.1;fill:#010202;enable-background:new    ;}
	.st16{opacity:0.4;fill:#FFFFFF;enable-background:new    ;}
	.st17{fill:#F1897C;}
	.st18{fill:#EB5856;}
	.st19{fill:none;stroke:#192E35;stroke-width:1.3195;stroke-linecap:round;stroke-linejoin:round;stroke-miterlimit:10;}
	.st20{fill:none;stroke:#192E35;stroke-width:5.2781;stroke-miterlimit:10;}
	.st21{opacity:0.9;fill:#FFFFFF;}
	.st22{fill:#F8C0BC;}
	.st23{fill:#EC837F;}
</style>
<g>
	<g>
		<rect x="763.91" y="646.92" class="st0" width="14.77" height="48.61"/>
	</g>
	<g class="st1">
		<rect x="763.91" y="646.92" class="st2" width="14.77" height="48.61"/>
	</g>
	<g>
		<path class="st0" d="M771.11,654.71c-22.42,0-45.04-5.38-65.88-16.55l6.98-13.02c52.87,28.34,118.67,15,156.45-31.72
			c26.52-32.77,34.78-76.29,22.09-116.42c-4-12.81-9.98-24.76-17.78-35.54c-6.46-9.01-14.16-17.16-22.91-24.25
			c-6.15-4.97-12.77-9.37-19.68-13.07l6.98-13.02c7.72,4.14,15.12,9.06,22,14.61c9.78,7.92,18.39,17.04,25.61,27.1
			c8.72,12.05,15.42,25.44,19.89,39.75c14.18,44.85,4.95,93.51-24.7,130.14C852.8,636.54,812.31,654.71,771.11,654.71z"/>
	</g>
	<g class="st3">
		<path class="st2" d="M771.11,654.71c-22.42,0-45.04-5.38-65.88-16.55l6.98-13.02c52.87,28.34,118.67,15,156.45-31.72
			c26.52-32.77,34.78-76.29,22.09-116.42c-4-12.81-9.98-24.76-17.78-35.54c-6.46-9.01-14.16-17.16-22.91-24.25
			c-6.15-4.97-12.77-9.37-19.68-13.07l6.98-13.02c7.72,4.14,15.12,9.06,22,14.61c9.78,7.92,18.39,17.04,25.61,27.1
			c8.72,12.05,15.42,25.44,19.89,39.75c14.18,44.85,4.95,93.51-24.7,130.14C852.8,636.54,812.31,654.71,771.11,654.71z"/>
	</g>
	<g>
		<path class="st0" d="M700.44,650.49c-0.59,0-1.19-0.14-1.74-0.44c-1.8-0.96-2.47-3.2-1.51-5l141.7-264.33
			c0.96-1.8,3.2-2.47,5-1.51c1.8,0.96,2.47,3.2,1.51,5L703.7,648.54C703.04,649.78,701.76,650.49,700.44,650.49z"/>
	</g>
	<g class="st4">
		<path class="st2" d="M700.44,650.49c-0.59,0-1.19-0.14-1.74-0.44c-1.8-0.96-2.47-3.2-1.51-5l141.7-264.33
			c0.96-1.8,3.2-2.47,5-1.51c1.8,0.96,2.47,3.2,1.51,5L703.7,648.54C703.04,649.78,701.76,650.49,700.44,650.49z"/>
	</g>
	<g>
		<path class="st0" d="M804.85,710.54h-67.1v-15.96c0-1.47,1.19-2.66,2.66-2.66h61.79c1.47,0,2.66,1.19,2.66,2.66V710.54z"/>
	</g>
	<g>
		<g>
			<path class="st5" d="M776.83,406.73c59.59,3.06,105.42,53.85,102.36,113.44c-3.06,59.59-53.85,105.42-113.44,102.36
				c-59.59-3.06-105.42-53.85-102.36-113.44C666.45,449.5,717.24,403.68,776.83,406.73z"/>
			<path class="st6" d="M879.19,520.18c-3.06,59.6-53.85,105.44-113.43,102.35c-23-1.16-43.98-9.46-60.83-22.65
				c-11.02-8.58-20.29-19.23-27.28-31.34c-10.05-17.41-15.37-37.85-14.27-59.43c3.06-59.58,53.85-105.44,113.45-102.38
				c9.84,0.51,19.31,2.31,28.22,5.27c11.09,3.62,21.32,8.97,30.43,15.75C863.64,448.52,881.13,482.63,879.19,520.18z"/>
			<path class="st7" d="M834.23,426.81c-0.17-0.08-0.32-0.19-0.46-0.3c-0.36-0.29-0.7-0.51-0.99-0.68
				c-4.49-2.44-3.23,6.25-7.37,8.22c-4.42,2.08-11.5-1.59-10.62-4.16c0.86-2.59-7.53-9.66-9.75-10.8c-2.22-1.14-9.28-0.45-9.65,6.8
				c-0.35,7.28,3.71,11.77,2.59,14.02c-1.09,2.27-1.13,2.92-8.58,6.5c-7.45,3.58-12.86-0.99-17.35,3.07
				c-4.49,4.05,1.33,6.33-0.48,16.17c-1.86,9.83-4.45,2.78-9.87,3.86c-5.42,1.12-2.3-5.46-1.61-9.23c0.67-3.75-4.88-5.04-7.43-5.22
				c-2.6-0.18-8.62-1.04-7.83-8.67c0.77-7.61,0.38-14.79-10.08-14.18c-5.38,0.33-8.31-7.47-9.88-15.17
				c-27.24,12.99-48.35,37.1-57.15,66.78c0.56-0.12,1.07,0.66,1.85,2.63c2.42,6.16,4.76,12.3,7.87,16.07
				c3.12,3.77,3.84,8.12,2.53,11.21c-1.31,3.04-7.68,5.02-7.78,7.02c-0.1,1.95-6.09,4.83-7.02,6.86c-0.2,0.47-0.59,0.67-1.06,0.67
				c3.79,30.25,20.12,56.81,43.95,73.97c2.66-6.98,7.34-12.53,10.53-12.69c6.61-0.34,26.96-3.58,19.47-12.56
				c-7.48-8.98-15.49-17.16-15.49-17.16s4.09-5.93,5.28-6.67c1.22-0.76-2.7-3,4.15-3.75c6.86-0.8,7.49-0.79,4.52-4.08
				c-2.96-3.29-7.63-0.79-4.48-4.97s6.59-7.33,10-2.82c3.43,4.49,1.32,7.01,2.55,8.38c1.26,1.39,11.29-0.75,11.29-0.75
				s2.64,3.67,1.52,4.49c-1.15,0.84-5.12,6.91-5.12,6.91s-1.85,4.87-3.9,6.09c-2.07,1.2,5.65,9.06,7.97,10.26
				c2.35,1.17,3.27,2.2,5.28,1.67c2.01-0.57,5.85-4.66,7.25-5.92c1.39-1.26,9.83,1.81,9.83,1.81s5.11,2.92,8.9,6.42
				c3.81,3.48,8.78,2.76,10.52,1.19c1.74-1.57,1.63-5.86,4.86-4.39c3.23,1.52,4.38,3.01,6.66,10.97
				c2.27,8.01,15.47,19.47,13.91,24.5c9.98-5.48,18.99-12.56,26.71-20.86c-9.54-3.17-13.08-6.84-14.51-8.94
				c-1.84-2.73-0.76-2.75,0.28-7.31c1.01-4.53,9.73-7.4,11.12-8.65c1.39-1.26,8.19-9.68,11.5-10.57c3.3-0.88,3.08-5.31,3.08-5.31
				s0.62,1.16,1.97-1.78c1.38-2.91-0.12-5.95,4.37-10c2.63-2.37,6.83-3.69,9.93-4.38c0.59-3.68,0.96-7.4,1.15-11.2
				c0.34-6.7,0.08-13.28-0.79-19.69l-11.71,4.46c0,0-6.92-0.06-8.18-0.77c-1.29-0.74-7.38-4.69-12.12-2.28
				c-4.76,2.39-5.21-1.6-14.06-3.05c-8.88-1.43,4.35-13.99,6.43-15.86c2.08-1.87,2.35-0.88,8.44-3.85c6.12-2.99,4.95-7.62,4.95-7.62
				s-6.39-9.3-12.7-14.29c-5.81-4.58,2.56-5.03,16.87-9.21C850.05,439.95,842.6,432.8,834.23,426.81z M794.89,563.46
				c-2.06,3.12-4.9-0.61-4.9-0.61c-8.41-2.47-9.22-9.29-6.36-11.87c2.86-2.58,4.27-11.4,8.73-7.88c4.46,3.52,11.3,7.41,11.3,7.41
				s5.02-12.7,5.16-0.88c0.14,11.82,6.93,8.21,0.14,11.82C802.16,565.07,796.95,560.34,794.89,563.46z M827.69,566.65
				c0.32,3.38-0.99,8.97-0.99,8.97l-6.46,3.31c-4.72-3.92-2.89-9.97-0.32-10.4C822.5,568.1,827.37,563.27,827.69,566.65z
				 M816.16,475.37c1.64,3.21-3.39,5.3-8.95,13.46c-5.56,8.16-8.99,1.51-8.99,1.51s-11.27-9.01-7.61-12.94
				c3.66-3.94,0.91-9.15,6.33-12.16c3.36-1.87,6.71-0.23,9.83,3.23C809.91,471.93,814.53,472.16,816.16,475.37z"/>
		</g>
		<path class="st6" d="M805.05,411.99c1.56,32.49-8.87,67.58-31.72,97.72c-25.29,33.35-60.54,53.71-95.68,58.82
			c-10.05-17.41-15.37-37.85-14.27-59.43c3.06-59.58,53.85-105.44,113.45-102.38C786.67,407.23,796.14,409.04,805.05,411.99z"/>
	</g>
	<g class="st3">
		<path class="st2" d="M804.85,710.54h-67.1v-15.96c0-1.47,1.19-2.66,2.66-2.66h61.79c1.47,0,2.66,1.19,2.66,2.66V710.54z"/>
	</g>
	<g>
		<path class="st0" d="M831.99,706.99H710.6c-1.71,0-3.1,1.39-3.1,3.1v17.06h127.6v-17.06
			C835.09,708.38,833.71,706.99,831.99,706.99z"/>
	</g>
	<g class="st4">
		<path class="st2" d="M831.99,706.99H710.6c-1.71,0-3.1,1.39-3.1,3.1v17.06h127.6v-17.06
			C835.09,708.38,833.71,706.99,831.99,706.99z"/>
	</g>
	<g>
		
			<rect x="115.63" y="575.11" transform="matrix(-1 -1.224647e-16 1.224647e-16 -1 338.8963 1196.9028)" class="st5" width="107.64" height="46.69"/>
		
			<rect x="115.63" y="575.11" transform="matrix(-1 -1.224647e-16 1.224647e-16 -1 338.8963 1196.9028)" class="st8" width="107.64" height="46.69"/>
		<polygon class="st9" points="214.63,579.68 115.63,579.68 115.63,575.11 214.53,575.11 		"/>
		<g>
			<polygon class="st9" points="214.64,583.66 125.32,585.56 214.64,587.47 			"/>
			<polygon class="st9" points="214.64,600.92 120.05,602.52 214.64,603.86 			"/>
			<polygon class="st9" points="214.64,611.02 120.89,612.92 214.64,614.81 			"/>
			<polygon class="st9" points="115.63,590.31 206.31,593.05 115.63,594.94 			"/>
		</g>
		<path class="st0" d="M355.86,598.21c-0.01,5.83-2.37,11.11-6.2,14.94c-3.83,3.83-9.12,6.2-14.97,6.2H110.66
			c-0.86,0-1.56,0.7-1.56,1.56v1.67c0,0.86,0.7,1.56,1.56,1.56h225.21c7.16,0,13.66-2.91,18.35-7.6c4.74-4.74,7.65-11.3,7.6-18.55
			c-0.11-14.37-12.25-25.76-26.62-25.76l-224.54,0c-0.86,0-1.56,0.7-1.56,1.56v1.67c0,0.86,0.7,1.56,1.56,1.56h223.42
			C345.74,577.02,355.88,586.55,355.86,598.21z"/>
		<path class="st10" d="M355.86,598.21c-0.01,5.83-2.37,11.11-6.2,14.94c-3.83,3.83-9.12,6.2-14.97,6.2H110.66
			c-0.86,0-1.56,0.7-1.56,1.56v1.67c0,0.86,0.7,1.56,1.56,1.56h225.21c7.16,0,13.66-2.91,18.35-7.6c4.74-4.74,7.65-11.3,7.6-18.55
			c-0.11-14.37-12.25-25.76-26.62-25.76l-224.54,0c-0.86,0-1.56,0.7-1.56,1.56v1.67c0,0.86,0.7,1.56,1.56,1.56h223.42
			C345.74,577.02,355.88,586.55,355.86,598.21z"/>
		<g>
			<path class="st5" d="M437.57,598.49L437.57,598.49c0,12.91-10.47,23.38-23.38,23.38H214.64v-46.76h199.56
				C427.1,575.11,437.57,585.58,437.57,598.49z"/>
			<path class="st11" d="M214.63,575.11v46.77H414.2c4.94,0,9.5-1.53,13.27-4.14c6.1-4.22,10.09-11.28,10.09-19.25
				c0-12.92-10.46-23.38-23.37-23.38H214.63z"/>
		</g>
		<g>
			<polygon class="st9" points="214.64,587.47 214.64,583.66 413.55,585.25 			"/>
			<polygon class="st9" points="214.64,603.86 214.64,600.92 303.93,604.11 			"/>
			<polygon class="st9" points="214.64,614.81 214.64,611.02 358.61,613.21 			"/>
			<path class="st9" d="M414.52,579.68c3.91,0,7.59,1.49,10.4,3.99c-1.13,2.24-2.2,4.81-2.94,7.59l-199.55,1.57l199.09,0.5
				c-0.29,1.58-0.48,3.21-0.48,4.87c0,1.96,0.26,3.9,0.67,5.77l-134.4,2.94l135.66,1.57c1.29,3.67,3.03,6.92,4.5,9.28
				c6.1-4.22,10.09-11.28,10.09-19.25c0-12.92-10.46-23.38-23.37-23.38H214.63v4.57H414.52z"/>
		</g>
		<path class="st0" d="M435.72,598.21c-0.01,5.83-2.37,11.11-6.2,14.94c-3.83,3.83-9.12,6.2-14.97,6.2H211.28
			c-0.86,0-1.56,0.7-1.56,1.56v1.67c0,0.86,0.7,1.56,1.56,1.56h204.44c7.16,0,13.66-2.91,18.35-7.6c4.74-4.74,7.65-11.3,7.6-18.55
			c-0.11-14.37-12.25-25.76-26.62-25.76l-203.78,0c-0.86,0-1.56,0.7-1.56,1.56v1.67c0,0.86,0.7,1.56,1.56,1.56h202.66
			C425.6,577.02,435.74,586.55,435.72,598.21z"/>
		<polygon class="st5" points="413.55,592.27 413.55,611.02 406.77,604.23 400.19,610.81 400.19,592.27 		"/>
	</g>
	<g>
		<g>
			
				<rect x="144.96" y="678.13" transform="matrix(-1 -1.224647e-16 1.224647e-16 -1 580.4484 1403.0115)" class="st5" width="290.52" height="46.76"/>
			
				<rect x="144.96" y="678.13" transform="matrix(-1 -1.224647e-16 1.224647e-16 -1 580.4484 1403.0115)" class="st11" width="290.52" height="46.76"/>
		</g>
		<g>
			<polygon class="st9" points="144.96,690.48 144.96,686.67 343.88,688.27 			"/>
			<polygon class="st9" points="144.96,706.88 144.96,703.94 234.26,707.13 			"/>
			<polygon class="st9" points="144.96,717.83 144.96,714.04 288.94,716.23 			"/>
			<path class="st9" d="M370.53,678.13l4.21,34.86l-4.97-5.31c-2.3,9.82-9.14,17.21-9.14,17.21s-4.62-5.74-7.33-13.41l-135.68-1.56
				l134.4-2.94c-0.4-1.88-0.66-3.81-0.66-5.78c0-1.66,0.18-3.29,0.48-4.86l-199.09-0.5l199.55-1.56c0.73-2.78,1.8-5.35,2.93-7.58
				c-2.8-2.52-6.48-3.99-10.4-3.99H144.96v-4.57H370.53z"/>
		</g>
		<path class="st5" d="M366.05,701.23c-0.01,5.83-2.37,11.11-6.2,14.94c-3.83,3.83-9.12,6.2-14.97,6.2H141.61
			c-0.86,0-1.56,0.7-1.56,1.56v1.67c0,0.86,0.7,1.56,1.56,1.56h316.25c7.16,0,13.66-2.91,18.35-7.6c4.74-4.74,7.66-11.3,7.6-18.55
			c-0.11-14.37-12.25-25.76-26.62-25.76H141.61c-0.86,0-1.56,0.7-1.56,1.56v1.67c0,0.86,0.7,1.56,1.56,1.56h202.66
			C355.92,680.04,366.06,689.57,366.05,701.23z"/>
		<path class="st9" d="M366.05,701.23c-0.01,5.83-2.37,11.11-6.2,14.94c-3.83,3.83-9.12,6.2-14.97,6.2H141.61
			c-0.86,0-1.56,0.7-1.56,1.56v1.67c0,0.86,0.7,1.56,1.56,1.56h316.25c7.16,0,13.66-2.91,18.35-7.6c4.74-4.74,7.66-11.3,7.6-18.55
			c-0.11-14.37-12.25-25.76-26.62-25.76H141.61c-0.86,0-1.56,0.7-1.56,1.56v1.67c0,0.86,0.7,1.56,1.56,1.56h202.66
			C355.92,680.04,366.06,689.57,366.05,701.23z"/>
		<path class="st5" d="M366.05,701.23c-0.01,5.83-2.37,11.11-6.2,14.94c-3.83,3.83-9.12,6.2-14.97,6.2H141.61
			c-0.86,0-1.56,0.7-1.56,1.56v1.67c0,0.86,0.7,1.56,1.56,1.56h204.44c7.16,0,13.66-2.91,18.35-7.6c4.74-4.74,7.65-11.3,7.6-18.55
			c-0.11-14.37-12.25-25.76-26.62-25.76H141.61c-0.86,0-1.56,0.7-1.56,1.56v1.67c0,0.86,0.7,1.56,1.56,1.56h202.66
			C355.92,680.04,366.06,689.57,366.05,701.23z"/>
		<polygon class="st5" points="343.88,695.29 343.88,714.04 337.09,707.25 330.52,713.83 330.52,695.29 		"/>
		<path class="st6" d="M366.05,701.23c-0.01,5.83-2.37,11.11-6.2,14.94c-3.83,3.83-9.12,6.2-14.97,6.2H141.61
			c-0.86,0-1.56,0.7-1.56,1.56v1.67c0,0.86,0.7,1.56,1.56,1.56h204.44c7.16,0,13.66-2.91,18.35-7.6c4.74-4.74,7.65-11.3,7.6-18.55
			c-0.11-14.37-12.25-25.76-26.62-25.76H141.61c-0.86,0-1.56,0.7-1.56,1.56v1.67c0,0.86,0.7,1.56,1.56,1.56h202.66
			C355.92,680.04,366.06,689.57,366.05,701.23z"/>
	</g>
	<g>
		<g>
			
				<rect x="136.4" y="626.62" transform="matrix(-1 -1.224647e-16 1.224647e-16 -1 563.3218 1299.9939)" class="st5" width="290.52" height="46.76"/>
			
				<rect x="136.4" y="626.62" transform="matrix(-1 -1.224647e-16 1.224647e-16 -1 563.3218 1299.9939)" class="st8" width="290.52" height="46.76"/>
		</g>
		<g>
			<polygon class="st9" points="136.4,638.97 136.4,635.17 335.31,636.76 			"/>
			<polygon class="st9" points="136.4,655.37 136.4,652.43 225.7,655.62 			"/>
			<polygon class="st9" points="136.4,666.32 136.4,662.53 280.38,664.72 			"/>
			<path class="st9" d="M361.97,626.62l4.21,34.86l-4.97-5.31c-2.3,9.82-9.14,17.21-9.14,17.21s-4.62-5.74-7.33-13.41l-135.68-1.56
				l134.4-2.94c-0.4-1.88-0.66-3.81-0.66-5.78c0-1.66,0.18-3.29,0.48-4.86l-199.09-0.5l199.55-1.56c0.73-2.78,1.8-5.35,2.93-7.58
				c-2.8-2.52-6.48-3.99-10.4-3.99H136.4v-4.57H361.97z"/>
		</g>
		<path class="st5" d="M357.49,649.72c-0.01,5.83-2.37,11.11-6.2,14.94c-3.83,3.83-9.12,6.2-14.97,6.2H133.04
			c-0.86,0-1.56,0.7-1.56,1.56v1.67c0,0.86,0.7,1.56,1.56,1.56h300.28c7.16,0,13.66-2.91,18.35-7.6c4.74-4.74,7.65-11.3,7.6-18.55
			c-0.11-14.37-12.25-25.76-26.62-25.76H133.04c-0.86,0-1.56,0.7-1.56,1.56v1.67c0,0.86,0.7,1.56,1.56,1.56H335.7
			C347.36,628.53,357.5,638.06,357.49,649.72z"/>
		<path class="st10" d="M357.49,649.72c-0.01,5.83-2.37,11.11-6.2,14.94c-3.83,3.83-9.12,6.2-14.97,6.2H133.04
			c-0.86,0-1.56,0.7-1.56,1.56v1.67c0,0.86,0.7,1.56,1.56,1.56h300.28c7.16,0,13.66-2.91,18.35-7.6c4.74-4.74,7.65-11.3,7.6-18.55
			c-0.11-14.37-12.25-25.76-26.62-25.76H133.04c-0.86,0-1.56,0.7-1.56,1.56v1.67c0,0.86,0.7,1.56,1.56,1.56H335.7
			C347.36,628.53,357.5,638.06,357.49,649.72z"/>
		<path class="st5" d="M357.49,649.72c-0.01,5.83-2.37,11.11-6.2,14.94c-3.83,3.83-9.12,6.2-14.97,6.2H133.04
			c-0.86,0-1.56,0.7-1.56,1.56v1.67c0,0.86,0.7,1.56,1.56,1.56h204.44c7.16,0,13.66-2.91,18.35-7.6c4.74-4.74,7.65-11.3,7.6-18.55
			c-0.11-14.37-12.25-25.76-26.62-25.76H133.04c-0.86,0-1.56,0.7-1.56,1.56v1.67c0,0.86,0.7,1.56,1.56,1.56H335.7
			C347.36,628.53,357.5,638.06,357.49,649.72z"/>
		<polygon class="st0" points="319.2,637.13 319.2,655.87 312.42,649.08 305.84,655.66 305.84,637.13 		"/>
		<path class="st12" d="M357.49,649.72c-0.01,5.83-2.37,11.11-6.2,14.94c-3.83,3.83-9.12,6.2-14.97,6.2H133.04
			c-0.86,0-1.56,0.7-1.56,1.56v1.67c0,0.86,0.7,1.56,1.56,1.56h204.44c7.16,0,13.66-2.91,18.35-7.6c4.74-4.74,7.65-11.3,7.6-18.55
			c-0.11-14.37-12.25-25.76-26.62-25.76H133.04c-0.86,0-1.56,0.7-1.56,1.56v1.67c0,0.86,0.7,1.56,1.56,1.56H335.7
			C347.36,628.53,357.5,638.06,357.49,649.72z"/>
	</g>
	<g>
		
			<rect x="136.33" y="472.09" transform="matrix(-1 -1.224647e-16 1.224647e-16 -1 380.3109 990.867)" class="st5" width="107.64" height="46.69"/>
		
			<rect x="136.33" y="472.09" transform="matrix(-1 -1.224647e-16 1.224647e-16 -1 380.3109 990.867)" class="st11" width="107.64" height="46.69"/>
		<polygon class="st9" points="235.34,476.66 136.33,476.66 136.33,472.09 235.24,472.09 		"/>
		<g>
			<polygon class="st9" points="235.34,480.64 146.02,482.54 235.34,484.45 			"/>
			<polygon class="st9" points="235.34,497.9 140.76,499.5 235.34,500.84 			"/>
			<polygon class="st9" points="235.34,508 141.6,509.9 235.34,511.79 			"/>
			<polygon class="st9" points="136.33,487.29 227.02,490.03 136.33,491.92 			"/>
		</g>
		<path class="st5" d="M376.57,495.19c-0.01,5.84-2.37,11.11-6.2,14.94c-3.83,3.83-9.12,6.2-14.97,6.2H131.37
			c-0.86,0-1.56,0.7-1.56,1.56v1.67c0,0.86,0.7,1.56,1.56,1.56h225.21c7.16,0,13.66-2.91,18.35-7.6c4.74-4.74,7.66-11.3,7.6-18.55
			c-0.11-14.37-12.25-25.76-26.62-25.76H131.37c-0.86,0-1.56,0.7-1.56,1.56v1.67c0,0.86,0.7,1.56,1.56,1.56h223.42
			C366.44,474,376.59,483.53,376.57,495.19z"/>
		<path class="st10" d="M376.57,495.19c-0.01,5.84-2.37,11.11-6.2,14.94c-3.83,3.83-9.12,6.2-14.97,6.2H131.37
			c-0.86,0-1.56,0.7-1.56,1.56v1.67c0,0.86,0.7,1.56,1.56,1.56h225.21c7.16,0,13.66-2.91,18.35-7.6c4.74-4.74,7.66-11.3,7.6-18.55
			c-0.11-14.37-12.25-25.76-26.62-25.76H131.37c-0.86,0-1.56,0.7-1.56,1.56v1.67c0,0.86,0.7,1.56,1.56,1.56h223.42
			C366.44,474,376.59,483.53,376.57,495.19z"/>
		<g>
			<path class="st5" d="M458.28,495.47L458.28,495.47c0,12.91-10.47,23.38-23.38,23.38H235.34v-46.76H434.9
				C447.81,472.09,458.28,482.56,458.28,495.47z"/>
			<path class="st7" d="M235.34,472.09v46.77h199.57c4.94,0,9.5-1.53,13.27-4.14c6.1-4.22,10.09-11.28,10.09-19.25
				c0-12.92-10.46-23.38-23.37-23.38H235.34z"/>
		</g>
		<g>
			<polygon class="st9" points="235.34,484.45 235.34,480.64 434.26,482.24 			"/>
			<polygon class="st9" points="235.34,500.84 235.34,497.9 324.64,501.1 			"/>
			<polygon class="st9" points="235.34,511.79 235.34,508 379.32,510.2 			"/>
			<path class="st9" d="M435.23,476.66c3.91,0,7.59,1.49,10.4,3.99c-1.13,2.24-2.2,4.81-2.94,7.59l-199.55,1.57l199.09,0.5
				c-0.29,1.58-0.48,3.21-0.48,4.87c0,1.96,0.26,3.9,0.67,5.77l-134.4,2.94l135.66,1.57c1.29,3.67,3.03,6.92,4.5,9.28
				c6.1-4.22,10.09-11.28,10.09-19.25c0-12.92-10.46-23.38-23.37-23.38H235.34v4.57H435.23z"/>
		</g>
		<path class="st5" d="M456.43,495.19c-0.01,5.84-2.37,11.11-6.2,14.94c-3.83,3.83-9.12,6.2-14.97,6.2H231.99
			c-0.86,0-1.56,0.7-1.56,1.56v1.67c0,0.86,0.7,1.56,1.56,1.56h204.44c7.16,0,13.66-2.91,18.35-7.6c4.74-4.74,7.66-11.3,7.6-18.55
			c-0.11-14.37-12.25-25.76-26.62-25.76H231.99c-0.86,0-1.56,0.7-1.56,1.56v1.67c0,0.86,0.7,1.56,1.56,1.56h202.66
			C446.3,474,456.44,483.53,456.43,495.19z"/>
		<polygon class="st5" points="434.26,489.26 434.26,508 427.47,501.22 420.9,507.79 420.9,489.26 		"/>
	</g>
	<g>
		<g>
			
				<rect x="144.4" y="523.6" transform="matrix(-1 -1.224647e-16 1.224647e-16 -1 579.3277 1093.958)" class="st5" width="290.52" height="46.76"/>
			
				<rect x="144.4" y="523.6" transform="matrix(-1 -1.224647e-16 1.224647e-16 -1 579.3277 1093.958)" class="st11" width="290.52" height="46.76"/>
		</g>
		<g>
			<polygon class="st9" points="144.4,535.96 144.4,532.15 343.32,533.75 			"/>
			<polygon class="st9" points="144.4,552.35 144.4,549.41 233.7,552.6 			"/>
			<polygon class="st9" points="144.4,563.3 144.4,559.51 288.38,561.7 			"/>
			<path class="st9" d="M369.97,523.6l4.21,34.86l-4.97-5.31c-2.3,9.82-9.14,17.21-9.14,17.21s-4.62-5.74-7.33-13.41l-135.68-1.56
				l134.4-2.94c-0.4-1.88-0.66-3.81-0.66-5.78c0-1.66,0.18-3.29,0.48-4.86l-199.09-0.5l199.55-1.56c0.73-2.78,1.8-5.35,2.93-7.58
				c-2.8-2.52-6.48-3.99-10.4-3.99H144.4v-4.57H369.97z"/>
		</g>
		<path class="st0" d="M365.49,546.7c-0.01,5.83-2.37,11.11-6.2,14.94c-3.83,3.83-9.12,6.2-14.97,6.2H141.05
			c-0.86,0-1.56,0.7-1.56,1.56v1.67c0,0.86,0.7,1.56,1.56,1.56h316.25c7.16,0,13.66-2.91,18.35-7.6c4.74-4.74,7.65-11.3,7.6-18.55
			c-0.11-14.37-12.25-25.76-26.62-25.76H141.05c-0.86,0-1.56,0.7-1.56,1.56v1.67c0,0.86,0.7,1.56,1.56,1.56H343.7
			C355.36,525.51,365.5,535.04,365.49,546.7z"/>
		<path class="st6" d="M365.49,546.7c-0.01,5.83-2.37,11.11-6.2,14.94c-3.83,3.83-9.12,6.2-14.97,6.2H141.05
			c-0.86,0-1.56,0.7-1.56,1.56v1.67c0,0.86,0.7,1.56,1.56,1.56h316.25c7.16,0,13.66-2.91,18.35-7.6c4.74-4.74,7.65-11.3,7.6-18.55
			c-0.11-14.37-12.25-25.76-26.62-25.76H141.05c-0.86,0-1.56,0.7-1.56,1.56v1.67c0,0.86,0.7,1.56,1.56,1.56H343.7
			C355.36,525.51,365.5,535.04,365.49,546.7z"/>
		<path class="st0" d="M365.49,546.7c-0.01,5.83-2.37,11.11-6.2,14.94c-3.83,3.83-9.12,6.2-14.97,6.2H141.05
			c-0.86,0-1.56,0.7-1.56,1.56v1.67c0,0.86,0.7,1.56,1.56,1.56h204.44c7.16,0,13.66-2.91,18.35-7.6c4.74-4.74,7.65-11.3,7.6-18.55
			c-0.11-14.37-12.25-25.76-26.62-25.76H141.05c-0.86,0-1.56,0.7-1.56,1.56v1.67c0,0.86,0.7,1.56,1.56,1.56H343.7
			C355.36,525.51,365.5,535.04,365.49,546.7z"/>
		<polygon class="st0" points="343.32,540.77 343.32,559.51 336.53,552.73 329.96,559.3 329.96,540.77 		"/>
		<path class="st10" d="M365.49,546.7c-0.01,5.83-2.37,11.11-6.2,14.94c-3.83,3.83-9.12,6.2-14.97,6.2H141.05
			c-0.86,0-1.56,0.7-1.56,1.56v1.67c0,0.86,0.7,1.56,1.56,1.56h204.44c7.16,0,13.66-2.91,18.35-7.6c4.74-4.74,7.65-11.3,7.6-18.55
			c-0.11-14.37-12.25-25.76-26.62-25.76H141.05c-0.86,0-1.56,0.7-1.56,1.56v1.67c0,0.86,0.7,1.56,1.56,1.56H343.7
			C355.36,525.51,365.5,535.04,365.49,546.7z"/>
	</g>
	<polygon class="st13" points="714.43,692.07 730.14,692.57 744.64,693.01 747.27,713.62 728.85,714.15 711.21,714.67 	"/>
	<polygon class="st9" points="714.43,692.07 730.14,692.57 728.85,714.15 711.21,714.67 	"/>
	<g>
		<path class="st5" d="M747.6,689.75c-0.63,1.57-1.43,3.07-2.39,4.47c-0.08,0.15-0.26,0.23-0.42,0.2c-0.17-0.03-0.31-0.16-0.36-0.32
			c-0.18-0.71-1.73-6.97-0.09-8.83c0.39-0.42,0.96-0.62,1.52-0.51c0.91,0.01,1.72,0.54,2.11,1.36
			C748.3,687.33,748.17,688.63,747.6,689.75z M745.07,685.88c-0.88,0.99-0.49,4.47,0.05,7c1.79-2.92,2.56-5.27,2.06-6.41
			c-0.27-0.5-0.79-0.82-1.35-0.84C745.54,685.58,745.26,685.67,745.07,685.88L745.07,685.88z"/>
		<path class="st5" d="M745.26,694.13c0.01,0.06,0,0.13-0.04,0.18c-0.11,0.09-0.26,0.13-0.41,0.11c-0.16-0.06-5.44-1.56-6.51-3.97
			c-0.26-0.64-0.23-1.36,0.08-1.97c0.29-0.71,1.03-1.14,1.8-1.03c2.06,0.32,4.78,4.32,5.16,6.46
			C745.35,694,745.32,694.08,745.26,694.13z M739.14,689.1c-0.13,0.33-0.11,0.7,0.05,1.02c0.63,1.45,3.48,2.65,5.16,3.23
			c-0.72-2-2.88-4.71-4.23-4.99c-0.25-0.05-0.6-0.01-0.88,0.55L739.14,689.1z"/>
		<path class="st12" d="M747.6,689.75c-0.63,1.57-1.43,3.07-2.39,4.47c-0.08,0.15-0.26,0.23-0.42,0.2
			c-0.17-0.03-0.31-0.16-0.36-0.32c-0.18-0.71-1.73-6.97-0.09-8.83c0.39-0.42,0.96-0.62,1.52-0.51c0.91,0.01,1.72,0.54,2.11,1.36
			C748.3,687.33,748.17,688.63,747.6,689.75z M745.07,685.88c-0.88,0.99-0.49,4.47,0.05,7c1.79-2.92,2.56-5.27,2.06-6.41
			c-0.27-0.5-0.79-0.82-1.35-0.84C745.54,685.58,745.26,685.67,745.07,685.88L745.07,685.88z"/>
		<path class="st12" d="M745.26,694.13c0.01,0.06,0,0.13-0.04,0.18c-0.11,0.09-0.26,0.13-0.41,0.11c-0.16-0.06-5.44-1.56-6.51-3.97
			c-0.26-0.64-0.23-1.36,0.08-1.97c0.29-0.71,1.03-1.14,1.8-1.03c2.06,0.32,4.78,4.32,5.16,6.46
			C745.35,694,745.32,694.08,745.26,694.13z M739.14,689.1c-0.13,0.33-0.11,0.7,0.05,1.02c0.63,1.45,3.48,2.65,5.16,3.23
			c-0.72-2-2.88-4.71-4.23-4.99c-0.25-0.05-0.6-0.01-0.88,0.55L739.14,689.1z"/>
		<path class="st0" d="M742.27,694.89l-7.36,19.79c-0.29,0.68,0.03,1.46,0.71,1.75c0.01,0,0.01,0.01,0.02,0.01l15.31,6.8
			c1.71,0.64,3.61-0.22,4.26-1.92c2.46-6.95,3.28-10.39,6.46-19.12c1.97-5.35,6.38-15.74,7.93-23.48c1.55-7.74-6.14-9.06-7.48-5.92
			c-3.21,7.43-11.95,15.92-17.7,19.44C743.43,692.85,742.67,693.79,742.27,694.89z"/>
	</g>
	<path class="st0" d="M557.92,660.23l9.13,9.42c0,0,103.98,10.02,160.38,20.21l-7.17,35.4H528.6L557.92,660.23z"/>
	<path class="st14" d="M557.92,660.23l9.13,9.42c0,0,103.98,10.02,160.38,20.21l-7.17,35.4H528.6L557.92,660.23z"/>
	<polygon class="st13" points="669.38,679.33 674.22,694.29 678.71,708.08 660.21,717.52 653.48,700.37 647.02,683.95 	"/>
	<g>
		<path class="st5" d="M682.07,709.05c-1.69-0.15-3.36-0.48-4.97-0.99c-0.17-0.04-0.29-0.18-0.31-0.35
			c-0.02-0.17,0.06-0.34,0.2-0.44c0.63-0.38,6.17-3.67,8.42-2.64c0.51,0.25,0.87,0.74,0.93,1.31c0.26,0.87-0.01,1.81-0.69,2.41
			C684.58,709.02,683.31,709.27,682.07,709.05z M685.03,705.51c-1.2-0.56-4.42,0.82-6.69,2.07c3.32,0.87,5.79,0.92,6.73,0.11
			c0.4-0.41,0.55-0.99,0.41-1.54C685.46,705.87,685.29,705.63,685.03,705.51L685.03,705.51z"/>
		<path class="st5" d="M677.19,708.08c-0.06,0.03-0.12,0.03-0.19,0.02c-0.12-0.08-0.2-0.21-0.22-0.36c0.01-0.17-0.08-5.66,1.91-7.38
			c0.53-0.44,1.23-0.62,1.91-0.49c0.77,0.07,1.39,0.66,1.51,1.42c0.29,2.07-2.75,5.83-4.69,6.81
			C677.35,708.13,677.26,708.12,677.19,708.08z M680.24,700.77c-0.35-0.03-0.7,0.1-0.96,0.34c-1.21,1.02-1.53,4.1-1.59,5.87
			c1.7-1.27,3.67-4.12,3.55-5.5c-0.02-0.26-0.17-0.57-0.79-0.69L680.24,700.77z"/>
		<path class="st12" d="M682.07,709.05c-1.69-0.15-3.36-0.48-4.97-0.99c-0.17-0.04-0.29-0.18-0.31-0.35
			c-0.02-0.17,0.06-0.34,0.2-0.44c0.63-0.38,6.17-3.67,8.42-2.64c0.51,0.25,0.87,0.74,0.93,1.31c0.26,0.87-0.01,1.81-0.69,2.41
			C684.58,709.02,683.31,709.27,682.07,709.05z M685.03,705.51c-1.2-0.56-4.42,0.82-6.69,2.07c3.32,0.87,5.79,0.92,6.73,0.11
			c0.4-0.41,0.55-0.99,0.41-1.54C685.46,705.87,685.29,705.63,685.03,705.51L685.03,705.51z"/>
		<path class="st12" d="M677.19,708.08c-0.06,0.03-0.12,0.03-0.19,0.02c-0.12-0.08-0.2-0.21-0.22-0.36
			c0.01-0.17-0.08-5.66,1.91-7.38c0.53-0.44,1.23-0.62,1.91-0.49c0.77,0.07,1.39,0.66,1.51,1.42c0.29,2.07-2.75,5.83-4.69,6.81
			C677.35,708.13,677.26,708.12,677.19,708.08z M680.24,700.77c-0.35-0.03-0.7,0.1-0.96,0.34c-1.21,1.02-1.53,4.1-1.59,5.87
			c1.7-1.27,3.67-4.12,3.55-5.5c-0.02-0.26-0.17-0.57-0.79-0.69L680.24,700.77z"/>
		<path class="st0" d="M675.6,705.44l-21.08-1.31c-0.73-0.08-1.39,0.45-1.47,1.18c0,0.01,0,0.01,0,0.02l-2.07,16.63
			c-0.11,1.82,1.26,3.39,3.07,3.52c7.36,0.34,10.89,0.13,20.17,0.64c5.69,0.34,16.91,1.55,24.77,0.79c7.86-0.76,6.89-8.5,3.5-8.88
			c-8.04-0.92-18.7-6.83-23.73-11.31C677.88,705.95,676.77,705.5,675.6,705.44z"/>
	</g>
	<polygon class="st9" points="669.38,679.33 674.22,694.29 653.48,700.37 647.02,683.95 	"/>
	<path class="st13" d="M612.49,575.23l-5.1-1.43c-1.92-0.54-3.98-0.11-5.52,1.14l-7.24,5.84c-2.9,2.33-4.48,5.93-4.26,9.64l0.14,2.3
		c8.29,2.94,19.42,0.02,19.42,0.02l3.27-0.48c2.91-0.43,4.86-2.93,4.48-5.75l-0.87-6.48C616.5,577.77,614.78,575.87,612.49,575.23z"
		/>
	<path class="st15" d="M612.49,575.23l-5.1-1.43c-1.92-0.54-3.98-0.11-5.52,1.14l-7.24,5.84c-2.9,2.33-4.48,5.93-4.26,9.64l0.14,2.3
		c8.29,2.94,19.42,0.02,19.42,0.02l3.27-0.48c2.91-0.43,4.86-2.93,4.48-5.75l-0.87-6.48C616.5,577.77,614.78,575.87,612.49,575.23z"
		/>
	<path class="st0" d="M455.3,674.2c0,0-6.7,51.06,55.03,51.06c63.59,0,57.8-43.58,45.15-69.48L455.3,674.2z"/>
	<path class="st16" d="M455.3,674.2c0,0-6.7,51.06,55.03,51.06c63.59,0,57.8-43.58,45.15-69.48L455.3,674.2z"/>
	<path class="st13" d="M526.15,549.76l19.32,11.34c6.41,3.73,12.91,7.5,19.1,10.51c0.79,0.41,1.5,0.71,2.23,1.05l1.09,0.5l0.93,0.35
		c0.65,0.28,1.21,0.45,1.73,0.61c0.54,0.19,1.42,0.31,2.11,0.51c3.2,0.66,6.87,1.09,10.52,1.57c7.33,0.88,14.93,1.72,22.46,2.8
		l0.1,0.01c2.95,0.43,5,3.17,4.57,6.12c-0.33,2.28-2.06,4.03-4.18,4.5c-7.72,1.71-15.38,2.84-23.3,3.43
		c-3.98,0.31-7.94,0.44-12.32,0.27c-1.19-0.09-2.22-0.14-3.54-0.34l-1.99-0.33c-0.63-0.14-1.21-0.31-1.82-0.47l-1.8-0.5l-1.57-0.53
		c-1.05-0.36-2.12-0.72-3.07-1.1c-7.82-3.06-14.75-6.56-21.69-10.22c-6.9-3.71-13.53-7.57-20.17-11.8
		c-5.01-3.19-6.48-9.83-3.3-14.84c3.11-4.89,9.53-6.41,14.49-3.51L526.15,549.76z"/>
	<path class="st15" d="M526.15,548.01l19.32,11.34c6.41,3.73,12.91,7.5,19.1,10.51c0.79,0.41,1.5,0.71,2.23,1.05l1.09,0.5l0.93,0.35
		c0.65,0.28,1.21,0.45,1.73,0.61c0.54,0.19,1.42,0.31,2.11,0.51c3.2,0.66,6.87,1.09,10.52,1.57c7.33,0.88,14.93,1.72,22.46,2.8
		l0.1,0.01c2.95,0.43,5,3.17,4.57,6.12c-0.33,2.28-2.06,4.03-4.18,4.5c-7.72,1.71-15.38,2.84-23.3,3.43
		c-3.98,0.31-7.94,0.44-12.32,0.27c-1.19-0.09-2.22-0.14-3.54-0.34l-1.99-0.33c-0.63-0.14-1.21-0.31-1.82-0.47l-1.8-0.5l-1.57-0.53
		c-1.05-0.36-2.12-0.71-3.07-1.1c-7.82-3.06-14.75-6.56-21.69-10.22c-6.9-3.71-13.53-7.57-20.17-11.8
		c-5.01-3.19-6.48-9.83-3.3-14.84c3.11-4.89,9.53-6.41,14.49-3.51L526.15,548.01z"/>
	<g>
		<path class="st5" d="M559.01,566.11l-12.51,25.31c0,0-0.17-0.02-0.49-0.1c-0.15-0.02-0.37-0.07-0.62-0.1v-0.02h-0.1
			c0,0-0.02-0.02-0.05-0.02c-0.81-0.15-1.99-0.39-3.45-0.76c-0.44-0.07-0.94-0.2-1.43-0.32c-0.1-0.05-0.22-0.07-0.34-0.1
			c-0.49-0.12-1.01-0.25-1.53-0.39c-0.66-0.17-1.33-0.37-2.02-0.57c-3.77-1.06-8.03-2.49-11.65-4.24c-0.62-0.34-1.26-0.66-1.82-1.01
			c-1.28-0.69-2.41-1.45-3.35-2.24c-0.17-0.12-0.3-0.27-0.42-0.42c-0.1-0.07-0.2-0.17-0.3-0.27c-0.17-0.17-0.37-0.42-0.52-0.64
			c-0.12-0.15-0.25-0.32-0.37-0.49c-0.1-0.12-0.17-0.25-0.27-0.42c-0.17-0.27-0.37-0.54-0.54-0.86c-0.17-0.32-0.35-0.66-0.54-1.01
			c-0.17-0.34-0.34-0.71-0.52-1.08c-0.05-0.07-0.07-0.2-0.12-0.3v-0.02c-0.15-0.27-0.25-0.54-0.37-0.81
			c-0.15-0.39-0.32-0.79-0.47-1.23c-0.15-0.42-0.32-0.81-0.44-1.23c-0.15-0.47-0.32-0.91-0.44-1.35
			c-3.79-12.41-9.33-28.71-2.76-28.71c22.19,0,38.86,15.98,45.41,21.62C558.3,565.45,559.01,566.11,559.01,566.11z"/>
		<path class="st9" d="M545.39,591.2h-0.1c0,0-0.02-0.02-0.05-0.02c-0.81-0.15-1.99-0.39-3.45-0.76c-0.44-0.07-0.94-0.2-1.43-0.32
			c-0.1-0.05-0.22-0.07-0.34-0.1c-0.49-0.12-1.01-0.25-1.53-0.39c-0.66-0.17-1.33-0.37-2.02-0.57c-3.77-1.06-8.03-2.49-11.65-4.24
			c-0.62-0.34-1.26-0.66-1.82-1.01c-1.28-0.69-2.41-1.45-3.35-2.24c-0.17-0.12-0.3-0.27-0.42-0.42c-0.1-0.07-0.2-0.17-0.3-0.27
			c-0.17-0.17-0.37-0.42-0.52-0.64c-0.12-0.15-0.25-0.32-0.37-0.49c-0.1-0.12-0.17-0.25-0.27-0.42c-0.17-0.27-0.37-0.54-0.54-0.86
			c-0.17-0.32-0.35-0.66-0.54-1.01c-0.17-0.34-0.34-0.71-0.52-1.08c-0.05-0.07-0.07-0.2-0.12-0.3v-0.02l5.07-23.32
			c0,0,19.35,14.97,24.21,38.27C545.37,591.05,545.39,591.13,545.39,591.2z"/>
	</g>
	<g>
		<path class="st5" d="M447.87,680.03c0,0-10.64-81.73-7.09-99.39c3.55-17.66,10.41-42.1,70.82-37.95c0,0,23.11,2.32,26.35,27.68
			c3.24,25.36,19.98,89.87,19.98,89.87L447.87,680.03z"/>
		<path class="st12" d="M557.93,660.22l-110.04,19.82c0,0-10.66-81.78-7.09-99.38c3.03-15.07,8.45-35.11,47.57-38.04
			c6.7-0.52,14.41-0.52,23.25,0.1c0,0,21,2.09,25.76,24.28c0.25,1.08,0.44,2.19,0.59,3.37c0.96,7.46,3.08,18.3,5.59,29.89
			c0.17,0.81,0.37,1.65,0.57,2.49c0.39,1.87,0.81,3.77,1.23,5.69c1.08,4.73,2.17,9.48,3.27,14.08c0.37,1.58,0.74,3.15,1.11,4.68
			c0.22,1.06,0.49,2.09,0.74,3.13C554.53,647.12,557.93,660.22,557.93,660.22z"/>
	</g>
	<path class="st9" d="M548.62,622.52c-66.98,14.55-91.01-31.52-91.01-31.52s2.51-4.7,6.23-9.95c1.6,1.9,3.37,3.67,5.39,5.27
		c8.3,6.55,18.89,9.8,28.81,13.05c13.05,4.31,30.71,6.16,46.07,3.37c0.39,1.87,0.81,3.77,1.23,5.69
		C546.43,613.17,547.51,617.92,548.62,622.52z"/>
	<g>
		<path class="st17" d="M477.13,579.81c15.06,8.82,31.09,17.11,48.14,21.12c0,0-2.05-0.12-2.05-0.12c1.69-0.06,3.48-0.29,5.19-0.61
			c11.06-2.27,21.85-6.07,32.66-9.56c4.44-1.46,8.92-2.98,13.35-4.4c2.84-0.95,5.91,0.61,6.82,3.46c0.75,2.35-0.21,4.84-2.18,6.13
			c-4.09,2.67-8.21,5.07-12.42,7.43c-12,6.49-24.37,12.93-37.78,16.21c-0.64,0.18-1.5,0.29-2.29,0.41
			c-0.84,0.09-2.79,0.48-3.61,0.33c0,0-0.86-0.12-0.86-0.12c-20.41-2.91-39.45-11.24-56.69-22.25
			C453.89,589.56,464.9,572.63,477.13,579.81L477.13,579.81z"/>
	</g>
	<path class="st5" d="M445.33,571.42c0.6-6.99,7.42-20.67,27.52-24.28l6.85,8.21c0,0-1.67,11.29,3.02,14.31
		c13.57,8.76,26.22,20.92,26.22,20.92l-12.17,28.04C496.76,618.63,442.34,606.45,445.33,571.42z"/>
	<path class="st5" d="M478.14,543.87c-7.67,1.32-8.45,4.24-5.69,7.82c2.76,3.57,17.04,11.57,30.2,4.65
		C515.79,549.41,509.32,538.49,478.14,543.87z"/>
	<path class="st5" d="M537.37,567c-12.66-13.4-31.52-17.66-31.52-17.66s-31.59,0.44-17.48-6.72c6.7-0.52,14.41-0.52,23.25,0.1
		C511.61,542.72,532.61,544.81,537.37,567z"/>
	<g>
		<path class="st13" d="M468.48,514.18c0,0,3.98,8.81,5.79,17.91c0.91,4.38,1.3,8.78,0.59,12.54c0,0-3,7.94,10.65,10.3
			c8.11,1.4,20.33-0.51,20.33-8.52l-5.68-0.85c0,0-0.18-0.41-0.42-1.14c-1.09-3.15-3.64-13.29,4.4-19.6
			C515.21,516.11,468.48,514.18,468.48,514.18z"/>
		<path class="st9" d="M468.48,514.18c0,0,3.98,8.81,5.79,17.91c7.35,6.3,16.09,11.84,25.47,12.34c-1.09-3.15-3.64-13.29,4.4-19.6
			C515.21,516.11,468.48,514.18,468.48,514.18z"/>
	</g>
	<g>
		<path class="st0" d="M522.09,469.97c0,0,10.84,10.89,4.54,25.02c-6.3,14.13-23.38-17.65-23.38-17.65L522.09,469.97z"/>
		<path class="st13" d="M461.94,494.86c4.13,20.13,5.39,32.11,18.3,40.93c19.45,13.33,46.38,0.27,49.11-20.73
			c2.55-18.91-4.68-48.6-28.12-53.68C477.8,456.3,457.82,474.76,461.94,494.86z"/>
		<path class="st0" d="M497.78,502.38c0.11,2.05,1.3,3.67,2.65,3.57c1.35-0.1,2.32-1.81,2.2-3.86c-0.11-2.05-1.31-3.64-2.65-3.57
			C498.64,498.59,497.66,500.33,497.78,502.38z"/>
		<path class="st0" d="M518.48,497.71c0.11,2.05,1.3,3.67,2.65,3.57c1.35-0.1,2.32-1.81,2.2-3.86c-0.11-2.05-1.31-3.64-2.65-3.57
			C519.34,493.91,518.37,495.66,518.48,497.71z"/>
		<path class="st0" d="M501.4,487.38c0.15-0.2,0.25-0.44,0.27-0.69c-0.04-0.66-0.61-1.17-1.27-1.15c-3.89,0.07-7.5,2.05-9.65,5.29
			c-0.34,0.57-0.15,1.31,0.43,1.65l0,0c0.58,0.31,1.29,0.12,1.65-0.43l0,0c1.77-2.55,4.67-4.07,7.77-4.06
			C500.94,487.9,501.23,487.68,501.4,487.38z"/>
		<path class="st0" d="M526.69,484.85c0.24-0.07,0.46-0.21,0.63-0.4c0.36-0.56,0.2-1.31-0.35-1.68c-3.19-2.23-7.27-2.76-10.92-1.4
			c-0.61,0.27-0.89,0.98-0.63,1.59l0,0c0.29,0.59,0.98,0.86,1.59,0.63l0,0c2.93-1.02,6.17-0.53,8.67,1.3
			C526.01,485,526.38,484.99,526.69,484.85z"/>
		<path class="st18" d="M513.93,503.59l6.24,4.28c0,0-1.4,2.52-7.05,3.48L513.93,503.59z"/>
		<path class="st0" d="M455.72,485.53c-1.48,3.43-2.58,9.04-1.22,17.95c2.79,18.32,17.21,23.84,17.21,23.84l5.13-15.95
			c0,0,10.52-3.23,10.52-20.55c0-5.85-2.62-8.02-2.62-8.02L455.72,485.53z"/>
		<path class="st13" d="M480.53,506.59c0,0-5.32-11.23-11.07-7.43c-5.75,3.8-3.91,22.79,4.84,22.47
			C483.05,521.31,484.71,512.57,480.53,506.59z"/>
		<path class="st19" d="M514.35,518.39c0,0-13.85,0.79-20.73-6.93"/>
		<path class="st0" d="M484.74,482.8c0,0,5.73,2.78,9.63,0.93s-0.74-6.4-0.74-6.4s7.72,3.41,13.24,1.79
			c5.52-1.62,1.67-8.43,1.67-8.43s5.31,4.86,9.94,5.51c4.63,0.65,3.62-6.22,3.62-6.22s5.56,3.68,7.75,0
			c2.19-3.68-8.42-8.23-8.42-8.23s4.6,1.11,5.25-2.53c0.65-3.64-9.41-7.86-19.23-6.08c0,0,0.89-2.27-0.9-4.38
			c-1.79-2.11-16.72-2.11-22.73,2.44c0,0,0.16-2.73-5.2-3.8c-5.36-1.07-11.69,10.62-11.69,10.62s-8.09-0.18-11.48,3.38
			c-3.39,3.55,3.04,4.46,3.04,4.46s-9.32,3.64-10.88,12.63c-1.55,8.98,5.14,5.26,5.14,5.26s-3.68,6.83-1.08,12.44
			c2.6,5.61,21.27-8.1,21.27-8.1s-0.06,6.46,4.14,5.79C484.74,492.62,484.74,482.8,484.74,482.8z"/>
	</g>
	<line class="st20" x1="567.06" y1="556.34" x2="592.78" y2="590.84"/>
	<path class="st13" d="M590.51,577.3l-5.25-0.67c-1.97-0.25-3.95,0.46-5.3,1.92l-6.32,6.83c-2.53,2.73-3.58,6.51-2.81,10.15
		l0.47,2.25c8.63,1.71,19.22-2.8,19.22-2.8l3.16-0.95c2.81-0.85,4.38-3.61,3.6-6.34l-1.8-6.29
		C594.85,579.24,592.87,577.6,590.51,577.3z"/>
	<g>
		<path class="st0" d="M549.75,623.56c0,0,11.13-15.08,21.54-25.78c10.41-10.7,24.78-16.94,34.52-10.41c0,0,7.06-5.52,14.37-4.49
			c7.31,1.03,20.09,19.33,20.09,19.33l-12.26,6.54l-43.99,16.08l-27.46,16.37L549.75,623.56z"/>
		<path class="st21" d="M640.27,602.21l-12.26,6.55l-43.98,16.08l-27.46,16.37l-6.82-17.66c0,0,11.13-15.07,21.55-25.78
			c4.09-4.19,8.79-7.71,13.57-10.02c7.41-3.6,15.02-4.36,20.95-0.39c0,0,7.07-5.52,14.36-4.48c3.92,0.54,9.38,6.03,13.62,11.03
			C637.49,598.24,640.27,602.21,640.27,602.21z"/>
		<path class="st15" d="M633.79,593.91l-3.13,10.66l-23.64,3.45h-36.44l-2.27-3.87c0,0,8.59-10.47,16.55-16.4
			c7.41-3.6,15.02-4.36,20.95-0.39c0,0,7.07-5.52,14.36-4.48C624.09,583.42,629.56,588.91,633.79,593.91z"/>
		<path class="st5" d="M644.77,602.21l-18.49,14.82l-70.42,27.55l-0.66,0.27l-6.89-13.89l20.63-24.3c0,0,18.59-22.88,38.59-15.83
			c0,0,13.17-5.86,22.06-3.47c0.07,0.02,0.15,0.05,0.22,0.07C638.54,589.97,644.77,602.21,644.77,602.21z"/>
		<path class="st9" d="M644.77,602.21l-18.49,14.82l-70.42,27.55l53.36-51.91c7.56-4.16,14.48-5.54,20.59-5.24
			C638.54,589.97,644.77,602.21,644.77,602.21z"/>
	</g>
	<path class="st0" d="M495.62,671.77c0,0,81.06-79.33,114.74-76.89c33.69,2.44,65.88,93.5,65.88,93.5l-29.27,11.52
		c0,0-36.53-47.06-40.91-47.06c-4.38,0-33.44,45.17-48.14,57.9C543.23,723.46,530.1,725.5,524,725.5c-6.1,0-11.24,0-11.24,0
		L495.62,671.77z"/>
	<path class="st16" d="M495.62,671.77c0,0,81.06-79.33,114.74-76.89c33.69,2.44,65.88,93.5,65.88,93.5l-29.27,11.52
		c0,0-36.53-47.06-40.91-47.06c-4.38,0-33.44,45.17-48.14,57.9C543.23,723.46,530.1,725.5,524,725.5c-6.1,0-11.24,0-11.24,0
		L495.62,671.77z"/>
	<g>
		<path class="st22" d="M223.89,332.63c-1.23,14.38-2.98,28.71-6.43,42.78c-2.3,8.04-7.16,15.03-11.85,21.69
			c-4.42,5.96-9,11.53-14.23,16.82c-4.02,3.97-10.53-0.68-8.13-5.75c5.41-11.55,11.93-22.66,15.85-34.7
			c0.93-3.79,1.08-7.46,1.55-11.34c1-10.14,1.95-21.37,3.19-31.43c0.66-5.54,5.71-9.49,11.24-8.8
			C220.43,322.56,224.27,327.32,223.89,332.63L223.89,332.63z"/>
	</g>
	<path class="st0" d="M210.79,319.09c-13.06,9.16-14.89,33.11-14.89,33.11l23.78,5.52L210.79,319.09z"/>
	<g>
		<path class="st0" d="M309.44,415.68c0,0-10.64-73.89-19.59-88.19c-8.95-14.3-22.92-33.64-70.54-15.41c0,0-17.97,7.6-11.89,30.17
			c6.08,22.57,14.65,82.03,14.65,82.03L309.44,415.68z"/>
		<path class="st12" d="M207.41,342.24c1.8,6.65,3.8,16.47,5.74,27.03c0.44,2.44,0.89,4.96,1.34,7.47
			c1.02,5.81,2.01,11.67,2.91,17.18c0.17,0.96,0.31,1.93,0.47,2.87c2.46,15.41,4.21,27.49,4.21,27.49l87.37-8.58
			c0,0-10.65-73.92-19.59-88.19c-8.95-14.3-22.91-33.65-70.53-15.41C219.32,312.09,201.34,319.67,207.41,342.24z"/>
	</g>
	<polygon class="st22" points="156.39,521.55 172.38,564.05 183.57,557.02 175.06,513.81 	"/>
	<path class="st5" d="M304.52,406.65l-84.92,1.15v8.91c0,0-61.8,3.6-79.34,21.13c-17.53,17.53,19.45,102.42,19.45,102.42l22.07-3.55
		l-5.31-68.12c0,0,54.13,5.37,72.24,5.37C287.68,473.96,304.52,406.65,304.52,406.65z"/>
	<path class="st0" d="M165.08,555.57l18.58-5.19c0.64-0.21,1.33,0.14,1.54,0.78c0,0.01,0,0.01,0.01,0.02l5.01,14.46
		c0.45,1.6-0.48,3.27-2.07,3.73c-6.51,1.71-9.71,2.19-17.9,4.41c-5.02,1.39-14.82,4.61-21.98,5.42c-7.16,0.82-7.78-6.29-4.82-7.26
		c7.01-2.35,15.41-9.66,19.05-14.63C163.14,556.47,164.05,555.85,165.08,555.57z"/>
	<path class="st5" d="M156.66,560.08c-0.72-0.41-1.14-1.2-1.07-2.02c-0.05-0.52,0.17-1.03,0.59-1.35c1.81-1.35,7.4,0.53,8.03,0.76
		c0.14,0.06,0.24,0.2,0.26,0.36c0.02,0.16-0.07,0.31-0.21,0.37c-1.35,0.76-2.77,1.38-4.25,1.83
		C158.93,560.47,157.74,560.48,156.66,560.08z M156.67,557.43c-0.2,0.15-0.31,0.41-0.28,0.66c-0.02,0.52,0.23,1.01,0.66,1.3
		c1,0.54,3.19,0.03,5.99-1.38C160.78,557.32,157.64,556.71,156.67,557.43L156.67,557.43z"/>
	<path class="st5" d="M163.96,558.3c-1.92-0.51-5.35-3.29-5.49-5.2c-0.04-0.7,0.4-1.35,1.08-1.56c0.58-0.24,1.24-0.21,1.8,0.08
		c2.11,1.16,3.07,6.08,3.11,6.23c0.01,0.13-0.03,0.27-0.13,0.36c-0.05,0.03-0.11,0.04-0.17,0.02
		C164.11,558.28,164.04,558.31,163.96,558.3z M159.87,552.35c-0.53,0.22-0.6,0.53-0.57,0.76c0.16,1.25,2.46,3.42,4.22,4.23
		c-0.39-1.57-1.27-4.26-2.54-4.94c-0.28-0.17-0.61-0.21-0.92-0.12L159.87,552.35z"/>
	<path class="st9" d="M304.52,406.65l-84.92,1.15v8.91c0,0-61.8,3.6-79.34,21.13c-17.53,17.53,19.45,102.42,19.45,102.42l22.07-3.55
		l-5.31-68.12c0,0,54.13,5.37,72.24,5.37C287.68,473.96,304.52,406.65,304.52,406.65z"/>
	<polygon class="st22" points="179.21,521.31 186.69,566.1 199.03,561.36 199.03,517.32 	"/>
	<g>
		<path class="st0" d="M182.82,562.75l17.2-8.73c0.59-0.33,1.33-0.13,1.66,0.46c0,0.01,0.01,0.01,0.01,0.02l7.75,13.2
			c0.75,1.48,0.17,3.3-1.3,4.07c-6.05,2.95-9.09,4.06-16.69,7.84c-4.65,2.35-13.62,7.42-20.49,9.63c-6.86,2.21-8.86-4.64-6.15-6.18
			c6.42-3.68,13.21-12.5,15.81-18.08C181.1,564.01,181.87,563.23,182.82,562.75z"/>
		<path class="st5" d="M175.45,568.83c-0.79-0.26-1.35-0.95-1.45-1.77c-0.15-0.5-0.03-1.04,0.31-1.43c1.51-1.68,7.36-0.93,8.02-0.83
			c0.15,0.04,0.28,0.15,0.33,0.3c0.05,0.15-0.01,0.31-0.13,0.41c-1.17,1.01-2.45,1.9-3.81,2.63
			C177.75,568.76,176.59,569.01,175.45,568.83z M174.94,566.23c-0.17,0.19-0.23,0.46-0.15,0.7c0.08,0.51,0.42,0.95,0.9,1.14
			c1.08,0.34,3.14-0.6,5.61-2.53C178.94,565.31,175.74,565.32,174.94,566.23L174.94,566.23z"/>
		<path class="st5" d="M182.26,565.65c-1.98-0.13-5.89-2.18-6.4-4.02c-0.18-0.68,0.13-1.4,0.75-1.74c0.52-0.35,1.17-0.45,1.78-0.28
			c2.29,0.72,4.21,5.36,4.27,5.5c0.04,0.13,0.02,0.27-0.05,0.38c-0.05,0.04-0.1,0.06-0.16,0.05
			C182.4,565.6,182.34,565.64,182.26,565.65z M177.08,560.61c-0.48,0.32-0.49,0.64-0.41,0.86c0.4,1.2,3.08,2.87,4.97,3.32
			c-0.69-1.46-2.08-3.93-3.46-4.35c-0.3-0.11-0.64-0.09-0.93,0.06L177.08,560.61z"/>
	</g>
	<path class="st5" d="M308.07,406.65c0,0,15.98,53.43-19.75,63.74c-35.73,10.31-83.8-1.8-83.8-1.8l-2.86,67.8l-22.57,0.36
		c0,0-19.88-70.62-14.82-92.33c5.07-21.71,79.42-28.2,79.42-28.2l0.35-9.57H308.07z"/>
	<path class="st22" d="M211.85,406.73l4.57-1.93c1.72-0.73,3.68-0.58,5.27,0.4l7.42,4.57c2.97,1.83,4.86,4.97,5.09,8.45l0.14,2.15
		c-7.36,3.72-18.04,2.31-18.04,2.31l-3.09-0.06c-2.75-0.06-4.86-2.15-4.84-4.81l0.04-6.13C208.42,409.57,209.79,407.6,211.85,406.73
		z"/>
	<g>
		<path class="st22" d="M284.06,334.6c5.45,19.08,6.25,41.81-3.92,59.52c-7.26,10.48-34.15,21.97-46.46,26.23
			c-5.47,1.78-9.16-5.51-4.53-8.87c6.49-4.6,13.23-9.13,19.65-13.8c5.69-4.23,12.04-8.53,16.47-13.82c0,0-1.09,1.58-1.09,1.58
			c0.71-1.56,1.33-3.18,1.84-4.88c3.54-12.57,1.9-26.24-0.91-38.9c0,0-0.3-1.23-0.3-1.23l-0.13-0.54
			C261.99,327.12,279.86,322.26,284.06,334.6L284.06,334.6z"/>
	</g>
	<g>
		<path class="st5" d="M128.66,423.04v5.81c0,1.49,1.75,2.1,3.23,2.1h116.03c1.49,0,3.28-0.61,3.28-2.1v-5.81H128.66z"/>
		<path class="st16" d="M128.66,423.04v5.81c0,1.49,1.75,2.1,3.23,2.1h116.03c1.49,0,3.28-0.61,3.28-2.1v-5.81H128.66z"/>
		<path class="st9" d="M128.66,423.04v5.81c0,1.49,1.75,2.1,3.23,2.1h76.53c1.49,0,3.26-0.61,3.26-2.1v-5.81H128.66z"/>
		<path class="st5" d="M109.25,362.76l13.81,62.65c0.45,2.06,2.46,3.56,4.49,3.56h75.45c2.01,0,3.3-1.87,2.83-3.94l-13.8-62.17
			c-0.47-2.05-2.46-3.06-4.48-3.06H112.1C110.07,359.8,108.8,360.72,109.25,362.76z"/>
		<path class="st16" d="M109.25,362.76l13.81,62.65c0.45,2.06,2.46,3.56,4.49,3.56h72.89c2.03,0,3.3-1.87,2.85-3.94l-13.81-62.17
			c-0.45-2.05-2.46-3.06-4.48-3.06H112.1C110.07,359.8,108.8,360.72,109.25,362.76z"/>
		<path class="st9" d="M146.45,394.6v0.02c0,5.36,5.75,9.72,9.97,9.72c4.22,0,6.71-4.36,5.51-9.72c-1.2-5.26-5.4-9.54-9.52-9.71
			c1.2,5.36-1.37,9.71-5.57,9.71C146.74,394.62,146.45,394.62,146.45,394.6z"/>
	</g>
	<path class="st0" d="M228.66,327.52c0,0-15.4-11.69-6.17-26.38c5.25-8.36,46.03-15.54,52.52-6.8c6.49,8.74,1.79,17.67,1.79,17.67
		s-8.14-0.17-13.89,0C257.15,312.18,245.9,329.69,228.66,327.52z"/>
	<g>
		<path class="st22" d="M244.87,276.35c0,0-0.23,8.7,1.44,16.87c0.77,3.95,2.99,11.44,8.4,14.47c0,0-1.19,6.36-10.22,12.03
			c-6.93,4.36-13.04,5.96-15.59,4.37c-2.27-1.42,0.62-10.68,0.62-10.68s0.01-0.4-0.05-1.09c-0.19-2.99-1.62-12.29-10.48-14.72
			C206.79,294.23,244.87,276.35,244.87,276.35z"/>
		<path class="st9" d="M244.87,276.35c0,0-0.23,8.7,1.44,16.87c-3.91,7.78-9.22,15.42-16.83,19.11
			c-0.19-2.99-1.62-12.29-10.48-14.72C206.79,294.23,244.87,276.35,244.87,276.35z"/>
	</g>
	<g>
		<path class="st0" d="M187.65,251.07c0,0-6.33,12.62,3.22,23.14c9.56,10.52,15.33-22.12,15.33-22.12L187.65,251.07z"/>
		<path class="st22" d="M247.29,255.52c2.18,18.75,4.52,29.57-4.22,40.98c-13.14,17.22-40.4,13.55-48.81-3.99
			c-7.66-15.77-9.87-43.75,9.12-54.92C222.38,226.43,245.11,236.79,247.29,255.52z"/>
		<path class="st0" d="M209.4,260.92c-0.17-0.12-0.3-0.28-0.39-0.46c-0.13-0.52,0.17-1.06,0.69-1.21c3.01-0.93,6.29-0.32,8.76,1.63
			c0.41,0.36,0.44,0.97,0.09,1.38v0c-0.37,0.38-0.97,0.42-1.38,0.09l0,0c-2.01-1.51-4.62-1.94-7.01-1.16
			C209.89,261.21,209.61,261.11,209.4,260.92z"/>
		<path class="st0" d="M188.29,268.01c-0.21,0.01-0.41-0.05-0.59-0.15c-0.42-0.34-0.48-0.95-0.15-1.38
			c1.89-2.52,4.89-3.96,8.04-3.84c0.54,0.05,0.93,0.52,0.88,1.06v0c-0.07,0.52-0.53,0.91-1.06,0.88l0,0
			c-2.51-0.04-4.88,1.15-6.34,3.19C188.85,267.96,188.57,268.04,188.29,268.01z"/>
		<path class="st23" d="M202.85,279.2l-3.72,4.87c0,0,1.71,1.58,6.31,0.89L202.85,279.2z"/>
		<g>
			<path class="st0" d="M205.15,291.43c2.16,2.13,5.15,6.52,5.15,6.52c0.45-0.2,0.89-0.4,1.33-0.62c5.99-2.86,7.82-6.17,8.03-8.96
				c0.11-1.53-0.28-2.92-0.74-3.98c-0.52-1.24-1.17-2-1.17-2c-2.27,3.41-7.64,6.51-10.58,8.05
				C205.95,291.07,205.15,291.43,205.15,291.43z"/>
			<path class="st2" d="M207.17,290.42l1.57,1.88c5.63-2.71,9.23-5.37,10.18-7.93c-0.52-1.24-1.17-2-1.17-2
				C215.49,285.79,210.11,288.89,207.17,290.42z"/>
			<path class="st18" d="M211.63,297.32c5.99-2.86,7.82-6.17,8.03-8.96c-2,1.05-4.3,2.55-6.02,4.5
				C212.33,294.34,211.8,295.91,211.63,297.32z"/>
		</g>
		<path class="st0" d="M221.1,228.2c-0.42,0.1-0.85,0.08-1.28,0.11l1.54,22.76c0,7.47,6.32,12.56,6.32,12.56
			c3.25,8.54,9.86,12.25,9.86,12.25c8.82-0.19,9.8,13.09,9.8,13.09C263.16,280.31,261.05,218.5,221.1,228.2z"/>
		<path class="st22" d="M234.43,271.09c0,0,1.41-11.33,7.53-9.66c6.11,1.67,9.95,18.76,2.23,21
			C236.46,284.66,232.51,277.51,234.43,271.09z"/>
		<g>
			<path class="st0" d="M211.07,273.31c0.63,1.82,2.12,2.95,3.33,2.53c1.21-0.42,1.68-2.23,1.05-4.05
				c-0.63-1.82-2.12-2.95-3.33-2.53C210.91,269.68,210.44,271.49,211.07,273.31z"/>
			<path class="st0" d="M212.65,269.17l-4.49-0.18C208.17,268.99,211.29,271.63,212.65,269.17z"/>
		</g>
		<g>
			<path class="st0" d="M193.43,277.36c0.63,1.82,2.12,2.95,3.33,2.53c1.21-0.42,1.68-2.23,1.05-4.05
				c-0.63-1.82-2.12-2.95-3.33-2.53C193.28,273.73,192.8,275.55,193.43,277.36z"/>
			<path class="st0" d="M195.02,273.23l-4.49-0.18C190.53,273.05,193.65,275.69,195.02,273.23z"/>
		</g>
		<path class="st0" d="M197.08,253.93c-1.7,2.57-2.04,7.94-2.03,11.99c3.16-0.46,6.71-1.01,10.38-1.64
			c-1.36-8.74,0.24-12.01,0.24-12.01c-0.06,4.33,1.65,9.01,2.71,11.49c2.83-0.51,5.68-1.07,8.41-1.66
			c-1.32-4.85-1.06-10.68-1.06-10.68c0.76,3.74,3.81,7.56,5.68,9.62c0.45-0.11,0.89-0.22,1.32-0.34c0,0-4.22-7.94,0-14.44
			c4.22-6.49-2.92-17.95-2.92-17.95s-41.89,0.68-36.69,39.19c0,0,3.64-0.42,9-1.17C193.04,257.82,197.08,253.93,197.08,253.93z"/>
		<path class="st0" d="M263.32,260.7c0.65,2.1,1.26,6.48,1.7,10.34c4.93-0.59,9.09-2.26,11.83-3.65c0.13-7.29-0.7-15.97-0.7-15.97
			c1.35,4.23,2.3,10.44,2.85,14.79c0.89-0.53,1.37-0.88,1.37-0.88s-4.06-45.04-20.51-44.23c-16.45,0.81-19.75,13.96-19.75,13.96
			l4.71,6.98c0,0,6.17-6.17,9.9-1.01c3.73,5.16,7.15,30.24,7.15,30.24c0.48-0.01,0.95-0.04,1.41-0.07
			C263.46,266.4,263.32,260.7,263.32,260.7z"/>
	</g>
	<path class="st0" d="M275.23,319.09c10.5-0.08,17.89,13.08,19.28,30.86l-31.97,7.12C262.54,357.07,251.18,319.28,275.23,319.09z"/>
	<path class="st5" d="M77.2,663.96c0,0-1.14-63.52,28.75-92.04c29.9-28.52-21.18-4.48-32.3,25.47c0,0,2.95-56.82,33.28-91.35
		c30.32-34.53-18.53-10.8-29.89,28.61c0,0,2.53-50.71,18.36-76.43c15.83-25.72-5.84-11.4-16.21,4.64
		c-10.37,16.04-9.47,60.87-9.47,60.87s-2.94-83.15-21.48-80.15c-18.54,3,14.61,63.5,15.37,91.79c0,0-13.38-40.46-30.34-35.84
		s21.8,16.01,29.38,73.95l1.43,26.76c0,0-11.84-39.67-26.32-30.67c-14.48,9,30.45,38.02,31.24,94.83L77.2,663.96z"/>
	<path class="st9" d="M77.2,663.96c0,0-1.14-63.52,28.75-92.04c29.9-28.52-21.18-4.48-32.3,25.47c0,0,2.95-56.82,33.28-91.35
		c30.32-34.53-18.53-10.8-29.89,28.61c0,0,2.53-50.71,18.36-76.43c15.83-25.72-5.84-11.4-16.21,4.64
		c-10.37,16.04-9.47,60.87-9.47,60.87s-2.94-83.15-21.48-80.15c-18.54,3,14.61,63.5,15.37,91.79c0,0-13.38-40.46-30.34-35.84
		s21.8,16.01,29.38,73.95l1.43,26.76c0,0-11.84-39.67-26.32-30.67c-14.48,9,30.45,38.02,31.24,94.83L77.2,663.96z"/>
	<polygon class="st0" points="40.03,727.16 116.15,727.16 126.27,653.13 29.91,653.13 	"/>
	<polygon class="st14" points="40.03,727.16 116.15,727.16 126.27,653.13 29.91,653.13 	"/>
	<path class="st5" d="M74.96,661.17c0,0,7.96-50.86-12.87-77.06c-20.83-26.21,17.5-1.25,23.1,24.03c0,0,3.93-45.93-16.58-77.01
		c-20.51-31.08,16.07-6.61,20.82,26.28c0,0,3.59-40.98-6.27-63.38c-9.86-22.4,5.95-8.5,12.5,5.52c6.54,14.02,0.85,49.9,0.85,49.9
		s11.58-66.41,26.12-61.95c14.55,4.46-18.76,49.34-22.51,71.97c0,0,15.22-30.99,28.32-25.41c13.1,5.58-19.27,10.43-31.78,56.1
		l-4.11,21.32c0,0,13.9-30.52,24.52-21.69c10.62,8.83-28.66,27.14-35.58,72.65L74.96,661.17z"/>
	<path class="st0" d="M135.81,647.13v7.03c0,4.71-3.82,8.52-8.52,8.52H27.93c-4.71,0-8.52-3.82-8.52-8.52v-7.03H135.81z"/>
</g>
</svg>
