<svg id="Capa_1" data-name="Capa 1" xmlns="http://www.w3.org/2000/svg" viewBox="0 0 361 343"><defs><style>.cls-1{fill:#fff;opacity:0.71;}.cls-2,.cls-3,.cls-4{fill:none;stroke:#000;stroke-miterlimit:10;}.cls-2{stroke-width:17.05px;}.cls-3{stroke-width:5.61px;}.cls-4{stroke-width:8.52px;}</style></defs><title>AGREGAR MATERIA Y MATERIA HABIL, CENTRO</title><ellipse class="cls-1" cx="180.5" cy="171.5" rx="180.5" ry="171.5"/><path class="cls-2" d="M276.57,127.74v75.4a50.21,50.21,0,0,0-8.75-.66c-33.86,0-61.25,26-61.25,58.13s27.39,58.13,61.25,58.13h-140v-191Z" transform="translate(-18 -35)"/><path class="cls-3" d="M276.57,318.08v.66h-8.75A50.21,50.21,0,0,0,276.57,318.08Z" transform="translate(-18 -35)"/><path class="cls-2" d="M276.57,127.74H127.82a32.29,32.29,0,0,1-17.5-8.31c-10.31-9.85-9-23.07-8.75-24.91h175c-9.6,0-17.5,7.5-17.5,16.61S267,127.74,276.57,127.74Z" transform="translate(-18 -35)"/><path class="cls-2" d="M127.82,318.74a51.35,51.35,0,0,1-17.5-8.3,48.6,48.6,0,0,1-8.75-8.31V94.52c-.22,1.84-1.56,15.06,8.75,24.91a32.29,32.29,0,0,0,17.5,8.31Z" transform="translate(-18 -35)"/><line class="cls-2" x1="131.69" y1="134.26" x2="223.57" y2="134.26"/><line class="cls-4" x1="131.69" y1="167.48" x2="223.57" y2="167.48"/><line class="cls-4" x1="131.69" y1="200.7" x2="197.32" y2="200.7"/><path class="cls-2" d="M329.07,260.61c0,29.32-22.75,53.48-52.5,57.47a50.21,50.21,0,0,1-8.75.66c-33.86,0-61.25-26-61.25-58.13s27.39-58.13,61.25-58.13a50.21,50.21,0,0,1,8.75.66C306.32,207.13,329.07,231.3,329.07,260.61Z" transform="translate(-18 -35)"/><rect x="241.07" y="184.09" width="17.5" height="83.05" rx="8.21"/><rect x="259.52" y="216.86" width="16.61" height="87.5" rx="8.3" transform="translate(510.43 -42.21) rotate(90)"/></svg>