<svg id="Capa_1" data-name="Capa 1" xmlns="http://www.w3.org/2000/svg" viewBox="0 0 601.65 663.82"><defs><style>.cls-1{fill:#fff;}</style></defs><title>agregar docentes</title><g id="ICONO_USUARIO" data-name="ICONO USUARIO"><line class="cls-1" x1="67.96" y1="663.82" x2="67.92" y2="663.82"/><path class="cls-1" d="M224.49,477.87l-1.11-.91C116.19,511,32.57,606.21,7.52,724.83H75.44c13-75.86,42.49-142.29,82.37-190.14C177.68,510.84,200.14,491.54,224.49,477.87Z" transform="translate(-7.52 -61)"/><path class="cls-1" d="M307.67,475.57c72.11,0,130.58-63.24,130.58-141.24S379.78,193.09,307.67,193.09,177,256.33,177,334.33,235.48,475.57,307.67,475.57Z" transform="translate(-7.52 -61)"/></g><path class="cls-1" d="M514.71,724.83H101c13.09-71.34,39.87-133.51,75.45-178.59,23-29.14,49.72-51.1,78.75-63.52a129.53,129.53,0,0,0,110.44,0,177.73,177.73,0,0,1,41.61,25.49,227.5,227.5,0,0,1,37.15,38c36.74,47,59.09,114.67,63.94,129.79Z" transform="translate(-7.52 -61)"/><path class="cls-1" d="M609.17,724.83H541.25c-13-75.86-42.49-142.29-82.37-190.14-19.87-23.85-42.33-43.15-66.69-56.82l1.12-.91c107.18,34,190.81,129.25,215.86,247.87" transform="translate(-7.52 -61)"/><path class="cls-1" d="M569.59,166.8a23.45,23.45,0,0,1-14.47,21.63H395.87a23.45,23.45,0,0,1,0-43.33H555.12A23.53,23.53,0,0,1,569.59,166.8Z" transform="translate(-7.52 -61)"/><path class="cls-1" d="M472,275.07c-8.31-.08-15.77-6.64-18.9-16.64l1.3-181.14c3.27-9.94,10.83-16.36,19.14-16.29s15.83,6.65,18.95,16.64l-1.3,181.15C487.93,268.72,480.32,275.15,472,275.07Z" transform="translate(-7.52 -61)"/></svg>