<svg id="Capa_1" data-name="Capa 1" xmlns="http://www.w3.org/2000/svg" viewBox="0 0 367 264"><defs><style>.cls-1{fill:#fff;}</style></defs><title>icono estudiantes</title><g id="ICONO_USUARIO" data-name="ICONO USUARIO"><line class="cls-1" x1="193.66" y1="204.66" x2="193.64" y2="204.66"/><path class="cls-1" d="M283.07,195.68c23.42,0,42.42-20.29,42.42-45.31s-19-45.32-42.42-45.32-42.43,20.29-42.43,45.32S259.63,195.68,283.07,195.68Z" transform="translate(-14 -71)"/></g><path class="cls-1" d="M283.88,71l-69.1,30.1,63.78,33.1,71.76-39.12Z" transform="translate(-14 -71)"/><path class="cls-1" d="M222.94,104.47l.13,41.52a17.31,17.31,0,0,1-.89,6.75c-2.19,5.17-8.34,5.85-13.41,5.81a31.37,31.37,0,0,0,9.3-17.26" transform="translate(-14 -71)"/><path class="cls-1" d="M216.58,104.47l.08,27.43q0,6.91,0,13.84c0,.95,0,1.9,0,2.85,0-.07,0,.86-.06.86s.25-1.34.08-.63c-.13.54-.29,1.09-.41,1.64s.23-.57.28-.62a4.19,4.19,0,0,0-.31.59,2,2,0,0,0-.25.41c-.14.48.45-.59.53-.65a7.87,7.87,0,0,0-.74.79c-.06.06-.27.3-.35.31.15,0,1.41-.94.43-.37l-.93.54c-.87.5.68-.27.67-.26a2,2,0,0,1-.59.21,16.39,16.39,0,0,1-2.48.63c-.16,0-.32,0-.48.08-.7.14,1.77-.17.56-.09-.38,0-.75.07-1.13.09-.9.06-1.81.07-2.71.06l4.5,10.87A37.44,37.44,0,0,0,224.21,143c.62-3.26-.91-7-4.45-7.83-3.14-.71-7.15.95-7.82,4.45a35.43,35.43,0,0,1-1.25,4.73c-.13.38-.28.76-.42,1.14-.5,1.35.62-1.33,0,0-.34.73-.68,1.46-1.06,2.17s-.78,1.38-1.21,2a10.32,10.32,0,0,0-1.36,1.94l.51-.67c-.16.21-.32.41-.49.61l-.64.73c-.57.62-1.16,1.21-1.77,1.78-4.1,3.82-.87,10.83,4.5,10.86a28.54,28.54,0,0,0,12-2.21A14.52,14.52,0,0,0,229,151.78c.76-5.07.4-10.32.38-15.43l-.05-15.08,0-16.8c0-3.33-2.92-6.52-6.36-6.36a6.46,6.46,0,0,0-6.36,6.36Z" transform="translate(-14 -71)"/><path class="cls-1" d="M350.33,275.67l-92.45-.85a109.93,109.93,0,0,0-33.48-21.5A64.89,64.89,0,0,1,229,236.4c3.71-8.78,8.53-14.28,11.5-18C247.92,209,256.63,202,266,198a42.59,42.59,0,0,0,35.87,0,57,57,0,0,1,13.52,8.17,72.07,72.07,0,0,1,12.05,12.21c11.93,15.09,19.21,36.8,20.76,41.61Z" transform="translate(-14 -71)"/><path class="cls-1" d="M310.53,196.42l.36-.29c34.81,10.91,62,41.47,70.11,79.53H358.94c-4.24-24.34-13.8-45.65-26.75-61A78.53,78.53,0,0,0,310.53,196.42Z" transform="translate(-14 -71)"/><g id="ICONO_USUARIO-2" data-name="ICONO USUARIO"><line class="cls-1" x1="22.07" y1="204.66" x2="22.06" y2="204.66"/><path class="cls-1" d="M84.47,196.42l-.36-.29C49.3,207,22.14,237.6,14,275.66H36.06c4.24-24.34,13.8-45.65,26.75-61A78.53,78.53,0,0,1,84.47,196.42Z" transform="translate(-14 -71)"/><path class="cls-1" d="M111.49,195.68c23.42,0,42.41-20.29,42.41-45.31s-19-45.32-42.41-45.32-42.44,20.29-42.44,45.32S88,195.68,111.49,195.68Z" transform="translate(-14 -71)"/></g><path class="cls-1" d="M112.3,71,43.2,101.1,107,134.2l71.75-39.12Z" transform="translate(-14 -71)"/><path class="cls-1" d="M51.89,104.47C52,128.32,52,139.21,52,143a17.34,17.34,0,0,1-.89,6.76c-2.19,5.17-8.34,5.85-13.41,5.8A31.33,31.33,0,0,0,47,138.34" transform="translate(-14 -71)"/><path class="cls-1" d="M45.53,104.47,45.62,133q0,3.69,0,7.38c0,.73,0,1.46,0,2.19s0,1.47,0,2.21c0,.28,0,.57,0,.86l0,.44q-.11,1.06.09-.42c.15,0-.58,2-.52,2.05-.18-.16.71-1.39,0-.22-.32.56-.94.83.28-.24a9.44,9.44,0,0,0-1.09,1.1c.9-1.11.95-.69.3-.29-.26.17-.54.3-.8.45-.87.5.67-.26.67-.26a3.37,3.37,0,0,1-.89.32,16.87,16.87,0,0,1-1.86.47l-.64.11c-1.19.22,1.73-.15.24-.05-1.23.08-2.45.15-3.68.14l4.5,10.86A37.37,37.37,0,0,0,53.16,140c.62-3.26-.91-7-4.45-7.83-3.14-.72-7.15.95-7.82,4.44a35.17,35.17,0,0,1-1.25,4.74l-.42,1.14c-.5,1.35.62-1.33,0,0-.34.73-.68,1.45-1.06,2.16s-.78,1.39-1.21,2.06-1.2,1.34-1.36,1.94l.51-.67-.49.6c-.21.25-.43.49-.64.73-.57.62-1.16,1.21-1.77,1.78-4.1,3.83-.87,10.84,4.5,10.87,5.71,0,11.84-.89,16.12-5s4.55-9.65,4.53-15.1l-.06-17.94-.06-19.42c0-3.33-2.92-6.52-6.36-6.36a6.46,6.46,0,0,0-6.36,6.36Z" transform="translate(-14 -71)"/><path class="cls-1" d="M232.77,209.69v.77c-.29,18.57-11,34.39-26.15,41.1a37.08,37.08,0,0,1-8.87,2.79,38.21,38.21,0,0,1-7.37.69c-1,0-1.93,0-2.85-.09a41.62,41.62,0,0,1-7.78-1.33c-18.29-5-31.81-22.78-31.81-43.93,0-1.47.09-2.88.17-4.3a47.16,47.16,0,0,1,1-6,10.24,10.24,0,0,1,.38-1.59,44.88,44.88,0,0,1,9.33-18.31c9,4.68,18,9.37,27.08,14.06q16.32-8.91,32.6-17.8A46.49,46.49,0,0,1,232.77,209.69Z" transform="translate(-14 -71)"/><path class="cls-1" d="M158.07,255.77l-.38-.3A99,99,0,0,0,122,275.67H44.37c4.26-22.91,13-42.86,24.52-57.3C76.34,209,85,202,94.46,198a42.77,42.77,0,0,0,17.91,4,41.34,41.34,0,0,0,7.32-.65,38.65,38.65,0,0,0,5.91-1.46,42.78,42.78,0,0,0,4.72-1.85,54.06,54.06,0,0,1,12.48,7.4c-.09,1.42-.17,2.83-.17,4.3" transform="translate(-14 -71)"/><path class="cls-1" d="M135.05,275.67" transform="translate(-14 -71)"/><g id="ICONO_USUARIO-3" data-name="ICONO USUARIO"><line class="cls-1" x1="99.84" y1="264" x2="99.82" y2="264"/><path class="cls-1" d="M162.26,255.77A78.32,78.32,0,0,0,140.58,274c-.46.56-.92,1.12-1.34,1.67-12.3,15.22-21.34,35.86-25.4,59.33H91.78a109.72,109.72,0,0,1,34.44-59.33,99.07,99.07,0,0,1,35.66-20.2Z" transform="translate(-14 -71)"/><path class="cls-1" d="M217.33,175.77q-16.32,8.89-32.6,17.8c-9-4.69-18-9.38-27.08-14.06a41,41,0,0,1,31.6-15.13A40.51,40.51,0,0,1,217.33,175.77Z" transform="translate(-14 -71)"/></g><path class="cls-1" d="M256.5,154.4l-10.63,5.81c-9.5,5.2-19,10.36-28.54,15.56q-16.32,8.89-32.6,17.8c-9-4.69-18-9.38-27.08-14.06-2.3-1.21-4.64-2.41-6.94-3.61l-21.05-11-.51-.25-8.2-4.26q18.39-8,36.74-16,16.2-7,32.35-14.1,15.94,5.8,31.85,11.52c2,.73,3.94,1.46,5.86,2.15l17.08,6.19C248.72,151.61,252.61,153,256.5,154.4Z" transform="translate(-14 -71)"/><path class="cls-1" d="M129.65,160.87l.13,41.51a17.15,17.15,0,0,1-.88,6.76c-2.2,5.17-8.35,5.85-13.42,5.8a31.24,31.24,0,0,0,9.3-17.26" transform="translate(-14 -71)"/><path class="cls-1" d="M123.29,160.87l.08,27.43q0,6.91,0,13.84c0,.94,0,1.9,0,2.84,0-.07,0,.86-.06.87s.25-1.34.08-.63c-.12.54-.29,1.09-.41,1.64s.23-.58.28-.62a3.28,3.28,0,0,0-.3.59,2.57,2.57,0,0,0-.26.41c-.14.48.46-.59.53-.65a7.94,7.94,0,0,0-.74.79c0,.06-.27.3-.34.31.14,0,1.41-.94.42-.37l-.93.53c-.87.51.68-.27.67-.26a2.32,2.32,0,0,1-.59.22,16.26,16.26,0,0,1-2.47.63l-.49.07c-.7.15,1.78-.17.57-.08-.38,0-.76.07-1.14.09-.9,0-1.81.07-2.71.06l4.5,10.86a37.37,37.37,0,0,0,10.94-20.06c.62-3.26-.91-7-4.44-7.83-3.14-.72-7.16.95-7.83,4.44a35.17,35.17,0,0,1-1.25,4.74c-.13.38-.28.76-.42,1.14-.49,1.35.62-1.33,0,0-.33.73-.68,1.45-1.06,2.16s-.78,1.39-1.21,2.06-1.2,1.34-1.36,1.94l.52-.67-.5.6c-.21.25-.42.49-.64.73-.56.62-1.15,1.21-1.77,1.78-4.1,3.83-.87,10.84,4.5,10.87a28.7,28.7,0,0,0,12-2.21,14.53,14.53,0,0,0,8.23-10.92c.76-5.08.4-10.32.38-15.43l0-15.08-.06-16.8c0-3.33-2.92-6.52-6.36-6.36a6.46,6.46,0,0,0-6.36,6.36Z" transform="translate(-14 -71)"/><path class="cls-1" d="M256.5,335H122.12c4.27-22.87,13-42.82,24.53-57.3.54-.69,1.08-1.38,1.67-2,7.07-8.34,15.19-14.65,23.9-18.35a41.21,41.21,0,0,0,16.11,3.91c.63,0,1.21,0,1.84,0a36.58,36.58,0,0,0,3.77-.17A42.43,42.43,0,0,0,208,257.36s0,0,.08,0a49.25,49.25,0,0,1,7.07,3.7,52.09,52.09,0,0,1,6.45,4.47l.63.51a77.19,77.19,0,0,1,9.79,9.67c.63.78,1.17,1.42,1.63,2,12,15.08,19.21,36.79,20.8,41.65Z" transform="translate(-14 -71)"/><path class="cls-1" d="M287.18,335H265.12c-4.06-23.47-13.14-44.11-25.4-59.33-.42-.55-.88-1.11-1.34-1.67a81.29,81.29,0,0,0-14.6-13.67c.21-.73.41-1.46.67-2.19a99.34,99.34,0,0,1,28.29,17.53A109.72,109.72,0,0,1,287.18,335Z" transform="translate(-14 -71)"/><path class="cls-1" d="M224.45,258.14c-.26.73-.46,1.46-.67,2.19a60.24,60.24,0,0,0-7.08-4.56l.38-.3C219.59,256.24,222,257.15,224.45,258.14Z" transform="translate(-14 -71)"/></svg>