<svg id="Capa_1" data-name="Capa 1" xmlns="http://www.w3.org/2000/svg" viewBox="0 0 602.04 601.74"><defs><style>.cls-1{fill:#fff;opacity:0.71;}.cls-2,.cls-3{fill:#010101;}.cls-2,.cls-4{stroke:#010101;stroke-miterlimit:10;}.cls-2{stroke-width:5.5px;}.cls-4{fill:none;stroke-width:16.49px;}</style></defs><title>icono de docente, centro</title><ellipse class="cls-1" cx="301.02" cy="300.87" rx="301.02" ry="300.87"/><g id="ICONO_USUARIO" data-name="ICONO USUARIO"><line class="cls-2" x1="154.05" y1="486.91" x2="154.02" y2="486.91"/><path class="cls-2" d="M253.45,432.47l-.73-.54C183.61,453.54,130.25,512.18,115,584.51l44-.6c7.82-46.22,26.34-86.87,51.76-116.31C223.41,452.93,237.8,441,253.45,432.47Z" transform="translate(-4.96 -97)"/><path class="cls-2" d="M390.67,343.32c.64,47.45-36.72,86.4-83.39,87s-85.12-37.3-85.76-84.74a86.08,86.08,0,0,1,20.84-57.55A83.87,83.87,0,0,1,325.87,261l.66,48.93,56.63-.77A86,86,0,0,1,390.67,343.32Z" transform="translate(-4.96 -97)"/></g><path class="cls-2" d="M305.68,194.06c6.44,2.14,12.93,4.27,19.37,6.36l1.32,97.63Q311.54,306,296.7,314q-27.19-12.9-54.34-25.9l-56.21-26.79c-.32-.17-.69-.33-1-.5-5.49-2.61-10.93-5.22-16.42-7.82Q237.22,223.54,305.68,194.06Z" transform="translate(-4.96 -97)"/><path class="cls-3" d="M186.07,253.55l1.32,78.65c.07,4.36.11,8.88-1.59,12.83-4.25,9.86-16.49,11.3-26.59,11.36a58.63,58.63,0,0,0,18.1-32.95" transform="translate(-4.96 -97)"/><path class="cls-3" d="M177.82,253.55l1.15,68.2.16,9.46a62.28,62.28,0,0,1-.26,8.85l.29-2.19a20.36,20.36,0,0,1-1.31,5l.83-2a16.75,16.75,0,0,1-2,3.34l1.29-1.66a16.9,16.9,0,0,1-2.86,2.81l1.67-1.29a21.27,21.27,0,0,1-4.32,2.47l2-.83a34.58,34.58,0,0,1-8.54,2.18l2.19-.29a73.57,73.57,0,0,1-8.9.54L165,362.22a66.19,66.19,0,0,0,20.22-36.59,8.87,8.87,0,0,0-.83-6.35,8.37,8.37,0,0,0-4.93-3.79c-4-.92-9.3,1.22-10.14,5.76a61.21,61.21,0,0,1-3.71,12.49l.83-2a60.2,60.2,0,0,1-7.66,13.2l1.29-1.67a57.84,57.84,0,0,1-6.73,7.26,8.28,8.28,0,0,0,5.83,14.07c7.46-.05,14.87-.88,21.75-3.92a23.42,23.42,0,0,0,8.4-6.14,22.31,22.31,0,0,0,3.49-5.23,30.21,30.21,0,0,0,2.51-9.28,91.55,91.55,0,0,0,.19-12.83l-.23-13.94-.48-28.13-.53-31.61c-.07-4.31-3.74-8.45-8.24-8.25s-8.32,3.62-8.25,8.25Z" transform="translate(-4.96 -97)"/><path class="cls-2" d="M443.38,580.07l-267.84,3.62c7.89-43.48,24.72-81.51,47.38-109.23,14.66-17.91,31.78-31.5,50.47-39.3a88.8,88.8,0,0,0,71.5-1A116.77,116.77,0,0,1,372,449.32a143,143,0,0,1,24.36,22.8c24.17,28.26,39.2,69.19,42.46,78.35Z" transform="translate(-4.96 -97)"/><path class="cls-2" d="M362,431l.71-.56c69.68,19.73,124.6,76.9,141.79,148.8l-44,.59c-9.07-46-28.68-86.13-54.89-114.87C392.61,450.64,377.9,439.11,362,431Z" transform="translate(-4.96 -97)"/><path class="cls-4" d="M340.57,172.83q.14,10.38.28,20.77.67,49.49,1.34,99l106-1.43L446.52,171.4,365,172.5Zm79.78,83a29.79,29.79,0,0,1-22.27,10.8l-2.44,0A28.71,28.71,0,0,1,379.56,262c-9.46-6-15.93-17.47-16.11-30.69a39.06,39.06,0,0,1,4-17.93,35.51,35.51,0,0,1,4.95-7.49A29.81,29.81,0,0,1,394.67,195l2.44,0c17.53-.24,31.92,15.6,32.19,35.36A38.13,38.13,0,0,1,420.35,255.83Z" transform="translate(-4.96 -97)"/></svg>