<svg id="Capa_1" data-name="Capa 1" xmlns="http://www.w3.org/2000/svg" viewBox="0 0 217.16 147.88"><defs><style>.cls-1{fill:#fff;}</style></defs><title>lista de docentes</title><g id="ICONO_USUARIO" data-name="ICONO USUARIO"><line class="cls-1" x1="72.89" y1="147.88" x2="72.88" y2="147.88"/><path class="cls-1" d="M108,107l-.2-.18c-19.07,6.94-34,26.41-38.41,50.65H81.49c2.33-15.5,7.57-29.08,14.66-38.86A45.53,45.53,0,0,1,108,107Z" transform="translate(-8.61 -9.55)"/><path class="cls-1" d="M122.82,106.49c12.83,0,23.24-12.92,23.24-28.86s-10.41-28.86-23.24-28.86S99.57,61.69,99.57,77.63,110,106.49,122.82,106.49Z" transform="translate(-8.61 -9.55)"/></g><path class="cls-1" d="M159.67,157.43H86.05c2.33-14.58,7.09-27.29,13.42-36.5,4.1-6,8.85-10.44,14-13a20.34,20.34,0,0,0,19.65,0,31.34,31.34,0,0,1,7.41,5.21,44.51,44.51,0,0,1,6.61,7.77c6.54,9.61,10.51,23.44,11.38,26.53" transform="translate(-8.61 -9.55)"/><path class="cls-1" d="M137.86,107l.2-.18c19.08,6.94,34,26.41,38.42,50.65H164.39c-2.32-15.5-7.56-29.08-14.66-38.86A45.38,45.38,0,0,0,137.86,107Z" transform="translate(-8.61 -9.55)"/><g id="ICONO_USUARIO-2" data-name="ICONO USUARIO"><line class="cls-1" x1="12.09" y1="108.66" x2="12.09" y2="108.66"/><path class="cls-1" d="M47.23,67.75l-.2-.19C28,74.51,13.07,94,8.61,118.21H20.7c2.32-15.5,7.56-29.07,14.66-38.85A44.92,44.92,0,0,1,47.23,67.75Z" transform="translate(-8.61 -9.55)"/><path class="cls-1" d="M62,67.28c12.83,0,23.24-12.93,23.24-28.87S74.86,9.55,62,9.55,38.78,22.48,38.78,38.41,49.18,67.28,62,67.28Z" transform="translate(-8.61 -9.55)"/></g><path class="cls-1" d="M98.87,118.21H25.25c2.33-14.57,7.1-27.28,13.43-36.49,4.09-6,8.85-10.44,14-13a20.43,20.43,0,0,0,19.66,0A31.2,31.2,0,0,1,79.75,74a44.51,44.51,0,0,1,6.61,7.77c6.54,9.61,10.52,23.43,11.38,26.52" transform="translate(-8.61 -9.55)"/><path class="cls-1" d="M77.07,67.75l.2-.19c19.07,7,34,26.41,38.41,50.65H103.6c-2.33-15.5-7.57-29.07-14.66-38.85A45.21,45.21,0,0,0,77.07,67.75Z" transform="translate(-8.61 -9.55)"/><g id="ICONO_USUARIO-3" data-name="ICONO USUARIO"><line class="cls-1" x1="122.19" y1="108.66" x2="122.18" y2="108.66"/><path class="cls-1" d="M157.32,67.75l-.2-.19c-19.07,7-33.95,26.41-38.41,50.65h12.08c2.33-15.5,7.57-29.07,14.66-38.85A45.21,45.21,0,0,1,157.32,67.75Z" transform="translate(-8.61 -9.55)"/><path class="cls-1" d="M172.12,67.28c12.83,0,23.24-12.93,23.24-28.87S185,9.55,172.12,9.55s-23.25,12.93-23.25,28.86S159.28,67.28,172.12,67.28Z" transform="translate(-8.61 -9.55)"/></g><path class="cls-1" d="M209,118.21H135.35c2.33-14.57,7.09-27.28,13.42-36.49,4.1-6,8.85-10.44,14-13a20.41,20.41,0,0,0,19.65,0A31.05,31.05,0,0,1,189.85,74a44.51,44.51,0,0,1,6.61,7.77c6.54,9.61,10.51,23.43,11.38,26.52" transform="translate(-8.61 -9.55)"/><path class="cls-1" d="M187.16,67.75l.2-.19c19.08,7,34,26.41,38.42,50.65H213.69c-2.32-15.5-7.56-29.07-14.66-38.85A44.92,44.92,0,0,0,187.16,67.75Z" transform="translate(-8.61 -9.55)"/></svg>