<svg id="Capa_1" data-name="Capa 1" xmlns="http://www.w3.org/2000/svg" viewBox="0 0 191.19 180.07"><defs><style>.cls-1{fill:#ebd800;}.cls-2{fill:none;}.cls-3{fill:#242a54;}.cls-4{fill:#232952;}.cls-5{fill:#232850;}.cls-6{fill:#f7d834;}.cls-7{fill:#f5d93a;}.cls-8{fill:#27274b;}.cls-9{fill:#222549;}.cls-10{fill:#f5da42;}.cls-11{fill:#252549;}.cls-12{fill:#f5d946;}.cls-13{fill:#f7de56;}</style></defs><title>logo de eduserver web</title><ellipse class="cls-1" cx="107.63" cy="63.1" rx="5.35" ry="5.27"/><ellipse class="cls-1" cx="129.82" cy="63.1" rx="5.35" ry="5.27"/><ellipse class="cls-1" cx="88.77" cy="79.53" rx="5.35" ry="5.27"/><ellipse class="cls-1" cx="71.02" cy="72.95" rx="5.35" ry="5.27"/><line class="cls-2" x1="78.74" y1="36.29" x2="83.27" y2="50.33"/><path class="cls-1" d="M85.79,38.78l4,12.28.61,1.75a1.4,1.4,0,0,0,1.34,1c.49,0,1-.43.85-1l-4-12.35-.56-1.74a1.38,1.38,0,0,0-1.34-1c-.49,0-1,.43-.85,1Z" transform="translate(-8.14 -2.46)"/><line class="cls-2" x1="88.68" y1="78.8" x2="83.27" y2="50.33"/><path class="cls-1" d="M98,80.92,93.22,56l-.69-3.59c-.14-.74-2.39-.13-2.23.67L95,78l.68,3.59c.13.74,2.38.14,2.23-.67Z" transform="translate(-8.14 -2.46)"/><line class="cls-2" x1="106.49" y1="60.07" x2="88.68" y2="78.8"/><path class="cls-1" d="M113.48,62.39,97.91,78.77l-2.23,2.35a6.4,6.4,0,0,0,1.14.31c.26,0,.93.19,1.17,0L113.56,65l2.24-2.36a7.54,7.54,0,0,0-1.13-.3c-.27,0-.93-.19-1.17,0Z" transform="translate(-8.14 -2.46)"/><line class="cls-2" x1="100.31" y1="42.21" x2="106.49" y2="60.07"/><path class="cls-1" d="M107.36,45.06l5.4,15.57.78,2.25c.1.29,2.29-.51,2.19-.79l-5.4-15.57-.78-2.24C109.45,44,107.26,44.78,107.36,45.06Z" transform="translate(-8.14 -2.46)"/><line class="cls-2" x1="90.22" y1="30.7" x2="100.31" y2="42.21"/><path class="cls-1" d="M97.32,32.74l8.82,10.09,1.27,1.42a3.45,3.45,0,0,0,1.29.63,2,2,0,0,0,.67.22s.23,0,.14,0L100.68,35l-1.25-1.47a3.42,3.42,0,0,0-1.3-.63,2,2,0,0,0-.66-.22s-.24,0-.15,0Z" transform="translate(-8.14 -2.46)"/><line class="cls-2" x1="106.5" y1="30.94" x2="112.68" y2="35.76"/><path class="cls-1" d="M114.77,34.32l5.42,4.23.76.59c.12.09.34.2.49.11s.14-.35.11-.5a2.41,2.41,0,0,0-.87-1.46l-5.42-4.22-.77-.6c-.11-.09-.33-.2-.47-.1s-.14.35-.12.49a2.49,2.49,0,0,0,.86,1.46Z" transform="translate(-8.14 -2.46)"/><line class="cls-2" x1="120.41" y1="42.21" x2="112.68" y2="35.76"/><path class="cls-1" d="M129.58,44.63,122.79,39l-.93-.79a2.36,2.36,0,0,0-1.55-.37c-.22,0-.87.11-.48.43l6.73,5.67.93.8a2.5,2.5,0,0,0,1.55.37c.22,0,.87-.12.48-.45Z" transform="translate(-8.14 -2.46)"/><line class="cls-2" x1="129.68" y1="61.57" x2="120.41" y2="42.21"/><path class="cls-1" d="M138.48,64,130.38,47l-1.15-2.4c-.19-.38-.61-1.13-1.12-1s-.37.8-.21,1.14l8.1,17,1.15,2.4c.19.38.61,1.13,1.12,1S138.64,64.3,138.48,64Z" transform="translate(-8.14 -2.46)"/><line class="cls-2" x1="136.27" y1="53.19" x2="129.68" y2="61.57"/><path class="cls-1" d="M143.47,55.53l-5.77,7.34-.82,1a.59.59,0,0,0,0,.81.5.5,0,0,0,.4.16,1.69,1.69,0,0,0,1.49-.72l5.78-7.34.82-1a.59.59,0,0,0,0-.81.5.5,0,0,0-.4-.16,1.69,1.69,0,0,0-1.49.72Z" transform="translate(-8.14 -2.46)"/><line class="cls-2" x1="106.49" y1="60.07" x2="129.68" y2="61.57"/><path class="cls-1" d="M114.08,63.32l20.27,1.37,2.92.18a1.72,1.72,0,0,0,1.49-.73c.23-.42.13-.85-.39-.87L118.09,62l-2.91-.18a1.7,1.7,0,0,0-1.49.73c-.24.42-.13.84.39.87Z" transform="translate(-8.14 -2.46)"/><line class="cls-2" x1="120.41" y1="42.21" x2="106.49" y2="60.07"/><path class="cls-1" d="M127.49,44.55,115.31,60.12l-1.75,2.28c-.34.45.24.75.58.8a1.71,1.71,0,0,0,1.51-.56l12.18-15.57,1.76-2.25c.34-.44-.24-.74-.58-.8a1.74,1.74,0,0,0-1.51.57Z" transform="translate(-8.14 -2.46)"/><line class="cls-2" x1="112.68" y1="35.76" x2="100.31" y2="42.21"/><path class="cls-1" d="M120.06,37.64,109.2,43.28l-1.53.79a.61.61,0,0,0-.3.77.55.55,0,0,0,.24.28,1.59,1.59,0,0,0,1.64.1l10.81-5.63,1.53-.8a.6.6,0,0,0,.31-.76.55.55,0,0,0-.25-.29,1.59,1.59,0,0,0-1.64-.1Z" transform="translate(-8.14 -2.46)"/><line class="cls-2" x1="83.27" y1="50.33" x2="100.31" y2="42.21"/><path class="cls-1" d="M92,53.82l14.91-7.1,2.13-1c1.11-.53-.09-2.61-1.2-2.09l-14.92,7.1-2.13,1c-1.1.53.08,2.61,1.21,2.07Z" transform="translate(-8.14 -2.46)"/><line class="cls-2" x1="106.49" y1="60.07" x2="83.27" y2="50.33"/><path class="cls-1" d="M114.82,62.09,94.53,53.57,91.6,52.35c-.24-.1-1.07-.48-1.24-.08s.65.84.87,1l20.28,8.53L114.44,63c.25.1,1.06.48,1.24.08s-.65-.86-.86-1Z" transform="translate(-8.14 -2.46)"/><line class="cls-2" x1="61.85" y1="56.05" x2="83.27" y2="50.33"/><path class="cls-1" d="M72,59.11l18.78-5,2.64-.71c.27-.07-.54-.6-.59-.64-.28-.17-.93-.67-1.33-.57l-18.78,5L70,57.87c-.26.07.54.6.6.64.28.17.93.67,1.33.57Z" transform="translate(-8.14 -2.46)"/><line class="cls-2" x1="71.99" y1="70.98" x2="61.42" y2="57.27"/><path class="cls-1" d="M81.09,72,72.66,60.73l-1.2-1.6c-.68-.91-2.52-.15-1.68.92l8.43,11.28L79.41,73C80.09,73.88,81.94,73.12,81.09,72Z" transform="translate(-8.14 -2.46)"/><line class="cls-2" x1="83.27" y1="50.33" x2="71.99" y2="70.98"/><path class="cls-1" d="M90.4,52.17l-9.87,18.1-1.4,2.56c-.4.72,1.61,2,2,1.21L91,55.93l1.4-2.56c.4-.72-1.61-1.95-2-1.21Z" transform="translate(-8.14 -2.46)"/><line class="cls-2" x1="88.68" y1="78.8" x2="71.99" y2="70.98"/><path class="cls-1" d="M97.38,80.5,82.77,73.69l-2.09-1c-1-.49-2.48.85-1.09,1.5L94.19,81l2.09,1C97.32,82.5,98.77,81.15,97.38,80.5Z" transform="translate(-8.14 -2.46)"/><line class="cls-2" x1="59.15" y1="71.59" x2="71.99" y2="70.98"/><path class="cls-1" d="M68.64,75.2l11.22-.55,1.62-.08c.58,0,.68-.85.55-1.29a1.28,1.28,0,0,0-1.24-1l-11.22.54L68,72.93c-.57,0-.67.85-.54,1.29a1.29,1.29,0,0,0,1.23,1Z" transform="translate(-8.14 -2.46)"/><path class="cls-3" d="M165.2,90.48c-12.86,27.25-38.66,42.82-60.68,41-7.16-.61-24.92-4-38.19-17.52a27,27,0,0,1-2-2.18C54.15,100.1,48.77,82.59,51.13,67.47,54.78,44,77.41,24.86,77.41,24.86h0S51,49.52,54.47,79.54c1.85,16,11.63,27.08,15.78,31.25,12.07,12,29.3,18.13,44.8,16.54C146.32,124.05,165.2,90.48,165.2,90.48Z" transform="translate(-8.14 -2.46)"/><path class="cls-4" d="M150.45,68.58c.73,16.31-9.29,27.42-12.34,30.83-7.73,8.6-16.65,12.24-16.71,12.13a57.23,57.23,0,0,0,14.17-10.84c2.5-2.77,13.79-15.22,12.06-32.26a40.27,40.27,0,0,0-29.81-34.32A41.41,41.41,0,0,0,77.68,46.19a37,37,0,0,0-8.55,15C67,69,67.19,79.42,67.19,79.42h0a43.72,43.72,0,0,1,7.52-31.07C75.93,46.66,88,30.54,109.12,30.47c1.92,0,20.71.25,32.82,15.57A40.29,40.29,0,0,1,150.45,68.58Z" transform="translate(-8.14 -2.46)"/><path class="cls-4" d="M116.07,2.46c11.85,3.09,22.78,6,33.75,8.76a5.14,5.14,0,0,1,3.36,2.53l19.17,32c-9.85-1.51-10-1.33-8.72,8.61a13.75,13.75,0,0,0,.57,1.51c.24.87.51,2-.76,2.14-1.72.22-1.45-1.16-1.44-2.21a44.36,44.36,0,0,1,.2-6.52c.41-2.38.1-4.12-.85-5.31-1.31-1.67-3.58-1.95-5.52-2.15-6.59-.79-12.88-3.28-19.39-4.56Z" transform="translate(-8.14 -2.46)"/><path class="cls-5" d="M120.64,17.75c.7-1,1.63-2.38,1.63-2.38l12.37,23.24,19,5.08a66.79,66.79,0,0,0-4.14,5.84c-1.4,2.17-2.7,4.42-3.89,6.73a40.55,40.55,0,0,1-10-.55c-3.62-.65-7.91-1.43-12.31-4.43A26.25,26.25,0,0,1,113.16,37a26.57,26.57,0,0,1-1.06-7.73" transform="translate(-8.14 -2.46)"/><path class="cls-6" d="M82.3,166.82c-4.35-1.84-7.78-4.22-6.89-9.73.65-4,2.67-7,6.7-7.71,5.32-.91,10.81-1.22,14.86,3.43a3,3,0,0,1,.08,4.13,2.35,2.35,0,0,1-.33.3c-1.51,1.3-2.7,0-3.71-1.05s-2.28-2.45-4.09-2.56c-3.31-.19-7.24-1-8.42,3.18-1.3,4.53,2.86,4.67,5.74,5.54,1.77.53,3.54,1,5.34,1.42,4.14.9,7.29,3,7.81,7.35.57,4.87-1.6,8.39-6.31,10.36-5.27,2.18-13.32.81-16.38-2.92-1.07-1.32-2.4-3.05-1.49-4.38,1.29-1.89,3.24-.92,4.75.38,2.88,4.34,7.2,2.58,11,2.32a3.16,3.16,0,0,0,2.64-3.11,4.26,4.26,0,0,0-2.65-3.9A51.12,51.12,0,0,0,82.3,166.82Z" transform="translate(-8.14 -2.46)"/><path class="cls-7" d="M185.51,167.44A11.75,11.75,0,0,0,176,157.3c-5.12-1.06-9.31,1-12.16,5.53s-2.32,12.25,1.4,15.79c3.52,3.37,7.85,4.75,12.61,2.92,1.74-.67,4.52-1.48,3.6-4s-3.1-1.58-5-.41a5.84,5.84,0,0,1-3.19.49c-2.68-.18-5-1.92-4.94-4.21s3-.91,4.64-1.21a20.32,20.32,0,0,1,3.31,0l0,.08c1.8,0,3.65,0,5.51,0C185,172.14,186,170.14,185.51,167.44Zm-11.55.34c-2.05-.78-5.68,1.31-5.67-2.35,0-2.24,2.85-3.82,5.38-3.85,2.73,0,5.73,1.37,5.77,4C179.48,169.58,175.77,166.88,174,167.78Z" transform="translate(-8.14 -2.46)"/><path class="cls-8" d="M8.14,165.32v-1.64c0-14.93,0-14.94,15.18-14.24,1.48.07,3.72-.7,3.61,1.94-.09,2.3-2.07,1.52-3.38,1.58a33.49,33.49,0,0,1-6.09-.05c-4.07-.57-5.26.83-5.34,5-.09,4.66,1.36,5.84,5.89,5.64,2.44-.12,7.28-2.19,7.27,1.58,0,3.51-4.82,1-7.38,1.69-1.79.52-4.78-1.16-5.29,1.21-.67,3.1-.82,6.81.34,9.63.75,1.83,4.47.19,6.73.75,2.53.63,7.11-2.23,7.2,1.84,0,3-4.59,1.4-7,1.45-11.69.26-11.69.15-11.69-11.49Z" transform="translate(-8.14 -2.46)"/><path class="cls-9" d="M50.26,152c0-1.32,0-2.66-1.93-2.55s-1.79,1.52-1.79,2.76v7.71c-2.47-.6-4.07-2.21-6.43-2.33-7.85-.42-12.3,6.64-10,16.12,1.27,5.34,5,8.54,10.06,8.34s9.65-4.11,10-9.28C50.5,165.88,50.26,158.93,50.26,152Zm-10.5,26.47c-3.74-.08-6.19-3.62-6.16-8.91s2.48-8.61,6.5-8.48,6.36,3.42,6.25,8.71C46.24,174.91,43.5,178.56,39.76,178.48Z" transform="translate(-8.14 -2.46)"/><path class="cls-10" d="M150.34,173.33c1.7-4.61,3.26-8.67,4.72-12.78.6-1.71,1.4-3.17,3.49-2.49,2.26.74,1.57,2.79,1.1,4.16-2,5.84-4.3,11.6-6.5,17.39a3.24,3.24,0,0,1-3.22,2.47,2.94,2.94,0,0,1-2.84-2.21q-3.63-9.41-7.1-18.88c-.39-1.05-.35-2.29,1-2.76,1.52-.52,3-.33,3.71,1.36,1.09,2.7,2.09,5.44,3,8.19C148.34,169.57,148.62,171.5,150.34,173.33Z" transform="translate(-8.14 -2.46)"/><path class="cls-11" d="M54.34,167.65v-7.11c0-1.13.2-2.16,1.71-2.28,1.85-.13,2.19.91,2.18,2.36,0,3.83,0,7.66-.07,11.49,0,3.56,1.27,6.41,5.15,6.36,3.66,0,4.65-2.82,4.55-6.18-.14-3.83,0-7.66,0-11.49,0-1.37.17-2.54,2-2.55,1.69,0,2.27.87,2.25,2.39,0,4.73.28,9.51-.24,14.19-.51,4.48-5.28,7.84-9.63,7.14-4.65-.75-7.81-3.2-7.91-8.3C54.29,171.66,54.33,169.65,54.34,167.65Z" transform="translate(-8.14 -2.46)"/><path class="cls-12" d="M128,162.48a10.35,10.35,0,0,1,7.2-5.32c1.48-.3,2.54,0,3.2,1.32.83,1.62.12,3.26-1.35,3.52-5.49,1-4.86,5-4.91,8.76,0,2.53,0,5.07.16,7.59.24,3.3-1.46,4.14-4.36,3.69C125.63,175.53,123.84,169,128,162.48Z" transform="translate(-8.14 -2.46)"/><path class="cls-13" d="M187.83,170.55c-.09-8.37,2.13-12.12,7.64-13.16,1.58-.3,3.07-.49,3.71,1.19a2.38,2.38,0,0,1-1.29,3,1.14,1.14,0,0,1-.26.09c-4.87,1.61-4.64,5.4-4.5,9.33.11,2.73,0,5.45,0,8.19,0,1.56-.44,2.92-2.44,2.92s-2.29-1.33-2.37-2.92C188.24,176.35,188,173.45,187.83,170.55Z" transform="translate(-8.14 -2.46)"/><path class="cls-4" d="M162.3,55.47c.6,0,1.48-.18,1.76-.82s-.22-1-.78-1-1.48.18-1.76.83.22,1,.78,1Z" transform="translate(-8.14 -2.46)"/><path class="cls-7" d="M123.78,167.54a11.78,11.78,0,0,0-9.47-10.21c-5.11-1.05-9.33,1-12.17,5.54s-2.3,12.25,1.41,15.79c3.52,3.37,7.85,4.73,12.61,2.91,1.74-.67,4.53-1.62,3.6-4-.94-2.56-3.1-1.58-5-.42a5.79,5.79,0,0,1-3.2.5c-2.68-.18-5-1.91-4.93-4.21s3-.92,4.64-1.21a20.08,20.08,0,0,1,3.29,0v.14h5.52C123.26,172.24,124.26,170.24,123.78,167.54Zm-11.59.24c-2-.78-5.68,1.31-5.67-2.35,0-2.24,2.85-3.82,5.38-3.85,2.72,0,5.73,1.37,5.77,4C117.73,169.58,114,166.88,112.19,167.78Z" transform="translate(-8.14 -2.46)"/></svg>