<svg id="Capa_1" data-name="Capa 1" xmlns="http://www.w3.org/2000/svg" viewBox="0 0 329.32 178.32"><defs><style>.cls-1,.cls-2,.cls-4,.cls-5{fill:#fff;}.cls-1,.cls-4,.cls-5{stroke:#002663;stroke-miterlimit:10;}.cls-1{stroke-width:8.64px;}.cls-3{fill:#002663;}.cls-4{stroke-width:0.98px;}.cls-5{stroke-width:3.45px;}</style></defs><title>recibir pagos</title><rect class="cls-1" x="32.07" y="4.32" width="292.93" height="141.52"/><path class="cls-2" d="M200,138.33a17.47,17.47,0,0,1-1.92-1.07v-.18C198.72,137.5,199.36,137.91,200,138.33Z" transform="translate(-44 -10.68)"/><path class="cls-3" d="M198.12,137.08v.18a17.47,17.47,0,0,0,1.92,1.07c-.68-.42-1.32-.83-1.92-1.25Z" transform="translate(-44 -10.68)"/><path class="cls-2" d="M199.27,96v9.7c-2-1.44-3.59-3.11-3.55-5.11C195.77,98,199.27,96,199.27,96Z" transform="translate(-44 -10.68)"/><path class="cls-3" d="M199.27,96s-3.5,2-3.55,4.59c0,2,1.54,3.67,3.55,5.11V96Z" transform="translate(-44 -10.68)"/><path class="cls-2" d="M215.87,113.41a88.94,88.94,0,0,1-9.46-3.66c-2.69-1.25-5-2.51-7.14-3.71v-.37c1.11.78,2.4,1.53,3.6,2.22C207.36,110.54,208.81,110.07,215.87,113.41Z" transform="translate(-44 -10.68)"/><path class="cls-3" d="M199.27,105.67V106c2.1,1.2,4.45,2.46,7.14,3.71a88.94,88.94,0,0,0,9.46,3.66c-7.06-3.34-8.51-2.87-13-5.52-1.2-.69-2.49-1.44-3.6-2.22Z" transform="translate(-44 -10.68)"/><path class="cls-2" d="M214.71,126.27v.14a7.32,7.32,0,0,1-1.2-1.07A5.82,5.82,0,0,1,214.71,126.27Z" transform="translate(-44 -10.68)"/><path class="cls-3" d="M213.51,125.34a7.32,7.32,0,0,0,1.2,1.07v-.14a5.82,5.82,0,0,0-1.2-.93Z" transform="translate(-44 -10.68)"/><path class="cls-2" d="M216.66,130.89c2.62,2.82,2.48,4.1,2.23,4.58a5.2,5.2,0,0,1-2.23,2Z" transform="translate(-44 -10.68)"/><path class="cls-3" d="M214.71,126.41v13.64a26,26,0,0,1-4.79.45,24.69,24.69,0,0,1-4.7-.45,25.71,25.71,0,0,1-4.92-1.58,18.13,18.13,0,0,0,8.47,2.51h.65c3.79,0,9.38-1.15,11.19-4.61s-3.59-8-5.9-10Z" transform="translate(-44 -10.68)"/><path class="cls-2" d="M46,187.05V37.83H350V187.05Zm160.55-123c-28.19,0-51.12,24.81-51.12,55.31s22.93,55.31,51.12,55.31,51.13-24.81,51.13-55.31S234.69,64.09,206.5,64.09Z" transform="translate(-44 -10.68)"/><path class="cls-3" d="M348,39.77V185.11H47.89V39.77H348M206.5,176.65c29.26,0,53.07-25.68,53.07-57.25S235.76,62.15,206.5,62.15s-53.07,25.68-53.07,57.25,23.81,57.25,53.07,57.25M351.89,35.88H44V189H351.89V35.88ZM206.5,172.76c-27.15,0-49.18-23.9-49.18-53.36S179.35,66,206.5,66s49.18,23.9,49.18,53.36-22,53.36-49.18,53.36Z" transform="translate(-44 -10.68)"/><path class="cls-4" d="M200,138.33a17.47,17.47,0,0,1-1.92-1.07v-.18C198.72,137.5,199.36,137.91,200,138.33Z" transform="translate(-44 -10.68)"/><path class="cls-4" d="M215.87,113.41a88.94,88.94,0,0,1-9.46-3.66c-2.69-1.25-5-2.51-7.14-3.71v-.37c1.11.78,2.4,1.53,3.6,2.22C207.36,110.54,208.81,110.07,215.87,113.41Z" transform="translate(-44 -10.68)"/><path class="cls-4" d="M214.71,126.27v.14a7.32,7.32,0,0,1-1.2-1.07A5.82,5.82,0,0,1,214.71,126.27Z" transform="translate(-44 -10.68)"/><path class="cls-5" d="M206.5,66c-27.15,0-49.18,23.9-49.18,53.36s22,53.36,49.18,53.36,49.18-23.9,49.18-53.36S233.65,66,206.5,66Zm9.37,47.37a50,50,0,0,1,8.33,4.6,30.36,30.36,0,0,1,7.1,6.4c1.46,2,5.52,7.33,3.55,13.78-1.67,5.38-6.58,8.49-8.29,9.51-5.44,3.3-12.62,4-12.62,4-.13,3.15-.3,6.35-.43,9.51H196.92V149.24a83,83,0,0,1-9.49-5.76c-6.55-4.64-9.88-6.91-9.5-9.88.56-3.85,6.93-7.33,10.7-6.4,2.26.55,2.13,2.36,4.74,5.47a26.44,26.44,0,0,0,4.75,4.41V118.94a25.94,25.94,0,0,1-10.69-5.53c-5.78-5.29-7.83-13.64-3.55-19.3,3.12-4.13,9.75-6.87,13-8.26,1-.41,1.8-.69,2.35-.93V73h15.44V84.92a51.59,51.59,0,0,1,8.51.93,36.59,36.59,0,0,1,8.08,2.74c2.83,1.25,4.24,1.9,4.75,2.78,1.41,2.51-1.2,6.55-4.75,7.34-1.24.27-2.31.09-5.94-.93-2.7-.74-6-1.72-9.75-3C215.69,101,215.78,107.2,215.87,113.41Z" transform="translate(-44 -10.68)"/><path class="cls-5" d="M224.2,118a50,50,0,0,0-8.33-4.6,88.94,88.94,0,0,1-9.46-3.66c-2.69-1.25-5-2.51-7.14-3.71v-.37c-2-1.44-3.59-3.11-3.55-5.11.05-2.55,3.55-4.59,3.55-4.59v9.7c1.11.78,2.4,1.53,3.6,2.22,4.49,2.65,5.94,2.18,13,5.52-.09-6.21-.18-12.38-.26-18.6,3.76,1.25,7,2.23,9.75,3,3.63,1,4.7,1.2,5.94.93,3.55-.79,6.16-4.83,4.75-7.34-.51-.88-1.92-1.53-4.75-2.78a36.59,36.59,0,0,0-8.08-2.74,51.59,51.59,0,0,0-8.51-.93V73H199.27V84.92c-.55.24-1.37.52-2.35.93-3.29,1.39-9.92,4.13-13,8.26-4.28,5.66-2.23,14,3.55,19.3a25.94,25.94,0,0,0,10.69,5.53v18.14c.6.42,1.24.83,1.92,1.25a17.47,17.47,0,0,1-1.92-1.07v-.18a26.44,26.44,0,0,1-4.75-4.41c-2.61-3.11-2.48-4.92-4.74-5.47-3.77-.93-10.14,2.55-10.7,6.4-.38,3,2.95,5.24,9.5,9.88a83,83,0,0,0,9.49,5.76v11.92h16.59c.13-3.16.3-6.36.43-9.51,0,0,7.18-.65,12.62-4,1.71-1,6.62-4.13,8.29-9.51,2-6.45-2.09-11.83-3.55-13.78A30.36,30.36,0,0,0,224.2,118Zm-3.59,18.37c-1.92,3.67-8.08,4.74-11.84,4.6a18.13,18.13,0,0,1-8.47-2.51,25.71,25.71,0,0,0,4.92,1.58,25.3,25.3,0,0,0,9.49,0V126.41a7.32,7.32,0,0,1-1.2-1.07,5.82,5.82,0,0,1,1.2.93v.14C217,128.36,222.41,133,220.61,136.38Z" transform="translate(-44 -10.68)"/></svg>