<svg id="Capa_1" data-name="Capa 1" xmlns="http://www.w3.org/2000/svg" viewBox="0 0 211.07 166.68"><defs><style>.cls-1,.cls-2{fill:#fff;}.cls-1{stroke:#fff;stroke-miterlimit:10;stroke-width:2.75px;}</style></defs><title>titulo de docente (con la pizarra)</title><g id="ICONO_USUARIO" data-name="ICONO USUARIO"><line class="cls-1" x1="21.72" y1="165.19" x2="21.71" y2="165.19"/><path class="cls-1" d="M72.14,104.33l-.33-.23C40.35,113,15.91,137.38,8.72,167.69l20-.11c3.72-19.37,12.28-36.37,23.93-48.64A69.56,69.56,0,0,1,72.14,104.33Z" transform="translate(-6.98 -2.39)"/><path class="cls-2" d="M96.58,103.61c21.2-.11,38.3-16.34,38.18-36.24S117.37,31.43,96.17,31.54,57.86,47.89,58,67.79,75.37,103.73,96.58,103.61Z" transform="translate(-6.98 -2.39)"/></g><path class="cls-2" d="M157.81,166.88l-121.6.66c3.74-18.22,11.52-34.13,21.91-45.69a59.84,59.84,0,0,1,23.06-16.33,43.26,43.26,0,0,0,32.46-.18,54.59,54.59,0,0,1,12.27,6.44,63.05,63.05,0,0,1,11,9.64c10.87,11.94,17.53,29.17,19,33" transform="translate(-6.98 -2.39)"/><path class="cls-1" d="M121.43,104.06l.33-.23c31.56,8.5,56.28,32.67,63.82,62.89l-20,.11c-3.94-19.33-12.7-36.23-24.49-48.38A69.69,69.69,0,0,0,121.43,104.06Z" transform="translate(-6.98 -2.39)"/><path class="cls-2" d="M218,2.39q0,65.64.05,131.29a75.85,75.85,0,0,1-18.5,2.95l11.78-88.3a5.84,5.84,0,0,0,.06-.81c0-3.53-3.2-6.56-7.47-7-4.62-.42-8.78,2.36-9.29,6.23l-11.85,88.72c-2.92-1.91-7.33-4.89-12.45-8.79-10.24-7.8-10.2-9.29-16.77-14-13.4-9.62-23.56-10.56-23.24-15.22.09-1.27.73-1.34,6.67-11.31,1.47-2.46,7-12,6.6-22.6-.47-11.7-8-20.09-10.23-22.5-1-1.1-18.76-19.69-43.85-16.68C63.87,27.48,49.37,50.82,49.36,66.93c0,5.78,0,14.86,6.86,22.52,3.56,4,7.37,5.77,6.78,8.42-.92,4-10.31,3.89-20.15,8.57A43,43,0,0,0,26.1,120.63q0-58.57,0-117.19Z" transform="translate(-6.98 -2.39)"/><path class="cls-2" d="M205.48,51,190.63,165.17l-6.63-.6L198.85,50.39a3.27,3.27,0,0,1,3.69-2.54A3,3,0,0,1,205.48,51Z" transform="translate(-6.98 -2.39)"/></svg>