<svg id="Capa_1" data-name="Capa 1" xmlns="http://www.w3.org/2000/svg" viewBox="0 0 178.6 75.14"><defs><style>.cls-1,.cls-2{fill:#e7e6e6;stroke:#010101;stroke-miterlimit:10;}.cls-1{stroke-width:1.93px;}.cls-2{stroke-width:1.79px;}.cls-3{font-size:47.95px;fill:#010101;font-family:MyriadPro-Regular, Myriad Pro;}.cls-4{letter-spacing:-0.03em;}</style></defs><title>boton de pagar - adm de finazas, pagos</title><rect class="cls-1" x="0.96" y="0.96" width="176.67" height="73.21" rx="13.7"/><path class="cls-2" d="M44.78,22.86C32,22.86,21.62,36.49,21.62,53.3S32,83.75,44.78,83.75,67.93,70.11,67.93,53.3,57.56,22.86,44.78,22.86Zm4.4,27a22.54,22.54,0,0,1,3.93,2.62,15.49,15.49,0,0,1,3.34,3.65c.69,1.11,2.6,4.18,1.67,7.86a9.93,9.93,0,0,1-3.9,5.43,13.94,13.94,0,0,1-5.94,2.25c-.06,1.8-.14,3.63-.2,5.43H40.26V70.32A39.86,39.86,0,0,1,35.79,67c-3.08-2.65-4.65-3.94-4.47-5.64.27-2.19,3.27-4.18,5-3.65,1.07.32,1,1.35,2.23,3.12a13.63,13.63,0,0,0,2.24,2.52V53a11.64,11.64,0,0,1-5-3.15c-2.71-3-3.68-7.79-1.67-11,1.47-2.35,4.59-3.91,6.14-4.71.47-.24.85-.4,1.11-.53v-6.8h7.27v6.8a19.84,19.84,0,0,1,4,.53,15.24,15.24,0,0,1,3.8,1.56c1.33.72,2,1.09,2.24,1.59.66,1.43-.57,3.73-2.24,4.18-.58.16-1.08.06-2.8-.53-1.26-.42-2.81-1-4.59-1.69Z" transform="translate(-8.51 -14.85)"/><path class="cls-2" d="M53.11,52.51a22.54,22.54,0,0,0-3.93-2.62,39.17,39.17,0,0,1-4.45-2.1c-1.26-.71-2.37-1.42-3.36-2.11v-.21a4,4,0,0,1-1.67-2.92c0-1.45,1.67-2.62,1.67-2.62v5.54c.53.45,1.13.87,1.69,1.27,2.12,1.5,2.8,1.24,6.12,3.15l-.12-10.62c1.78.72,3.33,1.27,4.59,1.69,1.72.59,2.22.69,2.8.53,1.67-.45,2.9-2.75,2.24-4.18-.24-.5-.91-.87-2.24-1.59a15.24,15.24,0,0,0-3.8-1.56,19.84,19.84,0,0,0-4-.53v-6.8H41.37v6.8c-.26.13-.64.29-1.11.53-1.55.8-4.67,2.36-6.14,4.71-2,3.23-1,8,1.67,11a11.64,11.64,0,0,0,5,3.15V63.39c.28.24.58.47.9.71a7.73,7.73,0,0,1-.9-.61v-.1a13.63,13.63,0,0,1-2.24-2.52c-1.22-1.77-1.16-2.8-2.23-3.12-1.77-.53-4.77,1.46-5,3.65-.18,1.7,1.39,3,4.47,5.64a39.86,39.86,0,0,0,4.47,3.28v6.81h7.82c.06-1.8.14-3.63.2-5.43a13.94,13.94,0,0,0,5.94-2.25A9.93,9.93,0,0,0,58.12,64c.93-3.68-1-6.75-1.67-7.86A15.49,15.49,0,0,0,53.11,52.51ZM51.42,63c-.91,2.09-3.81,2.7-5.58,2.62a7.39,7.39,0,0,1-4-1.43,10.5,10.5,0,0,0,2.31.9,9.68,9.68,0,0,0,4.47,0V57.3a4,4,0,0,1-.56-.61,2.86,2.86,0,0,1,.56.53v.08C49.73,58.41,52.27,61.06,51.42,63Z" transform="translate(-8.51 -14.85)"/><text class="cls-3" transform="translate(63.97 55.15) scale(0.84 1)"><tspan class="cls-4">P</tspan><tspan x="24.26" y="0">agar</tspan></text></svg>