<svg id="Capa_1" data-name="Capa 1" xmlns="http://www.w3.org/2000/svg" viewBox="0 0 162.37 152.42"><defs><style>.cls-1,.cls-2{fill:none;stroke:#010101;stroke-miterlimit:10;}.cls-1{stroke-width:17.89px;}.cls-2{stroke-width:8.96px;}</style></defs><title>boton de tres rayas- configura- adm finanzas</title><line class="cls-1" x1="162.37" y1="19.32" x2="117.56" y2="19.32"/><line class="cls-1" x1="89.47" y1="19.32" y2="19.32"/><line class="cls-1" x1="162.37" y1="78.69" x2="60.73" y2="78.69"/><line class="cls-1" x1="32.64" y1="78.69" y2="78.69"/><line class="cls-1" x1="162.37" y1="133.1" x2="117.56" y2="133.1"/><line class="cls-1" x1="89.47" y1="133.1" y2="133.1"/><path class="cls-2" d="M121,29.82c0,9.55-6.38,17.31-14.21,17.31S92.56,39.37,92.56,29.82a16.63,16.63,0,0,1,.16-2.47c1-8.36,6.9-14.84,14-14.84s13.07,6.48,14,14.84A15.37,15.37,0,0,1,121,29.82Z" transform="translate(-3.26 -8.02)"/><path class="cls-2" d="M64.15,84.24A15.37,15.37,0,0,1,64,86.71c-1,8.36-6.9,14.84-14,14.84s-13.07-6.48-14-14.84a16.63,16.63,0,0,1-.16-2.47c0-9.55,6.37-17.32,14.21-17.32S64.15,74.69,64.15,84.24Z" transform="translate(-3.26 -8.02)"/><path class="cls-2" d="M121,138.65a15.58,15.58,0,0,1-.17,2.48c-1,8.36-6.9,14.84-14,14.84s-13.07-6.48-14-14.84a16.85,16.85,0,0,1-.16-2.48c0-9.55,6.37-17.31,14.21-17.31S121,129.1,121,138.65Z" transform="translate(-3.26 -8.02)"/></svg>