<svg id="Capa_1" data-name="Capa 1" xmlns="http://www.w3.org/2000/svg" viewBox="0 0 128.88 45.64"><defs><style>.cls-1{fill:#21305a;stroke:#010101;}.cls-1,.cls-2{stroke-miterlimit:10;}.cls-2{fill:none;stroke:#fff;stroke-width:2px;}.cls-3{fill:#fff;}</style></defs><rect class="cls-1" x="0.5" y="0.5" width="127.88" height="44.64" rx="5.79"/><ellipse class="cls-2" cx="21.23" cy="22.1" rx="10.34" ry="12.24"/><path class="cls-3" d="M35.26,40a2.18,2.18,0,0,1-1,1.94H23a2.36,2.36,0,0,1,0-3.89H34.24A2.18,2.18,0,0,1,35.26,40Z" transform="translate(-6.96 -17.8)"/><path class="cls-3" d="M28.37,49.74c-.59,0-1.12-.6-1.34-1.49L27.12,32c.24-.89.77-1.47,1.36-1.46s1.11.59,1.33,1.49l-.09,16.25C29.49,49.17,29,49.75,28.37,49.74Z" transform="translate(-6.96 -17.8)"/><path class="cls-3" d="M49.38,36.92l4.18-12.1h1l4.19,12.1h-1L53.84,25.56h.39L50.39,36.92ZM51,33.68l.28-1h5.33l.29,1Z" transform="translate(-6.96 -17.8)"/><path class="cls-3" d="M62.72,36.57A3,3,0,0,1,61,36a3.77,3.77,0,0,1-1.24-1.57,6.05,6.05,0,0,1,0-4.58A3.64,3.64,0,0,1,61,28.31a3,3,0,0,1,1.76-.55,2.82,2.82,0,0,1,1.65.5,3.31,3.31,0,0,1,1.16,1.48,6.79,6.79,0,0,1,0,4.81,3.37,3.37,0,0,1-1.16,1.5A2.77,2.77,0,0,1,62.72,36.57Zm.17,3.78a4.59,4.59,0,0,1-1.8-.36,3.44,3.44,0,0,1-1.4-1l.47-.94a3.47,3.47,0,0,0,1.19.91,3.59,3.59,0,0,0,1.52.34,2.26,2.26,0,0,0,1.92-.81A4.09,4.09,0,0,0,65.4,36V33.7l.13-1.55-.09-1.56V27.84h.89v8a5.54,5.54,0,0,1-.87,3.45A3.07,3.07,0,0,1,62.89,40.35Zm-.08-4.87a2.26,2.26,0,0,0,1.35-.42,2.92,2.92,0,0,0,.93-1.18,4.11,4.11,0,0,0,.34-1.73,4,4,0,0,0-.34-1.73,2.89,2.89,0,0,0-.93-1.17,2.26,2.26,0,0,0-1.35-.42,2.29,2.29,0,0,0-1.34.42,2.89,2.89,0,0,0-.93,1.17,4.2,4.2,0,0,0-.33,1.73,4.27,4.27,0,0,0,.33,1.73,2.92,2.92,0,0,0,.93,1.18A2.29,2.29,0,0,0,62.81,35.48Z" transform="translate(-6.96 -17.8)"/><path class="cls-3" d="M68.92,36.92V27.84h.89v2.47l-.09-.43a2.91,2.91,0,0,1,1-1.58,2.61,2.61,0,0,1,1.69-.54V29h-.21a2,2,0,0,0-1.7.87,4.29,4.29,0,0,0-.62,2.48v4.64Z" transform="translate(-6.96 -17.8)"/><path class="cls-3" d="M76.91,37A3.14,3.14,0,0,1,75,36.41a4,4,0,0,1-1.27-1.65,6,6,0,0,1-.46-2.39A6.09,6.09,0,0,1,73.74,30,4,4,0,0,1,75,28.35a2.82,2.82,0,0,1,3.44,0A3.8,3.8,0,0,1,79.57,30,6.24,6.24,0,0,1,80,32.37v.18a1.34,1.34,0,0,0,0,.2H74v-.91h5.48l-.36.36a4.45,4.45,0,0,0-.33-1.76,2.87,2.87,0,0,0-.87-1.2,2,2,0,0,0-1.26-.43,2.05,2.05,0,0,0-1.27.43,2.78,2.78,0,0,0-.88,1.21,4.71,4.71,0,0,0-.31,1.78v.19a4.56,4.56,0,0,0,.34,1.83,2.9,2.9,0,0,0,1,1.22,2.51,2.51,0,0,0,2.59.15,2.68,2.68,0,0,0,.94-.9l.52.8a3.18,3.18,0,0,1-1.15,1.1A3,3,0,0,1,76.91,37Z" transform="translate(-6.96 -17.8)"/><path class="cls-3" d="M84.66,36.57A3,3,0,0,1,82.89,36a3.83,3.83,0,0,1-1.23-1.57,6.05,6.05,0,0,1,0-4.58,3.7,3.7,0,0,1,1.23-1.55,3,3,0,0,1,1.77-.55,2.82,2.82,0,0,1,1.65.5,3.45,3.45,0,0,1,1.16,1.48,6,6,0,0,1,.43,2.41,6,6,0,0,1-.43,2.4,3.52,3.52,0,0,1-1.16,1.5A2.77,2.77,0,0,1,84.66,36.57Zm.17,3.78A4.68,4.68,0,0,1,83,40a3.58,3.58,0,0,1-1.4-1l.47-.94a3.6,3.6,0,0,0,2.71,1.25,2.28,2.28,0,0,0,1.93-.81A4.09,4.09,0,0,0,87.34,36V33.7l.13-1.55-.09-1.56V27.84h.89v8a5.54,5.54,0,0,1-.87,3.45A3.09,3.09,0,0,1,84.83,40.35Zm-.08-4.87a2.26,2.26,0,0,0,1.35-.42A2.92,2.92,0,0,0,87,33.88a4.27,4.27,0,0,0,.34-1.73A4.2,4.2,0,0,0,87,30.42a2.89,2.89,0,0,0-.93-1.17,2.36,2.36,0,0,0-2.69,0,2.73,2.73,0,0,0-.93,1.17,4.2,4.2,0,0,0-.33,1.73,4.27,4.27,0,0,0,.33,1.73,2.76,2.76,0,0,0,.93,1.18A2.27,2.27,0,0,0,84.75,35.48Z" transform="translate(-6.96 -17.8)"/><path class="cls-3" d="M92.79,37a2.64,2.64,0,0,1-1.34-.33,2.26,2.26,0,0,1-.87-.94,3,3,0,0,1-.3-1.37,3.2,3.2,0,0,1,.26-1.29,2,2,0,0,1,.84-.93,2.91,2.91,0,0,1,1.56-.36h2.37v.92H93a1.69,1.69,0,0,0-1.38.47,1.77,1.77,0,0,0-.38,1.15A1.59,1.59,0,0,0,92.94,36a2,2,0,0,0,1.35-.47,2.73,2.73,0,0,0,.83-1.37l.21.84a2.84,2.84,0,0,1-.91,1.44A2.49,2.49,0,0,1,92.79,37Zm2.37-.08v-2l0-.33V31.23a2.81,2.81,0,0,0-.49-1.78,1.74,1.74,0,0,0-1.46-.62,2.91,2.91,0,0,0-1.26.29,3.23,3.23,0,0,0-1,.78L90.47,29a3.43,3.43,0,0,1,1.25-.9,3.71,3.71,0,0,1,1.55-.32,2.54,2.54,0,0,1,2.06.87,4.11,4.11,0,0,1,.72,2.65v5.64Z" transform="translate(-6.96 -17.8)"/><path class="cls-3" d="M98.58,36.92V27.84h.89v2.47l-.1-.43a3,3,0,0,1,1-1.58,2.65,2.65,0,0,1,1.69-.54V29h-.21a2,2,0,0,0-1.7.87,4.29,4.29,0,0,0-.62,2.48v4.64Z" transform="translate(-6.96 -17.8)"/><path class="cls-3" d="M51.81,56.55h5.51v1.1H50.84V45.56h6.28v1.1H51.81ZM51.71,51h4.84v1.08H51.71Z" transform="translate(-6.96 -17.8)"/><path class="cls-3" d="M61.14,57.74a4.17,4.17,0,0,1-1.61-.32,3.23,3.23,0,0,1-1.19-.8l.42-1a4,4,0,0,0,1.07.72,3.25,3.25,0,0,0,1.37.3,2,2,0,0,0,1.42-.41,1.44,1.44,0,0,0,.43-1.08,1.17,1.17,0,0,0-.24-.78,1.56,1.56,0,0,0-.64-.44,7.62,7.62,0,0,0-.87-.25c-.33-.07-.65-.15-1-.24a3.44,3.44,0,0,1-.87-.4,2,2,0,0,1-.63-.74,3.15,3.15,0,0,1,.07-2.57,2.29,2.29,0,0,1,.92-.93,3.1,3.1,0,0,1,1.49-.34,3.9,3.9,0,0,1,1.33.24,3.22,3.22,0,0,1,1.1.61l-.4,1a2.86,2.86,0,0,0-1-.6,3.12,3.12,0,0,0-1-.18,1.92,1.92,0,0,0-1.37.42,1.44,1.44,0,0,0-.44,1.08,1.17,1.17,0,0,0,.25.81,1.53,1.53,0,0,0,.64.46,4.94,4.94,0,0,0,.87.27c.32.07.64.15,1,.25a3.46,3.46,0,0,1,.87.4,1.77,1.77,0,0,1,.64.71,2.43,2.43,0,0,1,.25,1.2,2.6,2.6,0,0,1-.34,1.37,2.2,2.2,0,0,1-1,.9A3.47,3.47,0,0,1,61.14,57.74Z" transform="translate(-6.96 -17.8)"/><path class="cls-3" d="M64.6,49.6v-1h4.26v1Zm3.25,8.14a1.75,1.75,0,0,1-1.49-.69,3.16,3.16,0,0,1-.53-1.95V46.58h.93V55a2.09,2.09,0,0,0,.31,1.22,1,1,0,0,0,.88.44,1.3,1.3,0,0,0,1-.47l.33.88a1.57,1.57,0,0,1-.66.48A2,2,0,0,1,67.85,57.74Z" transform="translate(-6.96 -17.8)"/><path class="cls-3" d="M73.83,57.74a2.67,2.67,0,0,1-1.53-.43,2.76,2.76,0,0,1-1-1.3,5.6,5.6,0,0,1-.36-2.16V48.58h.93v5.13a3.68,3.68,0,0,0,.54,2.19,1.79,1.79,0,0,0,1.53.73,2.13,2.13,0,0,0,1.25-.38A2.46,2.46,0,0,0,76,55.11a5,5,0,0,0,.28-1.78V48.58h.93v9.07H76.3V55.17l.14.44a3.23,3.23,0,0,1-1,1.57A2.48,2.48,0,0,1,73.83,57.74Z" transform="translate(-6.96 -17.8)"/><path class="cls-3" d="M82.51,57.74a2.87,2.87,0,0,1-1.76-.59,3.88,3.88,0,0,1-1.22-1.63,6.71,6.71,0,0,1,0-4.83,3.91,3.91,0,0,1,1.22-1.62,2.93,2.93,0,0,1,1.76-.58,2.63,2.63,0,0,1,1.62.54,3.77,3.77,0,0,1,1.14,1.56,6.71,6.71,0,0,1,.42,2.52,6.64,6.64,0,0,1-.42,2.5,3.64,3.64,0,0,1-1.13,1.59A2.62,2.62,0,0,1,82.51,57.74Zm.07-1.09a2.13,2.13,0,0,0,1.31-.44A2.89,2.89,0,0,0,84.81,55a4.9,4.9,0,0,0,.33-1.86,4.84,4.84,0,0,0-.33-1.87A2.86,2.86,0,0,0,83.89,50a2.16,2.16,0,0,0-2.61,0,2.92,2.92,0,0,0-.91,1.23A4.66,4.66,0,0,0,80,53.11,4.71,4.71,0,0,0,80.37,55a3,3,0,0,0,.91,1.24A2.13,2.13,0,0,0,82.58,56.65Zm2.59,1V54.92l.09-1.83-.13-1.83V44.83h.93V57.65Z" transform="translate(-6.96 -17.8)"/><path class="cls-3" d="M89.12,46.58a.62.62,0,0,1-.49-.26,1,1,0,0,1-.19-.63,1,1,0,0,1,.19-.61.61.61,0,0,1,.49-.25.6.6,0,0,1,.48.24,1,1,0,0,1,.2.61,1.05,1.05,0,0,1-.19.64A.59.59,0,0,1,89.12,46.58Zm-.47,11.07V48.58h.93v9.07Z" transform="translate(-6.96 -17.8)"/><path class="cls-3" d="M94.1,57.74a2.54,2.54,0,0,1-1.34-.34,2.17,2.17,0,0,1-.87-.93,3,3,0,0,1-.3-1.37,3.13,3.13,0,0,1,.26-1.29,2,2,0,0,1,.83-.93,3,3,0,0,1,1.57-.36h2.36v.92H94.27a1.72,1.72,0,0,0-1.38.46,1.7,1.7,0,0,0,1.36,2.87,2.07,2.07,0,0,0,1.35-.47,2.72,2.72,0,0,0,.83-1.38l.21.85a2.84,2.84,0,0,1-.91,1.43A2.45,2.45,0,0,1,94.1,57.74Zm2.37-.09v-2l0-.33V52a2.8,2.8,0,0,0-.49-1.78,1.73,1.73,0,0,0-1.46-.62,2.81,2.81,0,0,0-1.27.29,3.15,3.15,0,0,0-1,.78l-.42-.92A3.7,3.7,0,0,1,93,48.81a3.86,3.86,0,0,1,1.54-.32,2.53,2.53,0,0,1,2.06.88A4,4,0,0,1,97.36,52v5.63Z" transform="translate(-6.96 -17.8)"/><path class="cls-3" d="M103.39,48.49a2.59,2.59,0,0,1,1.47.43,2.78,2.78,0,0,1,1,1.29,5.87,5.87,0,0,1,.35,2.17v5.27h-.92V52.5a3.58,3.58,0,0,0-.55-2.17,1.8,1.8,0,0,0-1.52-.73,2.16,2.16,0,0,0-1.28.39,2.41,2.41,0,0,0-.83,1.12,4.68,4.68,0,0,0-.3,1.77v4.77h-.93V48.58h.89v2.49l-.14-.47a3.17,3.17,0,0,1,1.05-1.54A2.67,2.67,0,0,1,103.39,48.49Z" transform="translate(-6.96 -17.8)"/><path class="cls-3" d="M107.65,49.6v-1h4.26v1Zm3.25,8.14a1.75,1.75,0,0,1-1.49-.69,3.16,3.16,0,0,1-.53-1.95V46.58h.93V55a2.09,2.09,0,0,0,.31,1.22,1,1,0,0,0,.88.44,1.3,1.3,0,0,0,1-.47l.33.88a1.57,1.57,0,0,1-.66.48A2,2,0,0,1,110.9,57.74Z" transform="translate(-6.96 -17.8)"/><path class="cls-3" d="M116.71,57.74a3.09,3.09,0,0,1-1.89-.6,3.92,3.92,0,0,1-1.27-1.64,6,6,0,0,1-.45-2.39,6.17,6.17,0,0,1,.43-2.39,4.08,4.08,0,0,1,1.21-1.63,2.71,2.71,0,0,1,1.72-.6,2.79,2.79,0,0,1,1.72.58,3.89,3.89,0,0,1,1.18,1.63,6.21,6.21,0,0,1,.43,2.41v.18a1.27,1.27,0,0,0,0,.2h-6v-.92h5.48l-.36.37a4.6,4.6,0,0,0-.32-1.76,3.06,3.06,0,0,0-.87-1.2,2.09,2.09,0,0,0-2.54,0,2.78,2.78,0,0,0-.88,1.21A4.71,4.71,0,0,0,114,53v.19a4.48,4.48,0,0,0,.34,1.82,3,3,0,0,0,1,1.23,2.44,2.44,0,0,0,1.42.44,2.47,2.47,0,0,0,1.17-.29,2.68,2.68,0,0,0,.94-.9l.52.79a3,3,0,0,1-2.65,1.49Z" transform="translate(-6.96 -17.8)"/><path class="cls-3" d="M123.54,57.74a4.13,4.13,0,0,1-1.61-.32,3.15,3.15,0,0,1-1.19-.8l.41-1a4.06,4.06,0,0,0,1.08.72,3.22,3.22,0,0,0,1.37.3,2,2,0,0,0,1.41-.41,1.4,1.4,0,0,0,.43-1.08,1.17,1.17,0,0,0-.24-.78,1.53,1.53,0,0,0-.63-.44,7.82,7.82,0,0,0-.88-.25q-.48-.1-1-.24a3.14,3.14,0,0,1-.87-.4,2,2,0,0,1-.63-.74,2.6,2.6,0,0,1-.25-1.24,2.75,2.75,0,0,1,.32-1.33,2.23,2.23,0,0,1,.92-.93,3.1,3.1,0,0,1,1.49-.34,3.94,3.94,0,0,1,1.33.24,3.31,3.31,0,0,1,1.1.61l-.41,1a2.74,2.74,0,0,0-1-.6,3.21,3.21,0,0,0-1-.18,1.92,1.92,0,0,0-1.37.42,1.44,1.44,0,0,0-.44,1.08,1.22,1.22,0,0,0,.24.81,1.6,1.6,0,0,0,.64.46,5.34,5.34,0,0,0,.88.27c.32.07.64.15,1,.25a3.7,3.7,0,0,1,.88.4,1.77,1.77,0,0,1,.64.71,2.56,2.56,0,0,1,.24,1.2,2.7,2.7,0,0,1-.33,1.37,2.17,2.17,0,0,1-1,.9A3.39,3.39,0,0,1,123.54,57.74Z" transform="translate(-6.96 -17.8)"/></svg>