<svg id="Capa_1" data-name="Capa 1" xmlns="http://www.w3.org/2000/svg" viewBox="0 0 166.04 73.2"><defs><style>.cls-1{fill:#e6282e;stroke:#010101;stroke-miterlimit:10;stroke-width:1.84px;}.cls-2{fill:#010101;}</style></defs><title>boton de cerrar- ADM finanzas, reportes</title><rect class="cls-1" x="0.92" y="0.92" width="164.2" height="71.36" rx="13.04"/><path class="cls-2" d="M86.31,73.23a10.77,10.77,0,0,1-4.86-1.11A11.7,11.7,0,0,1,77.59,69a15.15,15.15,0,0,1-2.54-4.74,19.77,19.77,0,0,1,0-11.92,15,15,0,0,1,2.56-4.75,11.74,11.74,0,0,1,3.88-3.12,11.14,11.14,0,0,1,9.61,0,9.71,9.71,0,0,1,3.76,3.21l-1.56,2a9,9,0,0,0-3.16-2.67,8.72,8.72,0,0,0-3.73-.81,8.56,8.56,0,0,0-3.89.9,9.33,9.33,0,0,0-3.13,2.56,12.44,12.44,0,0,0-2.08,3.86,16.06,16.06,0,0,0,0,9.7A12.67,12.67,0,0,0,79.39,67a9.45,9.45,0,0,0,3.13,2.56,8.56,8.56,0,0,0,3.89.9,8.46,8.46,0,0,0,3.73-.84,9.05,9.05,0,0,0,3.16-2.69l1.56,2a10,10,0,0,1-3.76,3.23A10.69,10.69,0,0,1,86.31,73.23Z" transform="translate(-17.33 -19.52)"/><path class="cls-2" d="M106.27,73.19a8.1,8.1,0,0,1-4.79-1.45,9.67,9.67,0,0,1-3.23-4,13.88,13.88,0,0,1-1.16-5.81,14.07,14.07,0,0,1,1.12-5.79,9.7,9.7,0,0,1,3.06-4,7.41,7.41,0,0,1,8.75,0,9.5,9.5,0,0,1,3,3.94,14.72,14.72,0,0,1,1.1,5.86c0,.14,0,.29,0,.44s0,.32,0,.48H98.89V60.64h13.94l-.93.88a10.58,10.58,0,0,0-.82-4.26,7.06,7.06,0,0,0-2.21-2.92,5.23,5.23,0,0,0-3.23-1.05,5.34,5.34,0,0,0-3.23,1.05,6.94,6.94,0,0,0-2.23,2.94,11.06,11.06,0,0,0-.79,4.32v.47a10.41,10.41,0,0,0,.88,4.42,7.07,7.07,0,0,0,2.46,3,6.24,6.24,0,0,0,3.61,1.07,6.36,6.36,0,0,0,3-.71,6.47,6.47,0,0,0,2.38-2.18L113,69.58a7.92,7.92,0,0,1-2.91,2.68A8.08,8.08,0,0,1,106.27,73.19Z" transform="translate(-17.33 -19.52)"/><path class="cls-2" d="M119,73v-22h2.26v6l-.23-1a7.2,7.2,0,0,1,2.46-3.85,6.85,6.85,0,0,1,4.29-1.32v2.9l-.27,0a1.1,1.1,0,0,0-.26,0,5.08,5.08,0,0,0-4.33,2.12,10,10,0,0,0-1.56,6V73Z" transform="translate(-17.33 -19.52)"/><path class="cls-2" d="M132,73v-22h2.27v6l-.24-1a7.26,7.26,0,0,1,2.46-3.85,6.9,6.9,0,0,1,4.3-1.32v2.9l-.27,0a1.23,1.23,0,0,0-.27,0A5,5,0,0,0,136,55.71a10,10,0,0,0-1.56,6V73Z" transform="translate(-17.33 -19.52)"/><path class="cls-2" d="M148.72,73.19a6.8,6.8,0,0,1-3.41-.82,5.55,5.55,0,0,1-2.21-2.27,7,7,0,0,1-.76-3.33,7.28,7.28,0,0,1,.65-3.13,5.08,5.08,0,0,1,2.12-2.27,8,8,0,0,1,4-.86h6v2.23h-6c-1.69,0-2.86.38-3.51,1.13a4.12,4.12,0,0,0-1,2.81,4,4,0,0,0,1.16,3,4.5,4.5,0,0,0,3.26,1.13,5.34,5.34,0,0,0,3.44-1.16,6.59,6.59,0,0,0,2.12-3.33l.53,2.05a6.89,6.89,0,0,1-2.31,3.49A6.53,6.53,0,0,1,148.72,73.19Zm6-.21V68.11l-.1-.8V59.17a6.6,6.6,0,0,0-1.25-4.32,4.53,4.53,0,0,0-3.71-1.52,7.51,7.51,0,0,0-3.23.72,7.85,7.85,0,0,0-2.59,1.89l-1.07-2.23a9.11,9.11,0,0,1,3.2-2.2,10,10,0,0,1,3.92-.78,6.59,6.59,0,0,1,5.24,2.12c1.23,1.42,1.85,3.56,1.85,6.44V73Z" transform="translate(-17.33 -19.52)"/><path class="cls-2" d="M163.43,73v-22h2.26v6l-.23-1a7.26,7.26,0,0,1,2.46-3.85,6.85,6.85,0,0,1,4.29-1.32v2.9l-.26,0a1.23,1.23,0,0,0-.27,0,5,5,0,0,0-4.32,2.12,9.94,9.94,0,0,0-1.57,6V73Z" transform="translate(-17.33 -19.52)"/><path class="cls-2" d="M46.83,40.32c.38,3.23,9.16.4,14.47,6.93,3.49,4.27,4.75,11.45,3.16,17.48C61,77.83,45.06,82.06,43.79,79.57S55.27,68.48,54.11,59.12c-.78-6.31-7.65-11.18-11-9.1-3.87,2.41-4.21,15.47-4.21,15.47h0L25.35,37.76c24.72-7.82,31.09-8.66,31.34-7.48C57,31.86,46.39,36.73,46.83,40.32Z" transform="translate(-17.33 -19.52)"/></svg>