<svg id="Capa_1" data-name="Capa 1" xmlns="http://www.w3.org/2000/svg" viewBox="0 0 133.2 51.73"><defs><style>.cls-1{fill:#28285b;}.cls-2{fill:none;stroke:#fff;stroke-miterlimit:10;stroke-width:2px;}.cls-3{fill:#fff;}</style></defs><rect class="cls-1" width="133.2" height="51.73" rx="5.79"/><ellipse class="cls-2" cx="23.9" cy="25.03" rx="11.92" ry="14.18"/><path class="cls-3" d="M35.7,40.18a2.51,2.51,0,0,1-1.18,2.25h-13a2.74,2.74,0,0,1,0-4.51h13A2.53,2.53,0,0,1,35.7,40.18Z" transform="translate(-3.66 -15)"/><path class="cls-3" d="M27.76,51.43c-.68,0-1.29-.69-1.54-1.73l.1-18.82c.27-1,.88-1.7,1.56-1.7s1.29.69,1.54,1.73l-.1,18.83C29.05,50.77,28.43,51.44,27.76,51.43Z" transform="translate(-3.66 -15)"/><path class="cls-3" d="M57,34.91l4.83-14h1.1l4.83,14H66.58L62.15,21.75h.45L58.17,34.91Zm1.9-3.75.34-1.2h6.13l.33,1.2Z" transform="translate(-3.66 -15)"/><path class="cls-3" d="M72.38,34.5a3.35,3.35,0,0,1-2-.65A4.36,4.36,0,0,1,68.92,32a6.54,6.54,0,0,1-.52-2.66,6.46,6.46,0,0,1,.52-2.65,4.4,4.4,0,0,1,1.43-1.8,3.47,3.47,0,0,1,2-.64,3.31,3.31,0,0,1,1.9.58,3.93,3.93,0,0,1,1.35,1.73,7,7,0,0,1,.49,2.78,7,7,0,0,1-.49,2.78,4.08,4.08,0,0,1-1.35,1.74A3.18,3.18,0,0,1,72.38,34.5Zm.2,4.39a5.3,5.3,0,0,1-2.08-.42,4,4,0,0,1-1.61-1.2l.54-1.08a4.12,4.12,0,0,0,3.12,1.44,2.62,2.62,0,0,0,2.22-.93,4.81,4.81,0,0,0,.71-2.9V31.18l.15-1.8-.11-1.8V24.39h1v9.23a6.44,6.44,0,0,1-1,4A3.52,3.52,0,0,1,72.58,38.89Zm-.09-5.65A2.56,2.56,0,0,0,74,32.75a3.2,3.2,0,0,0,1.07-1.36,4.71,4.71,0,0,0,.4-2,4.64,4.64,0,0,0-.4-2A3.26,3.26,0,0,0,74,26a2.62,2.62,0,0,0-1.55-.49,2.67,2.67,0,0,0-1.55.49,3.34,3.34,0,0,0-1.07,1.36,5,5,0,0,0-.38,2,5,5,0,0,0,.38,2,3.27,3.27,0,0,0,1.07,1.36A2.6,2.6,0,0,0,72.49,33.24Z" transform="translate(-3.66 -15)"/><path class="cls-3" d="M79.53,34.91V24.39h1v2.87l-.11-.5a3.38,3.38,0,0,1,1.12-1.84,3,3,0,0,1,1.94-.63v1.38h-.24a2.26,2.26,0,0,0-2,1,5,5,0,0,0-.71,2.87v5.37Z" transform="translate(-3.66 -15)"/><path class="cls-3" d="M88.75,35a3.54,3.54,0,0,1-2.17-.7,4.49,4.49,0,0,1-1.47-1.9,6.91,6.91,0,0,1-.53-2.77,7,7,0,0,1,.51-2.76A4.59,4.59,0,0,1,86.48,25a3.12,3.12,0,0,1,2-.69,3.2,3.2,0,0,1,2,.67,4.46,4.46,0,0,1,1.37,1.89,7.28,7.28,0,0,1,.49,2.79v.21a1.69,1.69,0,0,0,0,.23H85.4V29h6.32l-.43.42a5.18,5.18,0,0,0-.37-2,3.36,3.36,0,0,0-1-1.4,2.31,2.31,0,0,0-1.46-.5A2.35,2.35,0,0,0,87,26a3.25,3.25,0,0,0-1,1.41,5.49,5.49,0,0,0-.36,2.06v.22A5.33,5.33,0,0,0,86,31.81a3.34,3.34,0,0,0,1.12,1.42,2.87,2.87,0,0,0,3,.17,2.94,2.94,0,0,0,1.07-1l.61.92a3.59,3.59,0,0,1-1.32,1.28A3.47,3.47,0,0,1,88.75,35Z" transform="translate(-3.66 -15)"/><path class="cls-3" d="M97.67,34.5a3.35,3.35,0,0,1-2-.65A4.29,4.29,0,0,1,94.21,32a6.54,6.54,0,0,1-.52-2.66,6.46,6.46,0,0,1,.52-2.65,4.32,4.32,0,0,1,1.43-1.8,3.47,3.47,0,0,1,2-.64,3.31,3.31,0,0,1,1.9.58,3.93,3.93,0,0,1,1.35,1.73,7,7,0,0,1,.49,2.78,7,7,0,0,1-.49,2.78,4.08,4.08,0,0,1-1.35,1.74A3.18,3.18,0,0,1,97.67,34.5Zm.2,4.39a5.26,5.26,0,0,1-2.08-.42,4,4,0,0,1-1.62-1.2l.55-1.08a4.12,4.12,0,0,0,3.12,1.44,2.6,2.6,0,0,0,2.21-.93,4.74,4.74,0,0,0,.71-2.9V31.18l.16-1.8-.11-1.8V24.39h1v9.23a6.45,6.45,0,0,1-1,4A3.53,3.53,0,0,1,97.87,38.89Zm-.09-5.65a2.56,2.56,0,0,0,1.55-.49,3.27,3.27,0,0,0,1.07-1.36,4.87,4.87,0,0,0,.39-2,4.79,4.79,0,0,0-.39-2A3.34,3.34,0,0,0,99.33,26a2.62,2.62,0,0,0-1.55-.49,2.67,2.67,0,0,0-1.55.49,3.34,3.34,0,0,0-1.07,1.36,5,5,0,0,0-.38,2,5,5,0,0,0,.38,2,3.27,3.27,0,0,0,1.07,1.36A2.6,2.6,0,0,0,97.78,33.24Z" transform="translate(-3.66 -15)"/><path class="cls-3" d="M107.05,35a2.85,2.85,0,0,1-1.54-.4,2.57,2.57,0,0,1-1-1.08,3.51,3.51,0,0,1-.34-1.59,3.6,3.6,0,0,1,.29-1.49,2.35,2.35,0,0,1,1-1.08,3.43,3.43,0,0,1,1.8-.41H110V30h-2.7a2,2,0,0,0-1.59.54,2,2,0,0,0-.45,1.34,1.85,1.85,0,0,0,2,2,2.34,2.34,0,0,0,1.56-.55,3.14,3.14,0,0,0,1-1.59l.24,1a3.22,3.22,0,0,1-1,1.66A2.81,2.81,0,0,1,107.05,35Zm2.73-.1V32.58l0-.38V28.32a3.29,3.29,0,0,0-.57-2.07,2,2,0,0,0-1.68-.72,3.36,3.36,0,0,0-1.46.34,3.56,3.56,0,0,0-1.18.91l-.48-1.07a4.13,4.13,0,0,1,1.45-1.05,4.46,4.46,0,0,1,1.77-.37,2.93,2.93,0,0,1,2.38,1,4.76,4.76,0,0,1,.84,3.08v6.53Z" transform="translate(-3.66 -15)"/><path class="cls-3" d="M113.72,34.91V24.39h1v2.87l-.1-.5a3.43,3.43,0,0,1,1.11-1.84,3,3,0,0,1,2-.63v1.38h-.24a2.25,2.25,0,0,0-2,1,4.89,4.89,0,0,0-.71,2.87v5.37Z" transform="translate(-3.66 -15)"/><path class="cls-3" d="M58.69,58.93v-14H63a5,5,0,0,1,3,.89,5.92,5.92,0,0,1,2,2.47,9.71,9.71,0,0,1,0,7.29A5.86,5.86,0,0,1,66,58a5,5,0,0,1-3,.89Zm1.12-1.28h3.12a4.12,4.12,0,0,0,2.44-.73,4.84,4.84,0,0,0,1.6-2,8.07,8.07,0,0,0,0-6,4.88,4.88,0,0,0-1.6-2,4.12,4.12,0,0,0-2.44-.73H59.81Z" transform="translate(-3.66 -15)"/><path class="cls-3" d="M74.15,59a3.36,3.36,0,0,1-2.07-.7,4.63,4.63,0,0,1-1.43-1.91,7.53,7.53,0,0,1,0-5.55A4.66,4.66,0,0,1,72.08,49a3.5,3.5,0,0,1,4.16,0,4.64,4.64,0,0,1,1.43,1.88,7.66,7.66,0,0,1,0,5.55,4.6,4.6,0,0,1-1.44,1.9A3.39,3.39,0,0,1,74.15,59Zm0-1.27a2.42,2.42,0,0,0,1.52-.51,3.38,3.38,0,0,0,1-1.44,6.15,6.15,0,0,0,0-4.31,3.38,3.38,0,0,0-1-1.44,2.48,2.48,0,0,0-3,0,3.39,3.39,0,0,0-1.06,1.44,6.15,6.15,0,0,0,0,4.31,3.46,3.46,0,0,0,1.05,1.44A2.39,2.39,0,0,0,74.15,57.77Z" transform="translate(-3.66 -15)"/><path class="cls-3" d="M83.66,59a3.45,3.45,0,0,1-2.1-.7,4.53,4.53,0,0,1-1.45-1.9,7.56,7.56,0,0,1,0-5.56A4.53,4.53,0,0,1,81.56,49a3.49,3.49,0,0,1,2.1-.68,3.37,3.37,0,0,1,1.83.52,3.52,3.52,0,0,1,1.28,1.56l-.8.73a2.94,2.94,0,0,0-1-1.19,2.44,2.44,0,0,0-1.31-.38,2.46,2.46,0,0,0-1.52.51,3.33,3.33,0,0,0-1.07,1.44,6,6,0,0,0,0,4.32,3.3,3.3,0,0,0,1.07,1.43,2.46,2.46,0,0,0,1.52.51A2.35,2.35,0,0,0,85,57.39a2.91,2.91,0,0,0,1-1.16l.8.72a3.54,3.54,0,0,1-1.28,1.55A3.22,3.22,0,0,1,83.66,59Z" transform="translate(-3.66 -15)"/><path class="cls-3" d="M92.09,59a3.56,3.56,0,0,1-2.17-.7,4.55,4.55,0,0,1-1.46-1.9,6.91,6.91,0,0,1-.53-2.77,7,7,0,0,1,.51-2.76A4.57,4.57,0,0,1,89.82,49a3.24,3.24,0,0,1,4,0,4.44,4.44,0,0,1,1.36,1.89,7.09,7.09,0,0,1,.5,2.79,1.48,1.48,0,0,1,0,.21v.23H88.75V53.05h6.31l-.42.42a5.18,5.18,0,0,0-.37-2,3.36,3.36,0,0,0-1-1.4,2.31,2.31,0,0,0-1.46-.5,2.38,2.38,0,0,0-1.47.5,3.27,3.27,0,0,0-1,1.41A5.49,5.49,0,0,0,89,53.51v.22a5.16,5.16,0,0,0,.4,2.11,3.34,3.34,0,0,0,1.12,1.42,2.86,2.86,0,0,0,3,.17,2.89,2.89,0,0,0,1.08-1l.6.92a3.59,3.59,0,0,1-1.32,1.28A3.42,3.42,0,0,1,92.09,59Z" transform="translate(-3.66 -15)"/><path class="cls-3" d="M101.88,48.32a3.05,3.05,0,0,1,1.7.49,3.25,3.25,0,0,1,1.14,1.49,6.59,6.59,0,0,1,.42,2.53v6.1h-1.07V53a4.22,4.22,0,0,0-.63-2.52,2.07,2.07,0,0,0-1.76-.85,2.46,2.46,0,0,0-1.47.45,2.86,2.86,0,0,0-1,1.31,5.43,5.43,0,0,0-.34,2v5.52H97.84V48.42h1v2.89l-.16-.55A3.7,3.7,0,0,1,99.9,49,3.16,3.16,0,0,1,101.88,48.32Z" transform="translate(-3.66 -15)"/><path class="cls-3" d="M106.8,49.6V48.42h4.9V49.6ZM110.54,59a2,2,0,0,1-1.72-.81,3.62,3.62,0,0,1-.61-2.26V46.1h1.07v9.79a2.4,2.4,0,0,0,.36,1.42,1.14,1.14,0,0,0,1,.5,1.48,1.48,0,0,0,1.17-.54l.38,1a1.88,1.88,0,0,1-.76.56A2.43,2.43,0,0,1,110.54,59Z" transform="translate(-3.66 -15)"/><path class="cls-3" d="M117.23,59a3.56,3.56,0,0,1-2.17-.7,4.55,4.55,0,0,1-1.46-1.9,6.74,6.74,0,0,1-.53-2.77,7.19,7.19,0,0,1,.5-2.76A4.59,4.59,0,0,1,115,49a3.24,3.24,0,0,1,4,0,4.53,4.53,0,0,1,1.36,1.89,7.27,7.27,0,0,1,.5,2.79,1.48,1.48,0,0,1,0,.21c0,.07,0,.15,0,.23h-6.89V53.05h6.32l-.42.42a5.18,5.18,0,0,0-.37-2,3.45,3.45,0,0,0-1-1.4,2.4,2.4,0,0,0-2.93,0,3.27,3.27,0,0,0-1,1.41,5.49,5.49,0,0,0-.36,2.06v.22a5.16,5.16,0,0,0,.4,2.11,3.34,3.34,0,0,0,1.12,1.42,2.72,2.72,0,0,0,1.63.51,2.76,2.76,0,0,0,1.35-.34,2.89,2.89,0,0,0,1.08-1l.6.92A3.59,3.59,0,0,1,119,58.59,3.47,3.47,0,0,1,117.23,59Z" transform="translate(-3.66 -15)"/><path class="cls-3" d="M125.1,59a4.64,4.64,0,0,1-1.85-.38,3.64,3.64,0,0,1-1.38-.93l.49-1.12a4.21,4.21,0,0,0,1.23.83,3.65,3.65,0,0,0,1.59.35,2.32,2.32,0,0,0,1.63-.47,1.63,1.63,0,0,0,.49-1.25,1.34,1.34,0,0,0-.28-.91,1.67,1.67,0,0,0-.73-.5,7.64,7.64,0,0,0-1-.29c-.37-.08-.74-.17-1.11-.28a3.53,3.53,0,0,1-1-.47,2.34,2.34,0,0,1-.73-.85,3.1,3.1,0,0,1-.28-1.44,3.28,3.28,0,0,1,.36-1.55,2.63,2.63,0,0,1,1.07-1.07,3.43,3.43,0,0,1,1.71-.39,4.67,4.67,0,0,1,1.54.27,3.81,3.81,0,0,1,1.26.71l-.47,1.14a3.19,3.19,0,0,0-1.13-.69,3.61,3.61,0,0,0-1.2-.21,2.23,2.23,0,0,0-1.58.49,1.67,1.67,0,0,0-.5,1.26,1.42,1.42,0,0,0,.28.94,1.92,1.92,0,0,0,.73.53,6.8,6.8,0,0,0,1,.31c.36.08.73.17,1.1.29a4.41,4.41,0,0,1,1,.46,2.08,2.08,0,0,1,.73.82,2.94,2.94,0,0,1,.28,1.39,3.07,3.07,0,0,1-.38,1.59,2.57,2.57,0,0,1-1.12,1A3.83,3.83,0,0,1,125.1,59Z" transform="translate(-3.66 -15)"/></svg>