<svg id="Capa_1" data-name="Capa 1" xmlns="http://www.w3.org/2000/svg" viewBox="0 0 57.53965 67"><defs><style>.cls-1{fill:#fff;}</style></defs><title>agregar estudiante (lado derecho</title><g id="ICONO_USUARIO" data-name="ICONO USUARIO"><line class="cls-1" x1="6.49946" y1="67" x2="6.49555" y2="67"/><path class="cls-1" d="M22.21107,49.07435l-.10681-.09142C11.85362,52.41389,3.85629,62.02778,1.46035,74H7.9559c1.24779-7.65588,4.06379-14.36076,7.87749-19.19093A23.52277,23.52277,0,0,1,22.21107,49.07435Z" transform="translate(-1.46035 -7)"/><path class="cls-1" d="M30.16541,48.84212c6.89672,0,12.48833-6.38272,12.48833-14.25534,0-7.87335-5.59161-14.25534-12.48834-14.25534-6.90322,0-12.49483,6.38273-12.49483,14.25534C17.67057,42.46014,23.26218,48.84212,30.16541,48.84212Z" transform="translate(-1.46035 -7)"/></g><path class="cls-1" d="M43.28144,21.08887c-1.612.93729-3.2318,1.884-4.84378,2.82133l-9.6015,5.5954q-3.99079-2.21543-7.98163-4.42142-4.12-2.30062-8.23992-4.57282c-.047-.02843-.10173-.0568-.14868-.08523-.806-.445-1.60415-.89-2.41017-1.33491Q20.23245,14.34791,30.40119,9.6236q6.06848,2.34318,12.129,4.6959H38.17941a3.81607,3.81607,0,0,0-1.745,3.38943,3.79952,3.79952,0,0,0,1.745,3.37994Z" transform="translate(-1.46035 -7)"/><path class="cls-1" d="M12.61644,19.22316l.03765,13.05938a5.75346,5.75346,0,0,1-.25993,2.12506c-.64721,1.62709-2.4576,1.83944-3.95,1.82621a10.07539,10.07539,0,0,0,2.73931-5.429" transform="translate(-1.46035 -7)"/><path class="cls-1" d="M49.9661,74h-39.564c1.25217-7.19959,3.81346-13.475,7.21587-18.02481A19.93881,19.93881,0,0,1,25.15,49.56408a11.80182,11.80182,0,0,0,10.56134,0,16.8526,16.8526,0,0,1,3.97951,2.573,22.45853,22.45853,0,0,1,3.55261,3.8381c3.51411,4.745,5.65165,11.57388,6.11546,13.10015Z" transform="translate(-1.46035 -7)"/><path class="cls-1" d="M38.24928,49.07435l.10681-.09142C48.60673,52.41389,56.60406,62.02778,59,74H52.50445c-1.24779-7.65588-4.06378-14.36076-7.87749-19.19093A23.52277,23.52277,0,0,0,38.24928,49.07435Z" transform="translate(-1.46035 -7)"/><path class="cls-1" d="M55.21481,17.67776a2.3711,2.3711,0,0,1-1.384,2.18354H38.6009a2.41934,2.41934,0,0,1,0-4.3732H53.83085A2.37993,2.37993,0,0,1,55.21481,17.67776Z" transform="translate(-1.46035 -7)"/><path class="cls-1" d="M45.88272,28.60609a2.08117,2.08117,0,0,1-1.80747-1.67924l.12437-18.2832A2.06508,2.06508,0,0,1,46.0297,7.00007a2.0864,2.0864,0,0,1,1.81257,1.67929l-.12437,18.2832A2.07027,2.07027,0,0,1,45.88272,28.60609Z" transform="translate(-1.46035 -7)"/></svg>