<svg id="Capa_1" data-name="Capa 1" xmlns="http://www.w3.org/2000/svg" viewBox="0 0 374.49 393.79"><defs><style>.cls-1,.cls-2,.cls-3{fill:none;}.cls-1,.cls-2,.cls-3,.cls-4{stroke:#fff;stroke-miterlimit:10;}.cls-1{stroke-width:26.49px;}.cls-2{stroke-width:8.72px;}.cls-3{stroke-width:13.24px;}.cls-4{fill:#fff;stroke-width:1.03px;}</style></defs><title>AGREGAR MATERIA Y AGREGAR MATERIA HABIL</title><path class="cls-1" d="M297.72,73.78V195.85a69.89,69.89,0,0,0-13.05-1.07c-50.49,0-91.32,42.08-91.32,94.11S234.18,383,284.67,383H75.93V73.78Z" transform="translate(-14.76 -6.76)"/><path class="cls-2" d="M297.72,381.92V383H284.67A69.05,69.05,0,0,0,297.72,381.92Z" transform="translate(-14.76 -6.76)"/><path class="cls-1" d="M297.72,73.78H75.93A46.37,46.37,0,0,1,49.84,60.33C34.46,44.38,27.68,23,28,20H297.72c-14.31,0-26.09,12.14-26.09,26.89S283.41,73.78,297.72,73.78Z" transform="translate(-14.76 -6.76)"/><path class="cls-1" d="M75.93,383a74.26,74.26,0,0,1-26.09-13.44C44.11,365,31.08,360.17,28,356.11V20c-.33,3,6.45,24.38,21.83,40.33A46.37,46.37,0,0,0,75.93,73.78Z" transform="translate(-14.76 -6.76)"/><line class="cls-1" x1="93.79" y1="134.24" x2="230.78" y2="134.24"/><line class="cls-3" x1="93.79" y1="188.02" x2="230.78" y2="188.02"/><line class="cls-3" x1="93.79" y1="241.8" x2="191.64" y2="241.8"/><path class="cls-1" d="M376,288.89c0,47.46-33.92,86.58-78.28,93A69.05,69.05,0,0,1,284.67,383c-50.49,0-91.32-42.08-91.32-94.11s40.83-94.11,91.32-94.11a69.89,69.89,0,0,1,13.05,1.07C342.08,202.31,376,241.43,376,288.89Z" transform="translate(-14.76 -6.76)"/><rect class="cls-4" x="256.87" y="214.91" width="26.09" height="134.44" rx="12.69"/><rect class="cls-4" x="271.23" y="223.66" width="26.89" height="130.47" rx="13.08" transform="translate(558.81 -2.54) rotate(90)"/></svg>