<svg id="Capa_1" data-name="Capa 1" xmlns="http://www.w3.org/2000/svg" viewBox="0 0 58.57 66.05"><defs><style>.cls-1,.cls-2{fill:#fff;}.cls-1{stroke:#fff;stroke-miterlimit:10;stroke-width:2.16px;}</style></defs><title>estudiante que va en medio</title><g id="ICONO_USUARIO" data-name="ICONO USUARIO"><line class="cls-1" x1="6.62" y1="64.97" x2="6.61" y2="64.97"/><path class="cls-2" d="M22.55,46.85l-.1-.1C12,50.22,3.87,59.92,1.43,72H8.05c1.27-7.73,4.13-14.49,8-19.37A24,24,0,0,1,22.55,46.85Z" transform="translate(-1.43 -7.03)"/><path class="cls-2" d="M30.65,46.61c7,0,12.71-6.44,12.71-14.38S37.67,17.84,30.65,17.84,17.93,24.28,17.93,32.23,23.62,46.61,30.65,46.61Z" transform="translate(-1.43 -7.03)"/></g><path class="cls-2" d="M30.89,7,10.18,16.59,29.3,27.1,50.8,14.68Z" transform="translate(-1.43 -7.03)"/><path class="cls-2" d="M11.85,16.72l0,10.65c0,.84,0,1.69,0,2.53A3.75,3.75,0,0,1,11.54,32c-.61.95-2,1-3,1l.67,1.6a11.29,11.29,0,0,0,3-5.89c.22-1.18-1.59-1.69-1.81-.5a9.63,9.63,0,0,1-2.55,5.07,1,1,0,0,0,.66,1.6,6,6,0,0,0,3.82-1c1.38-1.1,1.41-2.81,1.4-4.43l0-12.68a.94.94,0,0,0-1.88,0Z" transform="translate(-1.43 -7.03)"/><path class="cls-2" d="M50.8,72H10.53c1.28-7.27,3.89-13.6,7.35-18.19a20.25,20.25,0,0,1,7.67-6.47,12,12,0,0,0,5.37,1.26,12.22,12.22,0,0,0,5.38-1.26,17.16,17.16,0,0,1,4.05,2.6A22.4,22.4,0,0,1,44,53.81C47.54,58.6,49.71,65.49,50.19,67" transform="translate(-1.43 -7.03)"/><path class="cls-2" d="M60,72H53.39c-1.27-7.73-4.14-14.49-8-19.37a23.89,23.89,0,0,0-6.49-5.78l.11-.1C49.42,50.22,57.56,59.92,60,72" transform="translate(-1.43 -7.03)"/></svg>