<svg id="Capa_1" data-name="Capa 1" xmlns="http://www.w3.org/2000/svg" viewBox="0 0 271.33 328.72"><defs><style>.cls-1{fill:#fff;stroke-width:13.76px;}.cls-1,.cls-2,.cls-3{stroke:#fff;stroke-miterlimit:10;}.cls-2,.cls-3{fill:none;}.cls-2{stroke-width:23.01px;}.cls-3{stroke-width:11.5px;}</style></defs><title>ICONO DE LISTA DE MATERIAS Y LISTA DE MATERIAS HABILES</title><path class="cls-1" d="M82,371c-6.68-1-20-3.75-32.73-11.56-15.82-9.73-21.13-21.5-22.86-26.13-5.11-209.76-3.44-265.9,0-266,1.65,0,2.07,12.82,16.37,23.13,9.95,7.16,22.57,10.18,32.74,11.56Z" transform="translate(-16.29 -50.33)"/><line class="cls-2" x1="99.78" y1="109.89" x2="223.31" y2="109.89"/><line class="cls-3" x1="99.78" y1="154.88" x2="223.31" y2="154.88"/><line class="cls-3" x1="99.78" y1="199.86" x2="224.53" y2="202.58"/><rect class="cls-2" x="77.47" y="50.74" width="182.36" height="264.31"/><path class="cls-3" d="M282,89.9H82c-2,.21-20.88,1.9-35.29-8.46S34.64,57.55,34.93,56.08H282c-12.91,0-23.53,7.63-23.53,16.91S269.09,89.9,282,89.9Z" transform="translate(-16.29 -50.33)"/></svg>