<svg id="Capa_1" data-name="Capa 1" xmlns="http://www.w3.org/2000/svg" viewBox="0 0 86 83.97052"><defs><style>.cls-1{fill:#fff;opacity:0.71;}.cls-2,.cls-3{stroke:#000;stroke-miterlimit:10;}.cls-2{stroke-width:0.77608px;}.cls-3{fill:none;stroke-width:2.32824px;}</style></defs><title>icono_estudiante_negro</title><ellipse class="cls-1" cx="43" cy="41.98526" rx="43" ry="41.98526"/><g id="ICONO_USUARIO" data-name="ICONO USUARIO"><line class="cls-2" x1="22.00547" y1="67.94712" x2="22.0017" y2="67.94717"/><path class="cls-2" d="M37.4969,49.81416l-.10435-.07547A28.74959,28.74959,0,0,0,17.72031,71.03006l6.28138-.08289a33.084,33.084,0,0,1,7.39452-16.23134A21.98586,21.98586,0,0,1,37.4969,49.81416Z" transform="translate(-2 -3)"/><path class="cls-2" d="M57.09756,37.37321a12.08242,12.08242,0,0,1-24.162.31881,11.85032,11.85032,0,0,1,2.97679-8.03055,12.06011,12.06011,0,0,1,8.9422-4.10566,12.26632,12.26632,0,0,1,2.98653.32675l.0945,6.82793,8.08931-.10674A11.767,11.767,0,0,1,57.09756,37.37321Z" transform="translate(-2 -3)"/></g><path class="cls-2" d="M44.95691,16.54446c.91993.29824,1.8474.59643,2.76723.88676l.18856,13.624q-2.11892,1.1144-4.23793,2.22091-3.88484-1.79937-7.76239-3.61466-4.01073-1.86926-8.029-3.73841c-.04573-.0233-.099-.0465-.14477-.06975-.78462-.36376-1.56161-.72758-2.34623-1.0913Q35.17853,20.65714,44.95691,16.54446Z" transform="translate(-2 -3)"/><path d="M27.87133,24.84534l.18834,10.97651a4.24482,4.24482,0,0,1-.22664,1.78952c-.60694,1.3759-2.35518,1.57749-3.79855,1.58541a8.12806,8.12806,0,0,0,2.58584-4.5983" transform="translate(-2 -3)"/><path d="M26.70721,24.84534l.15695,9.14709c.01242.72391.03779,1.449.03457,2.173a1.71351,1.71351,0,0,1-.34224,1.27808,3.7237,3.7237,0,0,1-2.522.58918l.82316,1.98728a9.37275,9.37275,0,0,0,2.88522-5.112c.292-1.46321-1.95159-2.08939-2.24507-.61894a7.28953,7.28953,0,0,1-2.28646,4.08461,1.17576,1.17576,0,0,0,.82315,1.98728,6.6263,6.6263,0,0,0,3.59964-.81579c1.3562-.90152,1.61191-2.33592,1.58726-3.864q-.08742-5.418-.18593-10.83578a1.16482,1.16482,0,0,0-2.32824,0Z" transform="translate(-2 -3)"/><path class="cls-2" d="M64.62682,70.41113,26.36721,70.916a33.3059,33.3059,0,0,1,6.76827-15.24272,18.8459,18.8459,0,0,1,7.20919-5.48493,12.96148,12.96148,0,0,0,10.21314-.13476,16.76937,16.76937,0,0,1,3.87823,2.112,20.17826,20.17826,0,0,1,3.48013,3.18076c3.45346,3.94354,5.6,9.65624,6.06624,10.93322Z" transform="translate(-2 -3)"/><path class="cls-2" d="M53.00634,49.60952l.10222-.0782A28.80018,28.80018,0,0,1,73.36287,70.29586l-6.28139.08288a33.13248,33.13248,0,0,0-7.841-16.03031A22.02671,22.02671,0,0,0,53.00634,49.60952Z" transform="translate(-2 -3)"/><path class="cls-3" d="M49.94143,13.58145l.04011,2.89818q.09561,6.90675.19118,13.81352l15.13434-.19969-.23129-16.7117-11.64231.15362Zm11.39668,11.5821a4.29466,4.29466,0,0,1-3.18121,1.50771l-.34924.0046a4.17512,4.17512,0,0,1-2.29713-.65757A5.10262,5.10262,0,0,1,53.20977,21.735a5.35272,5.35272,0,0,1,.57088-2.50189,4.95914,4.95914,0,0,1,.70746-1.04435A4.29452,4.29452,0,0,1,57.66932,16.681l.34924-.00461a4.782,4.782,0,0,1,4.5978,4.93449A5.24846,5.24846,0,0,1,61.33811,25.16355Z" transform="translate(-2 -3)"/></svg>