<svg id="Capa_1" data-name="Capa 1" xmlns="http://www.w3.org/2000/svg" viewBox="0 0 206.07 184.98"><defs><style>.cls-1{fill:#ebd800;}.cls-2{fill:#242a54;}.cls-3{fill:#232952;}.cls-4{fill:#232850;}.cls-5{fill:#f7d834;}.cls-6{fill:#f5d93a;}.cls-7{fill:#27274b;}.cls-8{fill:#222549;}.cls-9{fill:#f5da42;}.cls-10{fill:#252549;}.cls-11{fill:#f5d946;}.cls-12{fill:#f7de56;}.cls-13{fill:#fff;}.cls-14{fill:#fafbfb;}</style></defs><ellipse class="cls-1" cx="115.94" cy="64.83" rx="5.76" ry="5.42"/><ellipse class="cls-1" cx="139.84" cy="64.83" rx="5.76" ry="5.42"/><ellipse class="cls-1" cx="95.62" cy="81.72" rx="5.76" ry="5.42"/><ellipse class="cls-1" cx="76.5" cy="74.96" rx="5.76" ry="5.42"/><line class="cls-1" x1="84.82" y1="37.29" x2="89.7" y2="51.71"/><path class="cls-1" d="M121.08,44.38,125.35,57,126,58.8a1.5,1.5,0,0,0,1.45,1c.52,0,1.11-.44.91-1L124,46.11l-.6-1.79a1.5,1.5,0,0,0-1.45-1c-.52,0-1.11.44-.91,1Z" transform="translate(-37.44 -7.06)"/><line class="cls-1" x1="95.53" y1="80.97" x2="89.7" y2="51.71"/><path class="cls-1" d="M134.18,87.68l-5.1-25.57-.74-3.69c-.15-.76-2.57-.14-2.4.69L131,84.68l.73,3.69c.15.76,2.57.14,2.41-.69Z" transform="translate(-37.44 -7.06)"/><line class="cls-1" x1="114.71" y1="61.72" x2="95.53" y2="80.97"/><path class="cls-1" d="M150.91,68.64,134.14,85.47l-2.41,2.42a7.08,7.08,0,0,0,1.23.31c.28,0,1,.2,1.26,0L151,71.33l2.41-2.42a7.18,7.18,0,0,0-1.22-.31c-.29,0-1-.2-1.26,0Z" transform="translate(-37.44 -7.06)"/><line class="cls-1" x1="108.06" y1="43.37" x2="114.71" y2="61.72"/><path class="cls-1" d="M144.32,50.83l5.81,16,.84,2.31c.11.3,2.47-.52,2.36-.81l-5.81-16-.84-2.3c-.11-.31-2.47.52-2.36.8Z" transform="translate(-37.44 -7.06)"/><line class="cls-1" x1="97.19" y1="31.54" x2="108.06" y2="43.37"/><path class="cls-1" d="M133.5,38.18,143,48.54,144.37,50a3.78,3.78,0,0,0,1.39.65,2.14,2.14,0,0,0,.72.22s.25.06.15,0l-9.51-10.36L135.77,39a3.67,3.67,0,0,0-1.4-.65,2.11,2.11,0,0,0-.71-.23s-.26-.05-.16,0Z" transform="translate(-37.44 -7.06)"/><line class="cls-1" x1="114.72" y1="31.79" x2="121.38" y2="36.74"/><path class="cls-1" d="M152.3,39.8l5.84,4.34.82.61c.12.09.36.21.52.11s.15-.36.12-.51a2.45,2.45,0,0,0-.93-1.5l-5.84-4.34L152,37.9c-.12-.09-.36-.21-.51-.11s-.15.36-.13.51a2.54,2.54,0,0,0,.93,1.5Z" transform="translate(-37.44 -7.06)"/><line class="cls-1" x1="129.71" y1="43.37" x2="121.38" y2="36.74"/><path class="cls-1" d="M168.25,50.39l-7.31-5.81-1-.82a2.76,2.76,0,0,0-1.67-.38c-.24,0-.94.12-.52.45L165,49.65l1,.82a2.76,2.76,0,0,0,1.67.38c.24,0,.94-.12.52-.46Z" transform="translate(-37.44 -7.06)"/><line class="cls-1" x1="139.69" y1="63.26" x2="129.71" y2="43.37"/><path class="cls-1" d="M177.84,70.26l-8.73-17.41-1.24-2.47c-.2-.39-.65-1.16-1.2-1.07s-.4.83-.23,1.17l8.73,17.42,1.24,2.47c.2.39.65,1.16,1.2,1.06s.4-.83.23-1.17Z" transform="translate(-37.44 -7.06)"/><line class="cls-1" x1="146.79" y1="54.65" x2="139.69" y2="63.26"/><path class="cls-1" d="M183.21,61.59,177,69.13l-.88,1.07a.59.59,0,0,0,.45,1,1.85,1.85,0,0,0,1.6-.74l6.23-7.54.88-1.07a.59.59,0,0,0-.45-1,1.85,1.85,0,0,0-1.6.74Z" transform="translate(-37.44 -7.06)"/><line class="cls-1" x1="114.71" y1="61.72" x2="139.69" y2="63.26"/><path class="cls-1" d="M151.56,69.6,173.39,71l3.15.19a1.87,1.87,0,0,0,1.6-.75c.25-.43.14-.87-.42-.9l-21.84-1.35L152.74,68a1.85,1.85,0,0,0-1.6.75c-.26.43-.15.87.42.9Z" transform="translate(-37.44 -7.06)"/><line class="cls-1" x1="129.71" y1="43.37" x2="114.71" y2="61.72"/><path class="cls-1" d="M166,50.31l-13.12,16L151,68.65c-.37.46.25.77.62.82a1.89,1.89,0,0,0,1.63-.57l13.12-16,1.89-2.31c.37-.45-.25-.76-.62-.82a1.9,1.9,0,0,0-1.63.58Z" transform="translate(-37.44 -7.06)"/><line class="cls-1" x1="121.38" y1="36.74" x2="108.06" y2="43.37"/><path class="cls-1" d="M158,43.21,146.3,49l-1.65.82a.6.6,0,0,0-.06,1.08,1.78,1.78,0,0,0,1.76.1L158,45.21l1.65-.82a.6.6,0,0,0,.06-1.08,1.8,1.8,0,0,0-1.77-.1Z" transform="translate(-37.44 -7.06)"/><line class="cls-1" x1="89.7" y1="51.71" x2="108.06" y2="43.37"/><path class="cls-1" d="M127.79,59.83l16.06-7.29,2.3-1c1.19-.54-.1-2.68-1.3-2.14l-16.07,7.29-2.29,1.05c-1.19.54.09,2.68,1.3,2.13Z" transform="translate(-37.44 -7.06)"/><line class="cls-1" x1="114.71" y1="61.72" x2="89.7" y2="51.71"/><path class="cls-1" d="M152.35,68.33,130.5,59.58l-3.16-1.26c-.26-.1-1.15-.49-1.34-.08s.7.87.94,1L148.79,68l3.15,1.27c.27.1,1.15.49,1.34.08s-.7-.88-.93-1Z" transform="translate(-37.44 -7.06)"/><line class="cls-1" x1="66.62" y1="57.59" x2="89.7" y2="51.71"/><path class="cls-1" d="M105.1,65.27l20.23-5.16,2.84-.73c.29-.07-.58-.61-.64-.65-.3-.18-1-.69-1.43-.59L105.87,63.3,103,64c-.29.07.58.61.64.65.3.18,1,.69,1.43.59Z" transform="translate(-37.44 -7.06)"/><line class="cls-1" x1="77.55" y1="72.93" x2="66.16" y2="58.84"/><path class="cls-1" d="M116,79.46,106,67.12l-1.42-1.75c-.81-1-3-.17-2,1l10,12.35L114,80.51c.81,1,3,.17,2-1.05Z" transform="translate(-37.44 -7.06)"/><line class="cls-1" x1="89.7" y1="51.71" x2="77.55" y2="72.93"/><path class="cls-1" d="M126.05,58.14l-10.64,18.6-1.5,2.63c-.43.74,1.73,2,2.17,1.24L126.72,62l1.5-2.63c.43-.74-1.73-2-2.17-1.24Z" transform="translate(-37.44 -7.06)"/><line class="cls-1" x1="95.53" y1="80.97" x2="77.55" y2="72.93"/><path class="cls-1" d="M133.57,87.25l-15.74-7-2.25-1c-1.11-.5-2.67.88-1.18,1.55l15.73,7,2.25,1c1.12.5,2.68-.88,1.19-1.55Z" transform="translate(-37.44 -7.06)"/><line class="cls-1" x1="63.72" y1="73.56" x2="77.55" y2="72.93"/><path class="cls-1" d="M101.53,81.8l12.09-.56,1.74-.08c.63,0,.73-.88.59-1.33a1.37,1.37,0,0,0-1.33-1l-12.09.56-1.74.08c-.62,0-.72.87-.58,1.33a1.35,1.35,0,0,0,1.32,1Z" transform="translate(-37.44 -7.06)"/><path class="cls-2" d="M206.62,97.5c-13.85,28-41.64,44-65.36,42.09-7.72-.63-26.85-4.13-41.14-18-1.08-1-1.86-1.89-2.17-2.24C87,107.39,81.2,89.4,83.74,73.86c3.94-24.14,28.31-43.78,28.31-43.78h0S83.61,55.42,87.34,86.26c2,16.47,12.53,27.83,17,32.11,13,12.31,31.56,18.63,48.26,17C186.28,132,206.62,97.5,206.62,97.5Z" transform="translate(-37.44 -7.06)"/><path class="cls-3" d="M190.73,75c.79,16.76-10,28.17-13.29,31.68-8.33,8.83-17.94,12.58-18,12.46A61.21,61.21,0,0,0,174.7,108c2.7-2.84,14.86-15.63,13-33.14-1.62-15.62-13.93-30.8-32.12-35.27A46,46,0,0,0,112.34,52a37.8,37.8,0,0,0-9.21,15.44c-2.32,8-2.09,18.7-2.09,18.7h0a43.36,43.36,0,0,1,8.11-31.93c1.31-1.73,14.27-18.3,37.06-18.37,2.07,0,22.31.26,35.36,16A40.28,40.28,0,0,1,190.73,75Z" transform="translate(-37.44 -7.06)"/><path class="cls-3" d="M153.7,7.06c12.76,3.18,24.54,6.16,36.35,9a5.51,5.51,0,0,1,3.62,2.6c6.85,10.89,13.68,21.79,20.65,32.88-10.61-1.55-10.8-1.36-9.39,8.85a14.3,14.3,0,0,0,.62,1.55c.25.9.55,2-.82,2.2-1.86.23-1.57-1.19-1.55-2.27a42.69,42.69,0,0,1,.21-6.7c.44-2.45.11-4.23-.91-5.46-1.42-1.71-3.86-2-5.95-2.2-7.1-.82-13.87-3.38-20.89-4.69Z" transform="translate(-37.44 -7.06)"/><path class="cls-4" d="M158.62,22.77c.76-1,1.76-2.44,1.76-2.44L173.7,44.21l20.44,5.22c-1.45,1.76-3,3.75-4.46,6a78.88,78.88,0,0,0-4.19,6.91,45.91,45.91,0,0,1-10.8-.56c-3.9-.67-8.52-1.47-13.26-4.56a27,27,0,0,1-10.87-14.65,26.32,26.32,0,0,1-1.14-7.94" transform="translate(-37.44 -7.06)"/><path class="cls-5" d="M117.32,175.94c-4.68-1.89-8.38-4.33-7.42-10,.7-4.15,2.88-7.22,7.22-7.92,5.73-.93,11.64-1.25,16,3.53a3,3,0,0,1-.26,4.55c-1.63,1.33-2.91.05-4-1.08s-2.46-2.52-4.41-2.63c-3.56-.2-7.8-1-9.07,3.27-1.4,4.65,3.08,4.79,6.19,5.69,1.9.54,3.81,1.06,5.75,1.46,4.46.92,7.85,3.09,8.41,7.55.62,5-1.72,8.62-6.8,10.64-5.67,2.25-14.34.84-17.64-3-1.15-1.35-2.59-3.13-1.61-4.5,1.39-1.94,3.49-.94,5.12.39,3.1,4.46,7.76,2.66,11.88,2.39a3.31,3.31,0,0,0,2.85-3.2,4.38,4.38,0,0,0-2.86-4A57.08,57.08,0,0,0,117.32,175.94Z" transform="translate(-37.44 -7.06)"/><path class="cls-6" d="M218.53,181.43a22.22,22.22,0,0,0-3.56,0c-1.78.3-4.93-1.11-5,1.24s2.43,4.14,5.32,4.33a6.55,6.55,0,0,0,3.44-.51c2.06-1.2,4.4-2.21,5.4.42s-2,3.47-3.87,4.15c-5.13,1.88-9.8.47-13.59-3-4-3.63-4.58-11.59-1.51-16.22s7.59-6.77,13.1-5.68a12.35,12.35,0,0,1,10.24,10.42c.53,2.77-.56,4.83-4,4.93-2,.05-4,0-5.94,0Z" transform="translate(-37.44 -7.06)"/><path class="cls-7" d="M37.44,174.4v-1.68c0-15.35,0-15.36,16.35-14.64,1.59.08,4-.72,3.89,2-.1,2.36-2.23,1.56-3.65,1.62a37.69,37.69,0,0,1-6.55-.05c-4.39-.59-5.67.85-5.76,5.13-.09,4.78,1.47,6,6.35,5.79,2.63-.12,7.84-2.25,7.83,1.63,0,3.6-5.19,1-7.95,1.73-1.93.54-5.15-1.19-5.7,1.24-.72,3.19-.88,7,.37,9.9.8,1.88,4.81.19,7.25.77,2.72.65,7.66-2.29,7.75,1.89.05,3.08-4.94,1.44-7.59,1.49-12.6.27-12.6.16-12.59-11.8Z" transform="translate(-37.44 -7.06)"/><path class="cls-8" d="M78.8,168.86c0-2.79,0-5.35,0-7.92,0-1.28-.15-2.73,1.92-2.84s2.09,1.27,2.08,2.62c0,7.11.26,14.25-.17,21.34-.33,5.32-5.32,9.34-10.73,9.54s-9.47-3.08-10.84-8.57c-2.44-9.74,2.35-17,10.81-16.56C74.41,166.59,76.14,168.24,78.8,168.86Z" transform="translate(-37.44 -7.06)"/><path class="cls-9" d="M190.61,182.63c1.84-4.74,3.52-8.91,5.09-13.13.65-1.76,1.51-3.26,3.76-2.56,2.43.76,1.69,2.87,1.18,4.28-2.19,6-4.63,11.91-7,17.86a3.46,3.46,0,0,1-3.47,2.54,3.15,3.15,0,0,1-3.06-2.27q-3.9-9.67-7.64-19.4c-.42-1.08-.38-2.35,1.05-2.83,1.64-.54,3.25-.34,4,1.39,1.17,2.78,2.25,5.59,3.26,8.42C188.46,178.77,188.76,180.75,190.61,182.63Z" transform="translate(-37.44 -7.06)"/><path class="cls-10" d="M87.2,176.79c0-2.43,0-4.87,0-7.3,0-1.16.22-2.22,1.84-2.34,2-.14,2.36.93,2.35,2.42,0,3.94,0,7.87-.07,11.81-.06,3.66,1.37,6.58,5.55,6.53,3.94,0,5-2.9,4.9-6.35-.15-3.93,0-7.87,0-11.8,0-1.41.18-2.61,2.17-2.62,1.82,0,2.45.89,2.43,2.45,0,4.86.3,9.77-.26,14.58-.55,4.61-5.69,8.06-10.38,7.34-5-.77-8.41-3.29-8.52-8.53C87.15,180.92,87.19,178.85,87.2,176.79Z" transform="translate(-37.44 -7.06)"/><path class="cls-11" d="M166.51,171.48a11.1,11.1,0,0,1,7.75-5.46c1.6-.31,2.74,0,3.45,1.35.89,1.67.13,3.35-1.45,3.62-5.92,1-5.24,5.17-5.29,9,0,2.6,0,5.21.17,7.8.26,3.39-1.57,4.25-4.7,3.79C164,184.89,162.07,178.18,166.51,171.48Z" transform="translate(-37.44 -7.06)"/><path class="cls-12" d="M231,179.77c-.1-8.6,2.29-12.45,8.23-13.52,1.7-.31,3.31-.5,4,1.23a2.41,2.41,0,0,1-1.67,3.2c-5.25,1.66-5,5.55-4.85,9.59.12,2.8,0,5.6,0,8.41,0,1.61-.47,3-2.63,3s-2.47-1.36-2.55-3C231.44,185.73,231.23,182.75,231,179.77Z" transform="translate(-37.44 -7.06)"/><path class="cls-13" d="M216.06,176.93c-2.21-.81-6.12,1.34-6.11-2.42,0-2.3,3.07-3.92,5.79-3.95,2.94,0,6.18,1.4,6.22,4.12C222,178.78,218,176,216.06,176.93Z" transform="translate(-37.44 -7.06)"/><path class="cls-14" d="M78.59,179c-.12,5.25-3.07,9-7.1,8.92s-6.67-3.72-6.63-9.16,2.67-8.84,7-8.71S78.71,173.57,78.59,179Z" transform="translate(-37.44 -7.06)"/><path class="cls-3" d="M203.5,61.53c.65,0,1.59-.18,1.9-.84s-.24-1.07-.85-1.07-1.59.18-1.89.85.24,1.06.84,1.06Z" transform="translate(-37.44 -7.06)"/><path class="cls-6" d="M152.06,181.47a21,21,0,0,0-3.55,0c-1.79.3-4.94-1.12-5,1.24s2.43,4.14,5.32,4.33a6.46,6.46,0,0,0,3.44-.52c2.06-1.19,4.39-2.2,5.4.43,1,2.48-2,3.46-3.88,4.15-5.13,1.87-9.79.47-13.58-3-4-3.63-4.58-11.6-1.52-16.22s7.6-6.77,13.11-5.69A12.36,12.36,0,0,1,162,176.68c.52,2.77-.56,4.83-4,4.93-2,0-4,0-5.94,0Z" transform="translate(-37.44 -7.06)"/><path class="cls-13" d="M149.52,176.93c-2.21-.81-6.12,1.34-6.11-2.42,0-2.3,3.07-3.92,5.79-3.95,2.93,0,6.18,1.4,6.22,4.12C155.48,178.78,151.46,176,149.52,176.93Z" transform="translate(-37.44 -7.06)"/></svg>