<svg id="Capa_1" data-name="Capa 1" xmlns="http://www.w3.org/2000/svg" viewBox="0 0 268 315"><defs><style>.cls-1{fill:#fff;}.cls-2{fill:none;stroke:#fff;stroke-miterlimit:10;stroke-width:17.32px;}</style></defs><title>reportes</title><path class="cls-1" d="M268.51,71V332.51h-237V71h237M284,55.5H16V348H284V55.5Z" transform="translate(-16 -33)"/><polygon class="cls-1" points="220 26.25 52 26.25 52 60 220 60 220 26.25 220 26.25"/><path class="cls-1" d="M181.17,39.83V52.42H122.83V39.83h58.34M188,33H116V59.25h72V33Z" transform="translate(-16 -33)"/><line class="cls-2" x1="44" y1="93.75" x2="224" y2="93.75"/><line class="cls-2" x1="44" y1="135" x2="224" y2="135"/><line class="cls-2" x1="44" y1="172.5" x2="224" y2="172.5"/><line class="cls-2" x1="44" y1="213.75" x2="224" y2="213.75"/><line class="cls-2" x1="80" y1="255" x2="180" y2="255"/></svg>